<mxfile host="app.diagrams.net" agent="Mozilla/5.0 (Windows NT 10.0; Win64; x64) AppleWebKit/537.36 (KHTML, like Gecko) Chrome/136.0.0.0 Safari/537.36" version="27.0.9">
  <diagram name="Architecture" id="0">
    <mxGraphModel dx="965" dy="696" grid="1" gridSize="10" guides="1" tooltips="1" connect="1" arrows="1" fold="1" page="1" pageScale="1" pageWidth="827" pageHeight="1169" math="0" shadow="0">
      <root>
        <mxCell id="0" />
        <mxCell id="1" parent="0" />
        <mxCell id="api_triage" value="Triage API" style="shape=cloud;whiteSpace=wrap;html=1;fillColor=#d5e8d4;strokeColor=#82b366;sketch=1;curveFitting=1;jiggle=2;shadow=1;" parent="1" vertex="1">
          <mxGeometry x="27" y="48.38" width="120" height="46" as="geometry" />
        </mxCell>
        <mxCell id="api_bazaar" value="&amp;nbsp; Malware Bazaar&amp;nbsp;&lt;div&gt;&amp;nbsp;API&lt;/div&gt;" style="shape=cloud;whiteSpace=wrap;html=1;fillColor=#d5e8d4;strokeColor=#82b366;sketch=1;curveFitting=1;jiggle=2;shadow=1;" parent="1" vertex="1">
          <mxGeometry x="25" y="94.38" width="130" height="57" as="geometry" />
        </mxCell>
        <mxCell id="airflow" value="Flujos ETL" style="shape=rectangle;whiteSpace=wrap;html=1;verticalAlign=middle;shadow=1;sketch=1;curveFitting=1;jiggle=2;glass=0;strokeColor=#939393;" parent="1" vertex="1">
          <mxGeometry x="195" y="112.5" width="110" height="80" as="geometry" />
        </mxCell>
        <mxCell id="elasticsearch" value="Data" style="shape=cylinder;whiteSpace=wrap;html=1;fillColor=#dae8fc;strokeColor=#6c8ebf;shadow=1;sketch=1;curveFitting=1;jiggle=2;" parent="1" vertex="1">
          <mxGeometry x="338.57" y="112.5" width="120" height="80" as="geometry" />
        </mxCell>
        <mxCell id="5wgpudkQjk-QjJw8Ud6R-9" style="edgeStyle=orthogonalEdgeStyle;rounded=0;orthogonalLoop=1;jettySize=auto;html=1;" parent="1" source="dash" target="5wgpudkQjk-QjJw8Ud6R-6" edge="1">
          <mxGeometry relative="1" as="geometry" />
        </mxCell>
        <mxCell id="5wgpudkQjk-QjJw8Ud6R-11" style="edgeStyle=orthogonalEdgeStyle;rounded=0;orthogonalLoop=1;jettySize=auto;html=1;exitX=1;exitY=0.5;exitDx=0;exitDy=0;entryX=-0.016;entryY=0.48;entryDx=0;entryDy=0;entryPerimeter=0;" parent="1" source="dash" target="5wgpudkQjk-QjJw8Ud6R-7" edge="1">
          <mxGeometry relative="1" as="geometry">
            <mxPoint x="655" y="232.5" as="targetPoint" />
            <Array as="points">
              <mxPoint x="655" y="153" />
              <mxPoint x="655" y="240" />
            </Array>
          </mxGeometry>
        </mxCell>
        <mxCell id="dash" value="Dashboard Web" style="shape=hexagon;whiteSpace=wrap;html=1;fillColor=#fff2cc;strokeColor=#d6b656;sketch=1;curveFitting=1;jiggle=2;shadow=1;" parent="1" vertex="1">
          <mxGeometry x="495" y="112.5" width="130" height="80" as="geometry" />
        </mxCell>
        <mxCell id="edge1" style="edgeStyle=orthogonalEdgeStyle;rounded=1;orthogonalLoop=1;html=1;entryX=0;entryY=0.75;entryDx=0;entryDy=0;" parent="1" source="api_triage" target="airflow" edge="1">
          <mxGeometry relative="1" as="geometry" />
        </mxCell>
        <mxCell id="edge2" style="edgeStyle=orthogonalEdgeStyle;rounded=1;orthogonalLoop=1;html=1;entryX=0;entryY=0.75;entryDx=0;entryDy=0;" parent="1" source="api_bazaar" target="airflow" edge="1">
          <mxGeometry relative="1" as="geometry">
            <mxPoint x="215" y="182.5" as="targetPoint" />
            <Array as="points">
              <mxPoint x="160" y="137" />
              <mxPoint x="160" y="173" />
            </Array>
          </mxGeometry>
        </mxCell>
        <mxCell id="edge3" style="edgeStyle=orthogonalEdgeStyle;rounded=1;orthogonalLoop=1;html=1;" parent="1" source="airflow" target="elasticsearch" edge="1">
          <mxGeometry relative="1" as="geometry" />
        </mxCell>
        <mxCell id="edge4" style="edgeStyle=orthogonalEdgeStyle;rounded=1;orthogonalLoop=1;html=1;" parent="1" source="elasticsearch" target="dash" edge="1">
          <mxGeometry relative="1" as="geometry" />
        </mxCell>
        <mxCell id="5O80SeuH3AgOk1G1C7dY-1" value="Índices" style="swimlane;fontStyle=0;childLayout=stackLayout;horizontal=1;startSize=30;horizontalStack=0;resizeParent=1;resizeParentMax=0;resizeLast=0;collapsible=1;marginBottom=0;whiteSpace=wrap;html=1;glass=0;sketch=1;curveFitting=1;jiggle=2;shadow=1;strokeColor=#C3C3C3;" parent="1" vertex="1">
          <mxGeometry x="382.14" y="176.88" width="80" height="120" as="geometry" />
        </mxCell>
        <mxCell id="5O80SeuH3AgOk1G1C7dY-2" value="Bronze" style="text;strokeColor=none;fillColor=none;align=left;verticalAlign=middle;spacingLeft=4;spacingRight=4;overflow=hidden;points=[[0,0.5],[1,0.5]];portConstraint=eastwest;rotatable=0;whiteSpace=wrap;html=1;" parent="5O80SeuH3AgOk1G1C7dY-1" vertex="1">
          <mxGeometry y="30" width="80" height="30" as="geometry" />
        </mxCell>
        <mxCell id="5O80SeuH3AgOk1G1C7dY-3" value="Silver" style="text;strokeColor=none;fillColor=none;align=left;verticalAlign=middle;spacingLeft=4;spacingRight=4;overflow=hidden;points=[[0,0.5],[1,0.5]];portConstraint=eastwest;rotatable=0;whiteSpace=wrap;html=1;" parent="5O80SeuH3AgOk1G1C7dY-1" vertex="1">
          <mxGeometry y="60" width="80" height="30" as="geometry" />
        </mxCell>
        <mxCell id="5O80SeuH3AgOk1G1C7dY-4" value="Gold" style="text;strokeColor=none;fillColor=none;align=left;verticalAlign=middle;spacingLeft=4;spacingRight=4;overflow=hidden;points=[[0,0.5],[1,0.5]];portConstraint=eastwest;rotatable=0;whiteSpace=wrap;html=1;" parent="5O80SeuH3AgOk1G1C7dY-1" vertex="1">
          <mxGeometry y="90" width="80" height="30" as="geometry" />
        </mxCell>
        <mxCell id="5O80SeuH3AgOk1G1C7dY-6" value="Secciones" style="swimlane;fontStyle=0;childLayout=stackLayout;horizontal=1;startSize=30;horizontalStack=0;resizeParent=1;resizeParentMax=0;resizeLast=0;collapsible=1;marginBottom=0;whiteSpace=wrap;html=1;sketch=1;curveFitting=1;jiggle=2;shadow=1;strokeColor=#AFAFAF;" parent="1" vertex="1">
          <mxGeometry x="532.37" y="176.88" width="92.63" height="180" as="geometry">
            <mxRectangle x="520" y="180" width="100" height="30" as="alternateBounds" />
          </mxGeometry>
        </mxCell>
        <mxCell id="5O80SeuH3AgOk1G1C7dY-7" value="Panorámica" style="text;strokeColor=none;fillColor=none;align=left;verticalAlign=middle;spacingLeft=4;spacingRight=4;overflow=hidden;points=[[0,0.5],[1,0.5]];portConstraint=eastwest;rotatable=0;whiteSpace=wrap;html=1;" parent="5O80SeuH3AgOk1G1C7dY-6" vertex="1">
          <mxGeometry y="30" width="92.63" height="30" as="geometry" />
        </mxCell>
        <mxCell id="5O80SeuH3AgOk1G1C7dY-8" value="Tácticas" style="text;strokeColor=none;fillColor=none;align=left;verticalAlign=middle;spacingLeft=4;spacingRight=4;overflow=hidden;points=[[0,0.5],[1,0.5]];portConstraint=eastwest;rotatable=0;whiteSpace=wrap;html=1;" parent="5O80SeuH3AgOk1G1C7dY-6" vertex="1">
          <mxGeometry y="60" width="92.63" height="30" as="geometry" />
        </mxCell>
        <mxCell id="5O80SeuH3AgOk1G1C7dY-9" value="Indicadores&lt;span style=&quot;white-space: pre;&quot;&gt;&#x9;&lt;/span&gt;&lt;span style=&quot;white-space: pre;&quot;&gt;&#x9;&lt;/span&gt;" style="text;strokeColor=none;fillColor=none;align=left;verticalAlign=middle;spacingLeft=4;spacingRight=4;overflow=hidden;points=[[0,0.5],[1,0.5]];portConstraint=eastwest;rotatable=0;whiteSpace=wrap;html=1;" parent="5O80SeuH3AgOk1G1C7dY-6" vertex="1">
          <mxGeometry y="90" width="92.63" height="30" as="geometry" />
        </mxCell>
        <mxCell id="5O80SeuH3AgOk1G1C7dY-11" value="Geografía" style="text;strokeColor=none;fillColor=none;align=left;verticalAlign=middle;spacingLeft=4;spacingRight=4;overflow=hidden;points=[[0,0.5],[1,0.5]];portConstraint=eastwest;rotatable=0;whiteSpace=wrap;html=1;" parent="5O80SeuH3AgOk1G1C7dY-6" vertex="1">
          <mxGeometry y="120" width="92.63" height="30" as="geometry" />
        </mxCell>
        <mxCell id="5O80SeuH3AgOk1G1C7dY-10" value="Análisis" style="text;strokeColor=none;fillColor=none;align=left;verticalAlign=middle;spacingLeft=4;spacingRight=4;overflow=hidden;points=[[0,0.5],[1,0.5]];portConstraint=eastwest;rotatable=0;whiteSpace=wrap;html=1;sketch=1;curveFitting=1;jiggle=2;" parent="5O80SeuH3AgOk1G1C7dY-6" vertex="1">
          <mxGeometry y="150" width="92.63" height="30" as="geometry" />
        </mxCell>
        <mxCell id="5O80SeuH3AgOk1G1C7dY-12" value="" style="shape=image;verticalLabelPosition=bottom;labelBackgroundColor=default;verticalAlign=top;aspect=fixed;imageAspect=0;image=data:image/png,iVBORw0KGgoAAAANSUhEUgAAAWoAAACLCAMAAAB/aSNCAAABs1BMVEX///8Ax9QArUbkOSEBfO5RUE8R4e4E1ln/dVcMtv9OTUxCQUBGRURKSUijo6IAw9HZ2dm3t7Z5eXjKyslpaGc9PDrm5uXDw8NzcnEMuf8Ab+0Ac+35+fnY2NgAeO47OjgAqj1dXFuNjIzw8PBjYmEAvP+UlJMApzDjJgD/c1MAsv+mpqUS5Pecm5sE2k3kNBniFgDuKQCEg4P/bUkGkvR5rfQM1+QDyVNWv3bsg3nyrqj87evjLArpZljmTjuC3OTd9ffm+PrA7fFt2OEFjPIBid4BukydwvbV5fvB2PkE3EcEtWU/uGXl7/0qtFns+PBRl/HG6ND40c7mUD7paFvti4Lul5D0urXrdmr2ycXlQy2Z4+m36+/9kHvzsqz/hGr63duncYyBiLOxaHxzkMHVRz9js7gsKynOjX7MT1Dfg22SfaCymI9UxP9hmc+PpqRHpOF5z/8InvjEV16IaX+RPzMygqtNQTQhh486cndIUEBNODYqoKkDwYZNPkgDvI8I3toDtJ8DorsEynOxzvgLy68CkNQCm8WGtPUCmMkKyKWO6aeo7b3a9+Oz4cGX1al2yo+zAaHfAAAS+0lEQVR4nO2diX/bxpmGIcmQJQAj8QJJSSApHrpCy3Io16fiJI1y+4js2LHVw2nSrttuu1t7t9vubtMkPXbbbG35T945AGJmMAMORuAhQ29/TQQSxPHgwzvfNzNADONUI9Pdw3v33njj008fPrx6/8GDa9c+e/To88+ve6M+jDffHPUeR6+HezuB9pA2sS5c2Ln36dUH1x7dvT6So3hncfH7I9nROHV9c2dGKMweUZ954/61R8Ml/s7iVAZQG9d3JKxD6Aj5hXtXr90dkq9A0plArcDaj/K9zQs37n+Wfny/CUlnA7VxfUaJNQnwzQuH9x+luntMemrxrVQ3OqnyDpVZE9ybD9OjTUhnBbXh3UjCGuHe3Lx6N5Vd+6Qzg9owkrJGtA+vHX+/P/BJZwi1cS8xaxTaD46Zk/RJTy2+nc55nATd20vMemZmb/PBcfYZks4UauMNHdYzmzP6LSRFOluoNVnPXHio6SI06anFdM9l0vWpHuudPa1k5Ic06ayhNh5uarGeuaCRi7CkM4dam/Xm/aR74khPTQ3jdCZaV3VZP0y2nwjp7KEeEeso6QyiNu7rsv6R+j4EpLOI2ngwdNbfF5B+Z5inNLF6cEGP9YwiaxHpjKLWZb2zq8RaSHoxA8O4Ql3TY3249XjwtoWkp6Z+MPyzmkz9WI/11mDWEtJTPxzFaU2kPtNifWNu63F8h8hbEtKL2UWtx/pwbm5rLo61jHRGRnEl0mI9F89aSjpmEKbcam1rnUATrGv9bgx6pMF6C7OWzV+Qk47prq46oFHROf6GVdL52Vh0NznrG3OI9ZaY9dty0vKOvbZrmlZV5/DdE4RagzVGLWH9thz0lLwu7zqWaTbaGkd/olAbd5PW6IdzUtZxMR2D2rSsogO69EflXJldohoHL/wSo27ncp70pxOlz2WTJ+NRz23t8qwHkJbV5TUbbBvAMslSu9GoVEzXtt2gxdu24VKj6gPMVRvwO7CAF1yr2i7B5UbPh+210C+trjGZSsg6QA1Zf85sJ9495HV5C7hlYxvYNbxUds2m49i2YznYHDzTAbYDF13MutKwgO3CL5sILlwX4HWBhVm3AVx0bGBrOf8IlJD1nJj1ANLSutxzrQ4iDFp4sWybpt0tl/PAtPNwed1xWm3Dy9u44Ww3THu73C42Lbw6bE/t7Vy54i8aHcvueka5CuyFYQI7hhQnqnJRDUWxHkhaVsHkHQchLVkuDkyI2saJX861LPivQqOAVyvg77eBg83Bc6yGh1Dj3xptx0TfFm3fWJqWPRxSx1cS1jTqud1gIH0gaWkF0yGMfeIQtdUkX1SJZ/guvADsMg5bsty17TZCDci369h/4D9JHpN37GL6lNJRgknBDOqAtTeQtCytDpyD+AhCHVSAXeDzKlcWeiXLRKid4DoQ9ZM9eKGK6M6wckjl4LpNpNRZs6gJawXSslwPtoc5/Mc6wEFcDkwA4UNOksfpiAswaq48pFFXkG+YcE0o2GxOqllDXT/cmdnb3Bw8I+fGHMf6kRppSa7nmFaTyASoI4RBDSO1gPKJ7XxuHRuIH/qBuKiGqJvBxrQK/RHJu7H5ky+++HLn9QHhvTsXYa1CWpLrFW3TAkSW6Ri0gSwg/624VgG7M0HdT7+NMroFONRVyxkuo7TU/s3a0tLa0k9/9nos6i0e9dzuP6mwFvdWVy3QaxGVLOTNsFn0acL2sm30gN8OwqSijNzYb/hajSflCOp+cm60dcr80WltHmtp7YvYPDtCem7r5ypR/ZZon203bOfKMIBxskfyuQpORVo4mBFL7NVdh8Q8LHRQOsehhvkhqV1KjSeTzHppPtDS/C9iAluA+pcqqIU77QIqVehYjTZCbdmFSmXdNl1Ir+haZj5Xa9kkA/GA5RQqxS5sJJGjc6iNAgDVWrnYAWCSu6FC0lBrP5GyPtSManECYoFG2FWUt2E8QwOpOlDAIp0gLReX3k4pSFAcgL51e+jLBugEP8V1j9eBjagN/18a+WPd6lqbZ7T2hYw1n4Ag1AsKpMUJSKFE9Qx51VIeNYvddg807JKfQ1RKtmv1yrVOFePztpsw8ysU2Z/XSiXSHZWHazvVSU4/fj3Pae2nEtbRVnFuN75Hj0h1ZkKY7L2aipCWs061VRToFUctIC3zEIFVKwW18jT2Vxv1r18ToZ5f+2cB66hVb/1KgbT6fL1yw9YbPT8JkpCGrL+MDoZFrHrrsQpp9UlkXq9XG+bZjlNS0jDB/kWkltGzjyw9iCtXDGkovvcp4h9qRXk2Z7Fziie99C+cXfP+sfuvaqQzOrWaVjxpVDayds2TVilepjI+XY9oEGkY1z/bkfuHKunsPbEY0dOBpOeXfvO61D9U3ePUP1RIcxbCZHlbii3iGP2jnatBkQG1NvxrXPOeCOmlvmRxHb6KiPaPrcdKWR7ROE6v3S25ro3UQOVn7Qn868l4xtEh6aWl1549u3hxH+rixWfP0AdR4FQWQpuHUsepH9QpPG+UKyG11H+w3UCTLrHweEHegX+Np+Z/Or/07OKZer1+xlcd/b2PeXMW8m87fP/HlrpNT6m+ByS/jrQtGT2pAgvKVe4dLTlmX2NG/fQ1yPlMVJA3xM3Q7reM/UZx95cJzEOxUcw38FiuY4m/ruIQVZ7dUQUhaROMFfXTiyLOfd5nLtK0177co/1jSznH84P6LZUjMv3bXTItKRnqik0Y2w6+fGiT40L9tB5HOkobh/WuD/rniUJ6Sq1RrNnB3d4Tfp8MdROvbfdy4UdjQv3+8gDQPm3oJH7CtxcE9e5j5RQvUVC3+nd8QzgsWHUSeHXZxTHNdMaOB7UaaUx7/xkJ7dd3dm7gXDpJc0ikVr64fWcVR26uiqT4PBfGalrRz0aNWp00Ce35pfm1f//tbxFopVEALqiV0o8KhoMjm50AqaVttCHuObtxoP4wCWkEu37xtf/4neOAuV8lNWlEWm1MoITMFeQxazc3eP149UD07hgD6lsJSWP9DrXjv08OekqxUCTm6hrrgnDUUAFdOIdNZcaAWgO0j/o/NUArvsUQ3/Ew98jhPOTYM/4nA/X3BmV5UdWX3/0vmJ/+9x80SCv2M4Ego8ZZmnPcGTMTgfqD5Pax/O5XH70H/vjH38/OXkpKWnHwtoiDGT1rgYEc+7nPZKjbtUo+n6/UUp5QuZ8U9Mr+1+fPnj373u3Vb2ZnE8JW7mbCaDCGNjFtQWfneqdU6hTZ5RJuQNuV9QL8u9OF1wx3SpVILdQs0WqaQtTl7aZrozmCju02F9j9LqBd8IeC+734hruG9s82w39ZSQj6zLfnEenL09OrH5+bnU1EW5k0zTekzp1hA5UwFruM5pu2e66Du6LQNNYm+cuvOxmZItTlqguC/j/4A+D2qND28C741BOVUgBwH+I9PGE+SmbU9eU/nUWgYVBPT09vfDM7mwT2ovLQS5dyjdBLONSkcGeXrY5RdPtlpl32C3K5ONR5l18f0PUo3hp3h5EOBJsNa5xAsS8keD9RUC+/+2cC+uxZSDoMa0Xa6oNcJt0WOkELqYK6lGuEmBKjXneDaMaPhxC54dTYBUF6jnOlyCVzIismCumVbz/yQeOgpsNagfYlddIkUFz6XKJ9TkLUZtNnFRhI1cW267uFQyuKqEs2adlmb6G70LNs8jM3z+yDe3sG6YC0TOZDXIC5dLOaxKlXwpAmQQ11+9wsq0sy3JdmEwzctpi6hVQzkT4nMWqCyu7gDhIYjl4FqUhqz4UKLVIdUahr5Iawq4EZFJtkOKHRtwyM1aUPJdgtYyse9g/G1PcTmMcfQtCoUSRh/VeetYj3pUvwwwSk8YFS7texordtDGq7Gp3ip5Tskfh06ZcstEg3Vf95PXx5GDNb8FsG5pUauAOH+UQ9p67Xv6JI+/6B7FpAOiR+CUMmimPLiaTSTekykQy1K3ofhQpq0vvHPUna69dSWLiNBvSAZtAYMI9P4tuSaSmVC8X6/mWadOAfEPVXorAWSMpVIBLFFDGS+nGpqwS1+KFbFdQYWqRYIk7ct2e+M5akGnxiQnol6c2oOvXK/zCgw6COtIxpkPa9mWpTWqI+JzFqrnkKpIA6R2yLNx8S6/0Wrmex8doF6EKgpoByOHwozPF+qIh6+X8/YkiHQY2UNmk/4yhQn9REfU5i1JIBMAXUXSC8Uh7ZbJBc8y6M7kCQx8DD+2Eh4uiK/hEhfZkmrWIhMqhiCfJoJs/2JUZti6crKaAmVWm0u7bKfE5yi74v4zvQLeN/hfchqXTojagF9QpPmvYPbCGDWMuYiiWqDknEsfmsBLX48UQF1E1hnhPcZP19V5mMGW0DNdgm7SC4W4EpBNT8Y+XvPGnWP+KzkOSk/Shin35pNxjDxEobNZtqcKuF+Q9bByKTRnayAKjLQVah78G/qfhH/d3zPOnLPOqPY8NaDlUocU9eNdrnlDJqT9SVgVRkkw6SchSog0XHincelDZ4Z0zJta8S1PXLPGnOPxDrr2NYx2EViXgFn3IJXCVt1K7E6kmbHL7rAhuNHW6CBDzdmLj8GSgNKS5/HQlq3j+kRaMWab8FjFimHcnERos6TH/o9ALdbGQLyNH9WMdhwZyBilXXo0YtQi1vGuVIJeJjiDlBQDc1KaNuq6KmkmZ8eUhpRTkILt4ZB1RJ9Vai9hGx6jjWMUwlIoWwWahywv1FjAGOK6qxV5D8GyXZQSYO+g4CTI2upvqfovYRtWri1yLWingpeUGHcUT4Y/q2HFmzyDcTYdSirQa5EvoU33Uk6pkWXMGql/8cJS3yDwlrjTdw5KlJ0ALRwZJ2sudEWgMiXB/SVWTfi/HVCS4ODn5UtnQjXU0fKFj1vsCpZaijbaPOu046AwZNqD6ntFGTia3RWRD04BuR7X9ALkLwKVpArSXpLKO3oDDUVf+7wD+EVk1Yf3fuuKRJT5PAPgILoQrntFGT0YNoD2wrMgiEu5xgE4jalbDWQuuBFmlemW5WlVZRiFps1cRDPp4NYWv9p1jXyXTIkkj+DOn+ummjXhcU/0ikkYh0/MP4txnHwQ7ikC/ZonN/sH8IDSQG9fTq6nc+7HN6/9Fbh4tcWiQbC+/wtFFX2N5SbrO0h3skcDFbqrnEjHO9SFeTSqt4ZvlblQKGgT393Tfnzp375qXwhAfJP1vJs4S4OA/DLm3UJAUB/KtHCsS4okditiw2LLCDrOODpHuAjVsqfU31W/8XYR2PGsLemP749sbGFTGueBGYHcm3XNiljToY22IvdFF0AfyJ8Vy041UFT40o1Yq3DCPCehDqgPhNCbAY+RYhfbqFnHXgmqmjJm2yZdEW4u+Es5Vy/4kGJtPoD9mzq7+v0CreQivyrBVRT6/elhGTqkvmrUtTF7/RZClwVI6B2n/6xgLhank72igiBWO3bKbhV7p8Z9ngBISQNox/MKzlud7xWeO7D8ifry0zo3/po/b8x/fsTj7X9tq5rj8NJPriyWBGAptpFP2w5q7MJ4NQr9wKVmVYq6NOzLoWbes54eog6HNKHzV+0S0OS8d24f/8qWSWGdlmMBGCG+4Uzb4ZPINs5YNw3X8IJtsosZ6+I8cWVU88jsrDCRxmCKiNskU/s+vHaFOwSUvgH4GD8KcwINejSTOsk6BOyNoV2iItD497+e2mPxmh/2VtIGp7IGrD67ksbNAQZvmk2XC54bGKKF0ZMC7AkjaMF+e1UCdjbeIXSMTW8+uN8L0SbfR3IyyY8bIryRS38cpsHiF+SUWuh5zDslDvALDtljjJb6NjdSMe3sSnwO4mvrNp+QN+G33WyVAnYu3VcrnagJ4T/J9ooNanO9Da3DL/w8jzFuVaTvTqFa+4UECPGZR6XfnLQjzqQLjj404hdgpqlLRhHNATqxPBTuTXr6Di0moR6ZB1UtSZZx0zMUFM2jCen9dDnXXW8gpm+UPZbwjruJ49iTaej/LUJk3SCkZOGrLWaBdPWe9rkPbjWgP19MbBqE5s8iQJ6njShnFHE3WWWYsrmOW/DPrdHT0HyTBrT4h6MGnMWgv19MaL4Z/WJEpYl6uQRqw1cpAMsxYNd6mRRqxXT1mrS9AFsvy+8q/fO2WtrujIYgLShnFbl/XR0M5oYhVBnYj0KesE4jv2EpI2jJunrBXFdewlJm0YVzZOWSuJRb38N41NHOmy1pv4dGLF9KGu6JA2jINVPRPJGGsatSZpWHJqmki2WFPd1dqkoQ6mtWBninWIeuV7x9rQCy3Yq1qTJ0+m+qiPSdrAsJN7doZYB4MwxycNdXAlOezssPZRp0Ia6s7R7aS0M8OaoE6LNNKdo5sbibI/nQnYJ1GfYNKfpLvROy9eTifArTEB+yRqfwiksSDumxuQtwrwbLDeHxJpoucvjq5Mbwwmvnpb59nGE6b9M/Xhkfb1/ODo5ZXbqxuEuZD66vSwD2L8+mR56KT7uvP84MXRy5dXbhLsvjD91Y1Xf46ZN2C+x9B0B+r5wcHBC6Sjo6zOWDhV+vp/CZbNZMTKfGcAAAAASUVORK5CYII=;" parent="1" vertex="1">
          <mxGeometry x="186.81" y="60" width="117.19" height="45" as="geometry" />
        </mxCell>
        <mxCell id="5wgpudkQjk-QjJw8Ud6R-3" value="" style="shape=image;verticalLabelPosition=bottom;labelBackgroundColor=default;verticalAlign=top;aspect=fixed;imageAspect=0;image=data:image/png,iVBORw0KGgoAAAANSUhEUgAAAeAAAABpCAMAAADVwgADAAABJlBMVEX///8AAAAAv7P+0Qo1NTUAqeX5sRABm4/u7u75+fljY2NQUFDh4eEAvK/+zgBtbW1KSkqioqL5rADBwcEAlokXFxf97tDLy8ur5uL/9dB5eXmr2dUysugsLCzq9/wjIyP09PS1tbWMjIw5OTmcnJxYWFjQ0NCFhYWpqano6Oifn5+JiYnFxcWxsbF+fn4mJiY2LScApORAQED/8LwYGBj+2UD/7KheXl7X8PorfJzJ5+Th8vH/+uX/43v+4Gr+3FT/55H/7LD/5IT/+eL947T+4G37x2P8xyj5tyf96cT90CX83qb+2kr6uzv7y3D8zUB9zO+w4PU4KB0fqd1MvOo6jLE5nsghf6WMzvBLXmRNiKO36+dRzcVVtKwdq6CQ3tiMysRp08xCJsnWAAANlElEQVR4nO2c/3/auBnHIZCcDW6AOoyUK4dtwEDikIamZUt6adprt16vt/W27muyZv3//4lhS7L11ZKNE0Je+vxyF8vWt7f06JH00FJJS0tLS0tLS0vrPujVk+cvf7y4eP369cX7yzfPf1p3fbQK1JPLT5XK7u5uBSr6349vn79ad8W0CtCb1xhaQru7Hy/1TN5sPbmo8OHGjF+8XHcdtXLr5YtUupBx5a2exhupNx8V8ALEP+rVeOP0XGX2Jogv111frUx6dZEBL0D8fN111lLXu52P2fiGiN+vu9Zaqvrj452dP2UnXHmy7oprqejVhyXfnccfMhOu7Oot0wbo552Qb6gcZvrtumuvJdM7hDcf4dfrrr9Wun7B+OZaiD+tuwVaaSL55prDmvA91juKr7bSD0s/M3xzEb5Ydzu0+HrF4buzkxlwZfdylVpYfiiroDY9MJlR53SMfF//ygWcZz+8yrHloByqtkIOUnU8zzZvs4BbkxV1TtnN9fGfuXx3Hmd3pSuVFW6XmlETGvkzkGoWFtDMOQvWKwjYzvMt62DlX4YrL/K34dYBw046vL0Sbk8rAH71QcR350NmwqtcPNw64AnopMXtlXB7WgGwwEBH+ktWvpcrtEEDTlF+wLwdUqIX2QCvdDVcLGBnOBy2yEc+6CSvoBLuVPkB/5rGN9MU3r1YLX6nWMCtZV6nlMccOVkDp6AS7lS5AYs9rIxTePfTqpEdxQKeL/Pq0Vsi3zt0N3qblB2w2MPKMoV3K+9Xv/MvFPC0zAO8ucoL+JfHMn3clanyqZifOhQKeKgBR/rpd1I9SVdxcbOFAu5rwGuTERwtFTAHSkLAhuX7loBVMBk3FovGeGI7+GPQHz3FGvlHB954OHF9fuaHk8DhfTa1l+1w+WmRzLDi4mTwTpgJWfmS5U68sddyO8ljCDiAFbZdO++59C3L8MpI7aFDJPEAm/ZhD72/YPwjq1bG1PbQRYU5hI/mzXmoAdgvOe3oIbV5CkZYHvWjuAyfyLzvUbcg08M4rdfijL6ON0fpzRbZ0CB8OAItWIBXOlijZlixx6hYK3nPjTPu3r+bGa9M6ABPYwEHNfL18oTI7LBMqxn2tDlhng+j9w0OYH9AvTqACTMmkxH2mUMlH5HNtOivib23HT7pOXgLYlJOly4WJFnojylR4Ub6ImQaKvpBrNTcWRlzuvYLrIIMYLrvydTSgk2OrqLoUVFOASwaC8LMgawenUgYngb78dxJkiPA5WmpFNuONjK31jH9IRxwELBhUcnVVMLD46pcz/6wLdLTL59/n5Y/JaPKNhybFgxgDqnyOKk8JzWydCP2uQgwyzfs9xJjaSIlK7TVZlNxwi3O1/UkGQC2sPYdizOGRguC9ft0eurBa72nALjaFALe3j45efqbjGtSHGrr4XA4Q7CTux0GMBqtzUa3Fk8Z1M0O/Hs0dG23NY6oNqMUDmBgIRnAfvzCsohF1Hdgmk5R74WZH8yiis/jz0xU96ghaM5hyw1c7MvzRrcRm6GkWADYxkYX8gbjl6u1bg384RB9Abqh3ugmjUxxrKcqeKvVv/4thfCS8RdFSw2nXBUicilinDU4bMXYj4yQ6cNeReku1TzHXcCV0HQcaGF7hgME7BgDGI0a4ASZ01Yd5genYIBeNJaZJ3ftY9jZoOYmasg0qXhoABrQvUZ+VGJMAeAmqE334Ggy9JLPojZGewbTsbtxcxPT3Ae+pnmARpm4x4O+EuBnf08FvH2yrWSnDdgtiZsKHsRLGwu408OGpwmnBdHLxNJnJOtRjZgYKJ0CDKfQKUYGZsHJPHkJTu8+3ZAu3tYJtjZCwrEjZcewSK8RGSXMYzPjxRl90YzTOAOLkqdkodMWYSQVwh7VzFLpgKyg7KADNgjOeODIjAXv1qjBFIkG3GNqhARcWcG1U5f5DEz4U9HGFMKJbXgCmPwCmjhusQhwG3vGbrEoNdQAV/8tBfxUwUr3GH4OOYplgE3wOjSVhzyEsVQAw4nHGyNgBh9zUpYqM/U0TqNHAf/9UgmsLjP0ZwyYmnsswkQIML4fgyO+xf1gKbOpxrf6TAr45LOoELqGxHADSLvEXylHlcR4OIL9zCesApg1KbHgGtzlJCE8REOAyyOMBRqRuSHA9OYZPB1ys0CAHezZVDxCQfpAFXC6lxURlhpp2GfEMzBRkJcgBXyK80GObpV7/6cCGDj1c/bjpDvnnMw9YUOEAaE1LmD6INUVD7i4RsSmyEgZhtE3KrvgCPA/5IC/iEpBmnEaBbycY9iJEsAmCTg5TejRp4glJcBws8MvL8l8SGcOqjkgnrWIkcpUnA+YXmuhc843SRZnthr9dMC+mhMtd6MjwrKLG9AvbcJqgAq20wAbQatRX37U6/XhHh8BNrE9/4jeDCoAnra53Uz0HcicXFvBw3aVbUgTf83sTLqjeVjx4z410yBgeskecUZOLJ79lgF2lQH/UwGw7LyDOYJJJAY84ZxWxj6Fgye2SVdDAbBFZUeKOHXr47sZcTvmSXF2nU2mAdNON2iOwAzA2hLbKhngI2UTrQL4X6JipP0iBHzAfbslegH3WdQBC38rQB6FJq+J2xEDtrnJMsBgSAkWcl5tZYAnyoDlG+HtbdkiLO6XsgPeoACb+CRo9497cE7hU87x8MPbhRMnFAC45IzxzFHHm+J2DGBxY6LifVRxGeCeAmBiKZIBPlgD4NMaR/wZjO5z+g3Xt4zwtJEFvKSAW/F6DHRlEw0yb2GZoxUW/NVjm7HoguLiqb+Y+NY0rDi5HUyfwekmOhPg1p0CBuNT4EJEIgG7sJewqAABET+5nYt3ouqAJVHSnSRzD6+FeDeHtliN5BhjrgSY557TuWYCfLcmGl5/pLxBAoYGmnVvOFPOim/J0Z5GATDsHmkMmBUjBsROJSMVGmi829UAw3JSt0mZALt36mR5eCdxRQCG5xjEzkMIOLn4Q/NR5aADdPtctr+DITZx5jXJSK2ynKpKgOFREB0YBpQHsH2n2yQX1PBI/AYBmGNAUxdNeKqDVjAVwHDGKMQ1WXjm9FUiJeiEEfE9p0qAA7bJTBUyAS70oGM7pX9AK0ENq+I3CMBwSuI+7jANMLQQKHsA+DgVMOxnYf9gAsdw4FTTYgnigoBn2KOAKkgAGG00uNnmAWwpXiYpHVXKbxtqsinMA8w5YRAAPsAYCNYzCjCc9AKbSAhcXcH1AnrWgls6CBhf2uuKgOG+gXt5kAdwoZcN8vvCDr8/jbidPBPNidCCfHzq32IgXbQhryz6PhiOgj5mpJ1W9EkQkJnX8cwhnzblThhO9B8IuJ8koG2TFDDqIXwOdMiYrEyAzboi4IGcr8zFCoW8UczsGp1ucrxKIIIw4qVuGoc5Qj5ueeD5CQbKfsM+RLGM/JCdOEqiBVhN/VkPTMxheTDEQu09suObkCHW28ZyO2UTqahZSYCtFHAckgXjnQ1r2ERf5QFc3IW//C4pqs8prP9gbIf/YoztRXFufMBx6NysY1m+jQWixoDLYWzaMFhmFcRB5qjTkPntH9qB642Ae8TEZCVHTs3Fog7yiABH9n7QOIgyP0T97pSIzl6OHy98obMsoJ2MRRRYVbN9y++MkzN4OeAkCHAwWoya0aczosxsgJWiZlW2wSoBHUT9cQkAc85zJwxgYV5UaCXYtbJhs5y7jASwOPOAl4wAT9kUEJwgB8wrdxXAnYKC7hT54qGBvH6jjiqZqGgfuFkpgDkht0AiwCYTwC4GjB8Sc4cqWk2YgO0J2HIrAObEY68C2FCz0LKwWbkDnYgT8y8CTP+4wILhbmLAxGUpYQFEgDkVipwsDmAyksbh/PIh3hlTlFwY2aACmG3WKoBLI5VFuJeyBJ+cbH/J8tuG8FTxlKg/dlXP/ENo2FRozxzUehScaNeJnwH0x5RX28FmJ9i0GjxUxG/M2jUUtE3e5x4fMjT8GvkrhBq2bXKxomuhwxThiYduGuCS4+E353O0T+ReF4JnKYetk2ZdruZ/nor05fNvWX+etGyBf9AYRTmPujYOxe+Ewg+WHLfRHAzmoxn8rakZLF9IPjE6k9kizGrRnfA2s0G3PqjO6w2UaEYFdOjTUiPwastcFjPXd5KnU0nmy9p1hqghM5uihYp2YWEB3jIjqkYgPCP1W2G+o0YL6wwH1J0oBrYn7SjOXEkpGRenFYtZ40/AH86vz7W0tLS0bkNn30u1n66rq/N1N0JLrLM9mR7JtXV9oyHfV/1377tUfd1S0aNH1/vaabyXOpMAVuIbMd7aX3dbtHhKn8JqExgivj5bd2O0WJ0XM4EB4pt1t0aL1f9SpnCWCQwm8bpbo8Xqa2F8NeF7qbOCDHQE+Nu6W6PFSmCk97JP4K0tvVm6j+J70nn4aj/6fqooA623wvdUvL3So+x89S7p3oo90MrBVztY91g0Yc33oelM833gOvtuT/N90Dr/upefr/avNkAm2A/nOKDculp33bWU9P3eXq4DaB3QsSk6/6rN8wPXzVY2xHr6bprOrzMQ1qvvJurs+pEaYx2Htak6+yY31DqScqN1fpM6jZdp3/TV4IYrYsyBHD78dqUn70OQeXVzvUX/juHbvvabH5R+OLva379Zan//6kyz1dLS0tLS0tLS0tJ6WPo/YxOKh/fKqpkAAAAASUVORK5CYII=;" parent="1" vertex="1">
          <mxGeometry x="332" y="70" width="137.14" height="30" as="geometry" />
        </mxCell>
        <mxCell id="5wgpudkQjk-QjJw8Ud6R-4" value="" style="shape=image;verticalLabelPosition=bottom;labelBackgroundColor=default;verticalAlign=top;aspect=fixed;imageAspect=0;image=data:image/png,iVBORw0KGgoAAAANSUhEUgAAAasAAAB2CAMAAABBGEwaAAAApVBMVEX///8/T3UoPWk4SXE9TXQvQm00Rm+Az77u7/KTmq3AxNCFjqQxRG6PlqmjqLgtQGzT1t7c3uRXZIQiOWd/h53Hy9Tu8PP5+fvk5utEVHmaoLE7RnGD1ME9SnO2usaorr1gbIp2gJl9ybtPXX5JY4Bsd5JMaoNytK5RdIlcipV2vLNnnqEdNWVUYYJfa4qwtcNahZJrpqZVfI1GXX1vrqpilZtPcId+QHkpAAAN90lEQVR4nO2deWOjKhfGo4DNQmvMpmZfmnamnSYzd9653/+jvSCLIJiYxNw0HZ5/ZqKowE/wcM7RNhpOTk5OTk5OTk5OTk5OTk5OTk5Of69Gw6dWrRrPm7du09dU3AlQULNwuEpu3a4vqC4IvCsI+Ptbt+zLKerDa6DyPNh3sOpVnF4JFVE/unXrvpae8NVQeWB769Z9KV1zWHme7+yLGpX4V0TlYffEqlFtdE1W4PHW7ftKujKrzq3b95XkWN2PHKv7kWN1P3Ks7keO1WFFYb996zoIOVaH9YSDT7PucKwO6yn4PGvESqwg9GazwyXsBRyrOmVjBSeTidrz0HuB3/+ZqI5DWkL5PXvxvn33TFqOVZ2ysJq9vL69fpsoYN6mRK85HOj9env7k/+efacFHl4MWI5VnTJZwd8P04eH6Z+JsoFq+ktumbzSEm8elL+zEuvUsbqmDFZwsqb9/jZ9F2gmvwgZsnEqUEzep7TEWsCC//IC34sD6xJWcXs/H512yHBvt6/j+cmnEvrUrGY/acdTXmLYTN4eGIp/GAoIp/oGMgUSdOT3/yaFk13AqumFGIXdE46Ilz4ON5b8qQQijPApp8p1fVZJu10xymeyenvggpLVmk1xAs2fKSuQs2K/1681stoCelt4JxzRoRFusDR37LJTbc6qxvVZ9RHyqw16gxUxJBgIZQ7MHke/pr9hPowyNpwm/LbOht7rnxrnwH52glMCy2F2RGgMrBhn1fTPyli0soqlzjllQaSh4ExW8GVKUUzX+ZZnOuE9rMUMB2cEpzIF0rGYFXio07Zg8eqwenZNKZI4gKdiz2Vh1UwBFPLSZWt45qOQ6wJW3uz5lfT823M+Rmbf1gTOL5jb6O+kxPqnLAFTYtWv32q12T8vq6Ga9gBhgEDnkrSSS1gRS9B7/q2tfGfw5fdM2QIns9+/VUcFnDw/zyZmls3XZEW7DDCx+xeE43POzXQRK3qzwOIGz9gCD/4+wioeDvn/ou5waANSzioaWo/grHB7yCSZFVklQ4tJSCpkffiUsIIrpm3q08tCtLQdXEkXsqpNZaz2/TD0SY+1V30fIRT2d/tiT5Wwam/FEfPCEZyVhxHTj5bYobMa9JG/KV6t7ZMK2RZnZazyy84/EDl/sLO39Lg+OavoB70Xg3aKAC8IMV7oZays2ht5BMBAT2gTrKT8Od+hsXqi5mLRsmeZd7ZZ8igrogXtw2BgbepxfXJWj+xlB71z0U570thYrUL9iKXaRoMV6PEdGqsN+6HfA6xCwZNZ1SqsGl3aif55i+3PzmoArIWh2oEmq7hXfJ8FeMpIMFiJ1a/OilsD2iiI/Wxj0GoYqsSq0SaDFS4PdPMBXchqVgxG4TDUewIWSgAUIguAk1iRiVAZWSarnnkUUFppsAr4xXVWmT+EGAPqIN6znP7Q8sCqxio7a1+dQofjwfZjsx0sCvNqNN5uNr3VOB+EnFU8H+w228dho1xWm/3bTy1aBcE+Sdofyl09ef75M1VohZ1us9sJz2KlWJAwzcsYrAbYcgTIPUeClVimBoKjzmrIahmoVjabF9WrS1VkFZFtWE6h0aqPgmzBDIL+Tp0atv1sOwh8OSUwVgtyr9Mdflo+lVpYTV6nZGX7rKx0WaO3socnWbzqu/T+IfYUnxuwjrMC/mbZC8VtgPMeLLJqixVoEGpHyA7irGBvuaNaPoohV7ADUwOMwGd5XFVl1eiRVY14K2bsZw7IbP1FX0Obi0IjMmuT7UFA/gnFVsIKRj1Ey9N7EPqlQ8tkxSIe67X0QiB+cIz47Tz7NysxFe4/OfmvirPUMVYwfKQ92FyIkZKbYkVW4n0W1KJFRk9A/BaTWdW1MJ/wUD7h8WkxtD01qrJ6IjcP4P8nwxRi1Ft1OoPMnpdWB7kQRB+t8XgFcCCuRh2fKYCoNxgsKUQIy7yMNn9g5pd9WIthk8b5pRjNzO++Xk9foAaTrehPYAWBaEXzg23Kk4YKrHg9oQxtJByeNAiqsorZkIQ9sT8JD9S1Kiu6sc8vPe+jjz2/WpdUE/K1V5e0CbPhNGrJWyVzUqNl1tCEdjEqe7nG9LP/EvEr3hl5o3gXz74V4lcyytQtToJHWKF8bo5F3FLcGAVWSzZzKUeM2EmguJUq+5j4ikHW+pGdyLe6s6qyaobKGRfKNBZheWlyYYupSVn5cvolYxKUrdTM+NWah6/ehFvdYPUu4lfP8CJWWsX5QyMUzdRZjdhPzSLgVRdXr8wqYQXBiu9mlQF2x0NVVvTOQdYnzRaKHeQRgU1Tk7AKcj9AG5dH2kxWPJIoJjiTFXwuRLjOZKXbzdwYkzR0Vrya+kKEDXxhElT33fLHKo/wLYznl6qqrOK07BRk2PKJj7JaGPv75FGQNyvx7fYoldW2oJK5MQYrMgk+0BJvwiA4l5X+NvFToG3UWY2znYX3j/lGMT4qs+pqg9S0C/VaVWeF58WtVDmrDjEtPoz91GbP63waK7J4+v7+5yVPYzJYeTPvn/d3GWk8l1Vh7maGiWyMzqoDlN7V6y7qd0JMpMefjfllFdtf10msiuMqjpMkWklW1LsRbIvWpu63OJEVdUooiZoWVplnI18Kn8mqMB9EoXZ/W1npHcrpCldSdVaq2b7k5mRJhL8yK6g/r5J9Z5li3/dDkA84aj8B3NFXu5exKpCzsdJUKyvxYL0mK25OUFs66R+q6Al2IFLN2mGP+Sd4NwhWUZ9eGITgUfE8OVaKLHHhFjPbySK1c8hgb1RnRZsuV3Ar6guGIMAIheq4aiRLnzXEX0k8jpUiC6smH02DBl9il340pSorMq1CxFd6u4Aauengad7udpXnFVV3BUPqcgkK/kAhx6rIipvt0OPrYJuHnakqK3JC0VFPZD9I5RkfgW4gxsMVJlcFwohyrNTOsbDiNYXC91HSO5VZ0aUwL0i/xAN7uU+vyKrBXUnCR3sxK3jEDlQL3J8d2BArb67AXKEKVWQ1xrIbaD6AGnazsMouLxYgF9rsCGyCPFpkYRWEm9SXrT2TVaETzlhfYbV+gpWRNGFlNVfb7Zfnz1ZjRfmIfG66Gyj7rKzIwl+4/S5iBelcG89F0MHCKhyTk0c7+bNGvwWw+y2ebH6Llua3aPBFk+GUs7KKlSS6Q1mMlVjFdJQK9zjZrfV2x8ZqjmW9L2IFWKO6qMTPLiev3oU+JqxNV+khfyD3LgS2I8TEyKpjpp/bczlbeZgbHUgYrcIq2QDlQUt3K6EwepdZx1Udc6BsO196mL5bcS6B5mw/u9oL7Up+dtUtxacxGcnjsY6g6MSxs0pkTtTBpJayvNv852hMzTqIpRvfV+645pYW5qyigawauc3CGmwL2fP8XjZYARndKx5xavwqzOcrEY3yDsav1IhXE+t3joiqGG/1lORIyyB2eCgfpYxVuz0nas/HS5+eHiqvd+3ohNgiM8Co2yFL30Ci2+BwnLWnuwT5OLyElWxTt4SVvGnEdyLPZpVHEZK0GNIqxoX5qbHo2IRbokqKhogUFxa2Jay4t/3Ii1llrDBXdm6IesrJu/QDwkFIc3+BB4K9eDR1+x4MwiBNsRbYvxdWHhpEZCAlLZGDlL89Vcy3EEZ22NGO8HDezgVvC0j36nOt7N2DHYddbrA3ylnlgiBM9aj73Jd2GdpEDbK+yYzbeJlNu9RNSI6Rg9mMiZS9IHhjVh5p6GaDKuQxDUP9CJEaoy65BE+Ig83HQLSjjNWWD8ODiZQWVtEPP1cINgPjrYVoi1EQYBymtHaPfX/Jts83IQ4A9RNu88rQ3Mv8BKMfyK8cF/6PWZVl+5n5gR1rfqAWeRfTWlYkADIZxsoq8g9VUcj2XmOiyh5LaQ7346c5q3w8zK8czcedzuNercpo2FbPkbRL3727PSultHqLm3m3S/OT/xDq7dr3lZ3ibYASVtzM7RtrZ02f+j3827ECqdptlncPlsXPk4O0eFfvlT8MIJ7RgpVeVpiRRz5L7lhx41/1ycFQj26HlsHQ8QtHmL6hIcynSjE/snbomTgi2fGgwd5wrIQ/cLAM5dtUyCus7dkXEAqpJMOPA0cwjR4DbiLKd99WdPIs5JQNeEbnsY8yOFbMz75vdAeQmEEhBluj3+OlH/qp8TAZyiNKQ06jxS5ApIy0KUc7cirtIyXtDX/2Hf2AvGOlxESSKIrsj3eyw7q9/AipOIq6Khv1VIvVDovM/AOBKy7Hyha/+o/UQ0Ca/PD4u4iO1e1Y7dUqVvgLXY7V7Viprx35Jfmbqv56Vix6cZM/DNORrEBJBruuv55V9wfd2S9Jdb2q2KU9GPRXlS7/17NqLOiH2I6sQq+kxQ+EUD8dV/zij2PVaLbbl30d7HyRS3erj+gFwp+YlXTBibiwdH6vSuLCqBBJrsDqbpT0Nmd+Y6R+Hc+38JAYaMUFpBhGcqC1jI+F3D2rzyRbHhObISKxuBeZXvKvcAoDbifWlAGjmRh/ptOxqlO2/ECPPvXbuRcc0yjmqJV/4tB/iml+oBxFEGZHmJ+lc6zqlDXvFoMPoI4RgNMNVuc3HGy0L1+xIwxUjlWtKstnL/42Pu147AjHqna5v9NzP3Ks7keO1f3IsbofOVb3I8fqfuRY3Y+GRdd4rSq8NOp0kZoWb0N9OpYp6XSStvbc8noE6vijQ05C+bsV9QtVSD5xOkEdI5JRl8B5f8rNqVzbK5mCQepmwNrV8gPrX0S6RBD4K4fqCkoeN9ivVSgdfJo0hS+nUbNWjdyYcnJycnJycnJycnJycnJycnJycnI6Tf8HJAokXfy/k6cAAAAASUVORK5CYII=;" parent="1" vertex="1">
          <mxGeometry x="495" y="65" width="144.75" height="40" as="geometry" />
        </mxCell>
        <mxCell id="5wgpudkQjk-QjJw8Ud6R-6" value="" style="verticalLabelPosition=bottom;verticalAlign=top;html=1;shadow=0;dashed=0;strokeWidth=1;shape=mxgraph.android.tab2;strokeColor=#c0c0c0;direction=north;" parent="1" vertex="1">
          <mxGeometry x="685" y="62.5" width="70" height="104.5" as="geometry" />
        </mxCell>
        <mxCell id="5wgpudkQjk-QjJw8Ud6R-7" value="" style="html=1;verticalLabelPosition=bottom;align=center;labelBackgroundColor=#ffffff;verticalAlign=top;strokeWidth=2;strokeColor=#D0D0D0;shadow=0;dashed=0;shape=mxgraph.ios7.icons.monitor;" parent="1" vertex="1">
          <mxGeometry x="682" y="192.5" width="124" height="98" as="geometry" />
        </mxCell>
        <mxCell id="5wgpudkQjk-QjJw8Ud6R-12" value="" style="shape=image;verticalLabelPosition=bottom;labelBackgroundColor=default;verticalAlign=top;aspect=fixed;imageAspect=0;image=data:image/png,iVBORw0KGgoAAAANSUhEUgAAAbAAAAIyCAYAAACq3p9kAAAAAXNSR0IArs4c6QAAAARnQU1BAACxjwv8YQUAAAAJcEhZcwAADsMAAA7DAcdvqGQAAGolSURBVHhe7d0NQBTXoTb+B0mCNZe1thKTV4wNEpP1o0WTBm1uEW1BjShJsLbB4l+MeSXRG2wVmlhtkmo1Re2VXm1IJZJXI7mhoa2KMcKtIu+bKLdRaPygUSBR8MYEGys2VhLJ/s+ZObs7uyzL8rXswPNrV+ZrZwdyZp45Z87MBoU+2WwDERGRyfRTP4mIiEyFAUZERKbEACMiIlNigBERkSkxwIiIyJQYYEREZErtDDB7j/sg9bMn2beBdwEQEfVF7QwwERpaXgRCaIht0DYjEMKUiIj8rZ03MsuwCITwMvJtm66FNqghT1QI2tR67Ku0Z6Nx2Ff299jEP0E29L8Spk0mIqKu0cEmxEDSjm3ytKg2Tf4jXsbA0n6qCVoQ6YMax3z1052cbl+XCC8iIup6fbQThz1dhCA5bH/ZB+3DhvBRk1xo0/QZLrNbLOvpzURE1Bl9K8BUjgTZmwo1Ylj8f9m3voSvDQxWk8QEsWzM8BuReHeIPk2yv03Mk6u648vBsA4Oxo39ghytj9ocx7BdiwlERNRJfbIGZowTGURBoqZ14uPrKJxrwdhbbsDgAf0w9+v9kTlpAN69cF0t5fzx9SE3oPzxQSh59Mt49QcWnFn2FcwebQ86sXaxnFqUiIi6SZ95Gr3eiUPEivxtRWDJgNEGxf9saugn3/4Snv3uzVoLYvMXNtzzH5fw1781i3mS/o7BX+qHPy8ehJ+8+Q/87sRn2rRRYTfgDykD8VhhI8rOfq6tzR07cRARda0+VANTkaWua8kIk1Nm3X2jNj6ovwiwSTejn0gvOT24Xz+siRdhJoZDgoPwwJ03au+YN74/iv7aJMKrSczRo+9Uw3WsLP4H0u//ksfwIiKirteHAswQLdqgPv6L+H+B5aYg3CD+Er9++yqeL/0U60r1nwdq9NrUtDtvwoy7bxLDNkR+NRjvnL+uTTesEZUfXscdX7lBjRnJCCQioq7WZ5oQm0IvagFkJKNl7jf6Y8G9/XHiwnWMGuIMIHunjGP/cx1xkTchaedlvP/3Ziz/1wG4LbQflu/7VFufPZ6SvxGCB0f1x5xXL2vj8u3O5sne0IQYhD3PB2HSl8TgRzZY1vaJYkNEAaxPXQOTYeP6y+rxM2pwPxx78iv6fPHPB39rxh1f1cPsrfc/w0MivC7LFkPx7iE398N/Lx6EJ3f/A7urPhOrsOGbQ2/Af/5gIOYWNOJInfEamPMTuybAgvDn7CDcpcYgtml15hdYr0Y9mtoPHz8gPl+NXj5jw7DNHflP3jsDbPOKfpg3RI0YfSH+Vg02bN9vw0+PqmkaBjlRoOjGJkSxo6/th8bsdr7WBuHf1Bq6mvuh5jt33Ih98yzYlBAqxkTYyN4bIsH+bc8/9IXF665bbsDO71uwJ8WCgSFB+OhTGx7e0YjnvjsAVT8ahHdF8B1YOAgf/eMLlNd7Di99uBuEiHyaqoZbsWqUM7yoHcSeMXCIKAvz+mHPd9Q0IgoofegaWEuHPvgcPxS1pnniJZv6bFq7oXhp/9eHK85/jvkFV/D//e4KLl+T77Lh2IefY9zmv2PG/7mMpFca8Y1ff4I7BwdjSbQ8LZdhZQwvyTjcRUQNQbrvG0EYrg+2NDgI8berYfLun6Kmlf4FLOI1VtRQf3tG1NrVrEmxQZinhokocHRjgNkwc4V+QGjXa4UN/6HW0G1UnlwXgTX45n54LdmCTz8zhIzIH/0BHUG4N/xG/CbxX3D1czHf3oNR/JBhV3OpGac/adZ+Ltv7D6yO/xeMCpN/UsO6JLfRrvBRoxq4TdQSBqthN5MeCMI35OaIZT/SJ5EPzp6xYbkIsTL739gShPvUIBEFjr5TAzOGiKNFLwibZ4UivegfWHvgqsgrlVwyoMTcz5ptiHvp76i99AXS7utvWIdcTvzQxvWJ/6fyGt483YSXHrYg2LF+SS3bxfr/XRxo5YD4LzhVBFVLotagqmYf1dsgFqd2seHCP9UgEQWkvhNgHo7x/cRB6q8fX0flhWZsevsqni35By5d1dvm3vu4GQ/vuIzjYv6/v3UVXx0g/lRyHTKvVE1Mm2AItSd2/UN7ckewVn3rZqJG+N8X9cHhIqgm6YNO0UCMqpmVleo/PfmeCL//eqYfPv53w3XIDf3w5x+K2ptapjW/yFTLi/f+Qk3TBeEVsU5tXlY/rFJTNXcF4bj6nP/7kJp2uziRWNIPZ55X71HrrHsmCL+4Ry2j/JtYzr7M5sFBeN3+OWuD8L/VMtL//kEQ/my8Bit/p0VB+F4rtdUWxLq/8WU1fNGG36lBIgoc3RhggdeJw52Mqn/b+6n41yaGg7Cu7CrC113En2o/165rldTIJ22IGsynNqz606cyrrTMcoSWDDJHVtnwyT9FTW3XFa3mZtedUfbzU2pAHGz/TQSW0byoIGid68TBd/t72qSWYoPwq6lBuO8rekePa1pPS+FGkTPfDELREi/X14Tf1qsBUYqiH1DDkgiJu8Q6NSHAfTFqWBrnXOdf/q/+c7MIy3l3AkPkJcTPxXbI/zBinQO/In6vR0RQjdEWayF6YRDi7Z8jltcf5iXC8Kl+2DAxCHfdLEbl+sRL+51GBeGlH7fe5Gr3jTEigB8XASZXKN77u2IbDumziCiAdGOABSCZK85s0Tgf7Kv/lA+O+kIOuySPPs/ex6M1jlmG99rvA+sOZwtFLUyFzjdEYDmJQBihD/3llPeD77W/A9t32zD2R1/glswvYNkolpeZLgy8MwgZXg72Z8WB3Z6Nw4caPv/bqqu/6mjytRHOeatuUwOfiFqNqkHK5d5714YlG8XnLxfbIbbl0T+rThQieBJF0Hpyl1jXf5eKbZfXTp/Sr53Oe0z87vIzRPAUv6HWJ17ffsMG7Q69m4Pw5EMe1vclUdtTJ1H/V6xjlvi9r/3dht++KralXC1DRAGlGwMssDpxaIcs+Y94acMiV0pSv4xDj30Z39MexKsf1OS/dw8ORumjX0bZwi9jlBiW8h4OxQEx7YCYJn8Wpw7Ehmn/ot0XJsml/kus778WfBk3yJV0X24Z2LD/vD40RIREhj4IiAP0ffJXEsFQVqhP8uiEDd995gss+ZNNv54mnRNBYq/ZCcNbqf1oRAC994k+OOR/OZsxV31N//me+g7R4Y5b4EStRtWYzp6DI1jX536Bb74kaopimt3vXrGhXF2DGmjRf7o7Wym2/w+GbRfrlzU56aMqG2bv14elv+y3oVgF5pDbge/pg171/3IQ/vcPRaAl6WWDiAJLn6mBOfJEDGjDojr17TtuQvTwm/Cjfx2gz1Ae++aXMGH4jdo82UtRHr4miWW/9bUbMWbIDRh1SzAmDLsR/3b/AOwXoXVDUJDW9+Nf77gR93/tJu2xVNplMD+E2PojNr2HoQgs+z1hG9RB/NoHNvxUH/RMHNDP3h6EVT8Iwn891Q9/fq4fPs7qh+PfVPPbZMOu/1GD4mAfrw2I8JRtlyI8i99WtZ7B4jPkT1Etu0uF0XsiPO3Oiu2Y9J0gvLJEbIPYjjqxDR//u7pZ2Iu/iPW7iBHr19sRMeTrQS2apx3Xv0St7lY16ODWjX55iQhG2fQo/lt+I0b8fYxNpEQUEPpMgDnYT6Zlwoj/yya+8UNvwJiwG7TAkd/t9f2vq6OgIg+T8iXf+q8vXsKtz/8N4eJ1puE67haBFnWbqH85jqX6gPav/bO6U7k4kKvu3vKeMNlJYupQfbz8L46N8ih+Vj+c+ZGouU0UoXObM1wcXfR98Lt3VYCKkqRdBxPhd7cMng9FIJSKoJJNnOLP+Q0ZiqPU9S8RFof+LAcEEW6vrOqHPbOCMEsEr2wWHChLpah9XVZNkK35u/u1PWNplte+xGd7fIl1ix+tkt3of1tkw9jfqd9NuE8EIhEFlm4MsADtxGE8povhJu3+ryD8cHx/rRv9AyP1Wte1664Hf+eXruiva9fFMVYuI2pyl8QBWZsouR/nXFfTDWz4jzNq8LYgvPQtFRKNNvzOS+9DuaGrRI1liCwBn4iw2SxqH+o62J1V+hI+EQH6V9XUd9fXRK1pjN555L16+YvbUK6a7e4S0/9NBeu1D+FoJv5eon69SfpLmagVy1qQvG61woZKbynThrOV+u/i8fWcCCi1nFfid3PcfvBl+K1zERH5phsDLEC5BcwHl75A1cefaw/jvaGfDSnjQ7RwKjnzuXazsqS/Rf+aleIFX0b1j7+Kuqe+irG33ohN/++fqL1k/84wwSajzvAx7oHWDQ69oTpTiP+aM0drk3C2FtiuD3oWC3xN/yYZvCdqHI4QFObJJ2v5zIb/VtWUgWHAY6qTxnvq+YH2noryOtgk9czBd8Xn2dmnyVpZQaENf1Gjsifjl10rwm07AVxQg8NH2Js0O2GqoRemSLJuv8GeiNqlGwMsQJ/E4VIjkrUqG16paMIt/9IPqeP6Y9rIEOw+dQ1/vyYW1C5kOckH/condjQ2iZecL8RG3Igv9xczDOvVn0LvRxdtOKQ6c/RXofTf7teH3Bma54aLmpP9+tD3HuqHX4zSh321+gM1IK+DyQ4bova3SzXvnT2qOll8JQjRsolSfG75G3KCYt+OL4n32p/reLvqxt7e0in+DsXq7yA/76UfBWGe4VFakyYGYc8z/bBZjbdqsHhfQhCOxzmfI/mX9/z6X5SIfNCnamBaHLWoEQUh/y/XcF0cSNfPCEVwvyBsPyY7cDu/KsVBHMMeeuUyxm35BHf+6m/4j7euImrojXgi+kta86NjoR441i0XVRf7s/tw3oaft3bvl12ZCBJ1rav/EHGwX9VPu3n4JVEzu9De5079QdScZBCJ0tRfvD46B+eNv2I7PpDd8r8kamhyvMG1+W69mO945uAD+jY0LgvCLLH82Q48CeOn2wy3AYhg3rxMNU2L154fBGGS/b4xd4Zu9I2rxPviRO1LnQx8JMLrh3/Qh4kocPShAGu9VnThH1/gv858hpAbgHN/b8aB2s8N4aW/z9P9XB9/Ko7aNhv+lyXY0dyoLe94Uocf7bfhXXXN6C81xq7lrbFh9muixmIMK/H+Q6Viur1G5TMRYKrLvPRXQxOhnPffhnnvfeC6bWf/8AVW/lmEhOF61+UPbVieY0O7N0MStbCZvxK1+FNiPbIXoZ34T3X570BxmQ1b1SSv5PKfiCAu/AJ3/saXvycR+Vsf+kLLBj2C5D8yncTPa6tv0R4lFbX5EuJH3IjNiaHY9P+u4oX//id++1AoUsb1R/xLf0fZ2c9Ru+yr+F8D+2HfXz/DPz6zITQkCN+580bcGNwPSTv+jv2nxfSf6zc8ffm5BlwzXBaTzP+FlkREgaXP1MBkg6BWqxL/2GtXn4vsvv6FnCNqIjWfYeSvPsFvRHhp865rP8Qy+k/746Gm330Tvvf1EEy76yb8z9+/wJO7rmCvCC85V66vWZy5i1UqznocERF1rb5XAzOQ37ksp7lVljTy9mX5VPnPZRqJn/JJG/bLXDIKv7Dpz0/U16n/e4NcULju8klymo01MCKiLtaHamD2f5xkJatZhY5GzpddDbVgsskHvuv5I/6RISdv+5IvGWryffp1MfnSNYth+XLlPk5ERF2h73TicOSIPbDsP90Cxv6lldo/4l99QP6jk4PaW9U8t1mGUSIi6kZ9J8D0ipVgjxj1U9a47JMcmaYmON5jIMeNy2vtiuJln6axj8t5RETUHdoZYIF4QPZ1m7yEigwh1XSojzv+UdQ8bRk16kKs2GWanmb6JPk+bYCIiLpQ+ztxyKVbHMB7SCBtCxER+VU7a2AiMbTACITUENugbQarN0REfVEHmxADITTs2xAIYUpERP7WdzpxEBFRr8IAIyIiU2KAERGRKTHAiIjIlBhgRERkSgwwIiIyJQYYERGZEgOMiIhMKcjm/C58IiIi02ANjIiITIkBRkREpsQAIyIiU2KAERGRKTHAiIjIlBhgRERkSgwwIiIyJQYYERGZEgOMiIhMiQFGRESmxAAjIiJTYoAREZEpMcCIiMiUGGBERGRKDDAiIjIlBhgREZkSA4yIiEyJAUZERKbEACMiIlNigBERkSkxwHpIY1E6IkaOQsTDeahuVhOJiMhnARBgZVgqD+QtXuMQlZCKp/Ir0djbDvCNRfhJRgkQHI3nf5OKyGA1vctdweF1yZg0ORlrj1xR04iIeocAroE1ofF0OQqeTUbU5FUobVSTTe8K9j+7GvubB2PWll9jzq1qcnc4/zrW5lWi7nwlcte9jjo1mYioNwioAItclI/yt8r018FCPJcwWJ9xoRBLV5eJSDO/xpLV+EnRFYzOfBmbpoSqqd1kaBxSpsi/YQjGPzgJw/SpRES9QpBNUMM9RDYhpmG3GBqdWYw9C8P1yZqL2PFIDJ45KofjsKkyG7MGaDOIiKiPC/BOHIMxMTZCDdfj4wY1SEREfZ4peyE2VhVi4+JkRN/r7PQRFZOMZ/bVuzUz1iM3US2TUSbeWIkdGcmIGqveMy0VG8s8d25oOlvi9hl6p5K1hVUtO5UcyFTLJCH3rOw4kYQoqxi3rkKpWsT3bXZ2apmZK+aJ7XhmTjSscpo1GvGL81Gt3tB4NA+PT4vW16fNy8Mxl2uFbr+/u6Z6lOZmYnaMWod4WaMTMHdLpXObtGVWYW6C2gb5Gqs+65JahoioBwR2gDXXYv8btfqwZRzGDxc/z+ZhbuIqbCmpRENTKIYNDUWImNx4QYRTejxm56rl3TWXYW2CCIxdlWi0B0BtObYsnKGaKJ2q80TIxaXrn+EIBL1TSe7TSYj+Yetd309snY+5eSrkmtUHdXCbm079GrOnpWNH5RU9UJqvoLpkDeIfK0S1CM24R9Zjf60KYG3eesyen+dbZ41LJXgqLh4Lsopw7IIzxJsu1eJwcQU+VuOlK+UyhTh8+gpCbg1HmEVMbFKfNSOzF3WuISKzCdgAa7ogwmLRfGys0sdHp83HeH0QYTGLsO3NCtQeL8ehg+WoOl6EZWP0eSc35qDUU7gU5WPXuNU4dPwUak9XoDw7AWHajIvY8Z+G2snRNZi7Tq+BhMVkYOdb4nNOi/dUlmHnIqu2SNPR9Xh0s9owF1XYXdCAqeuKUSXfczoLsWpOR7a5uqgIWFqIqir5+YWO5XFkFeLTinDLonxUynnHi/F8nOoQcuJVFJzQB1slTgy2zE9HwQUxHDwYs54tRLn2dzmFqrI8rJggU0oJicCcdfr8yrJilL8jfm5Rf7uLRdhYUK8tRkTkbwEVYCez4p1NWTGpWFt2UZseFrMa/56qOneEp2JbbjpiI2QdRhEH2cWPJ+jDzTWo9nRMHTofL/wqCcO0t4UgbPpq/DROmyNypwrV2sBFFGTnQ7vUNlwEzoupmBimPmfAYExc9jI2qffU7SjEMX3QxbBFL+KFpHCthuXQ0W2+ZyW2idAMkfeJDbBi8c8XOXsSynnLomCR80LCMefxZDWvHsdO6X+31jQVZ6sTg1DM+vVebEq2wv5rhtwajYWilmn/nNjnivB8knO+ZIlLw7yR+vDJ91qp8RIRdbOAbkK0RIiDaXYxynKTnDf7yp9NF3GyLB8bV67C0tQETJocDetiUVvx5t4JGO9yw3AIRkSoUDxdIw770ikc+7M2gGHT4jHaZXkpFFOnqwRrrMCx8/qgUzhmTdVraS46uM2jvxOjaomKdRTGqcHI2AmtzmtsvKaGPDv8Vok+MDQZj9lrbq0R295UW47duVl4amU6Zk+OR/S9Cdh4Ws0nIuohARVgshu91lynXpVv5mHFdNfaTGNlNmbfG4OZC9dgS0Ehdr8j60thGB9l7H7vG8vAlgfva6opz9M8KWSAYWuuq58OofD0ti7b5mDnZ4cE36SGFMO8Ntl7aFgsMDQWttR8Ebt/HAPrtFQszXoZBQUl2rW//uLEYrTXNxIRdb/A7sTRQiU2P/EijokDsCVuNYor5fUfeU2pCDvTotQyXaOp+TM15KrpquPoD4tP96T5b5vbTfyO9t/Gk4Y/rsTSItkcacXC7WXadT15HexQwWokDtWXISLqKeYKsLMVOKwu78QmJSHSECANF7qiM8EofGuCPlT9+h6cbNGx4gr271PNb8OjMNqlDa8V3b7N7Td6nArO04XY5aXDx8kjqnOLNQEpEwY7a8LN51HXovmUiMi/zBVgN6ifwmERJPb7sRqPZmPB6kp9pFMGI3F+gt6sdvZFLFiUh8MNqo5y9SIOb5yPpSq/Jj42F6P1Qe+6fZvbLywhGVO163v12PJIMtaW1YoapzYLTbVl2LiuUO+Kb0+s00XYfVr9HZrqUfDjDOxg93ki6mHmCrChM0VNQB9s2JWOqDHR2k3JUY8UYkRCjD6jk0KmrNJ6/kkNZesx9/5xes/IqBjMfVHvOh+ZkocX5qjnNLbFD9vcbpYE/DIvWe8Y01SJ3IUJsMobr2Xvz2lp2HJET6fYh5L1jiLNVdiYMA7We6MRMTYeT9VNwCzVC5GIqKeY7BrYYMzZnI/nEq169/HmK9oDa1e8uhebpndVr4JQjF9WiMpXV2LO/RH650jBoQiLSsBzr5ajeFW0984PLvyxze1nmbASxW/L7YrSb07WhMAyMhoLl8zUu9HfsxJFW+Zj4nC9KtYkKmHjk7Nx6NUnMcb+dyEi6iEB8DBfIiKi9jNZDYyIiEjHACMiIlNigBERkSkxwIiIyJQYYEREZEoMMCIiMiUGGBERmRIDjIiITIkBRkREpsQAIyIiU2KAERGRKTHAiIjIlBhgRERkSgwwIiIyJQYYERGZEgOMiIhMiQFGRESmxAAjIiJTYoAREZEpMcCIiMiUGGBERGRKQTZBDVMPuPrPa/jo4iU0XvkUX/A/BRF1QL+gIFhCb8aQwYMw4Ev91dTejwHWg2R4nXm/HkNvDcOggaEIDmaFmIjar7n5C1y6fAXnLzTgzjvC+0yIMcB60Pt1HyL05gEY/JWBagoRUcdd/OQyrnx6FXcMu01N6d14yt+DZLOhrHkREXUFeTyRx5W+ggHWg+Q1LzYbElFXkceTvnQtnUdPIiIyJQYYERGZEgOMiIhMiQFGRESmxAAjIiJTYoAREZEpMcCIiMiUGGBtKM0YhYiMMjVGRESBIuADrC43CREjRYi4vxgqQPVGjBq7Ee+rUbs35gUhKEi9PMzXvY+NY0dhY7UaVeR75+5RI+5a+TyHPXMRNO8NbfD99aOc2xDU8nNc5ruts633OsjtEcu0ur2aNzDXsa6Wy3rbDlfy7+Vcz6j1bkvK392+nqC54lOJqLuZowZmzcCh06dQ63gVY8XpNBFkScg9q5bpY7SQunM5qtS4nTwgz6jYgFqbDfIxl3vHLUeEChUXe1ZiOR7Fw5FqXIXBjB1q3E1rn+ckDvAr8pH8vQfE8BtYeXyD9vnaa/c4LL/TcFAXB/uIzHHY63Eb23ivwRs/97Y9kgydGajIqtXXdWYDKmYZAtHrdrh6Y14Elo/bq7ZrL8ZlRjjDUP7tZlVgwxl9PbVZFZjhNQyJqEuIHS6gndv6sO2OWdts59S40cHl1lbndRXtM5YfUmNd69iJ02qoffamwIYUcdjdnWzDmA02EVYOcp41yzDFwzKSXC55txo5s8FmhdW24UytbcMYw3TF2+c5yHW0Nk9MNa63xTZqn59sE5/ggedt0j8v2ZbsaZ6dh/UaP9v37dhrS9b+PmpUqM2y6n8Tt2Fdy+WJ/KWjxxUzMvU1sNglGRhdVYT9xlrY2TzM9NLUqF3TMsxfekDN0JRhqWFea82UrutwrQVq8xLzUKfGu8MD28WZ/nZZ02npge8loypzpaPG8sbv8mGd9zDuUOO6N7BzRzLmzlSjkctwynYKy+y1MTfePs/u/T+8BLT4HLsqHDthxXirHJafbcWjDxmWjHwYj47Jx06PTYHG99qJmtVDyzFu7RqMV1M8kdtUlTIXxi3X/j7bfy/W0MZ2aE2Cqua3Zyfyxxhqq8IdDz0K646dYv77+P32KlXztHsAc1Oq8NIfWAcj6k7m7sQxfARGiAPciRo1LsMrrgiJJW5NjSqI5PW0BacNzZE5Cdp0nQyvNNRkFqv3nsKhu7KxYJearciAWoAcxzK1OSOwNi6AmjJn7oRtNzBDXY9ZPrYWpzJcY+X99cuR73Zg75w3sDITrmFgoH2eWwD4ytN7318/Q2vO22kPYCLqk0zeCzECYwxn5qWb1wOZ2Vg4XE1AOBami5DaVYRSMVbzXhUwcgSG6TOBKVnYNEUfrMvNxm5rBn6zMFyfIAxbWIhtiWpEEgG5cVcCtq2PUROEKU9ihbUKu0rqtdHY9SLUdqU6P8PPtE4Jv5urrtXYsBcz3DonyBoDsOFnXRdfWg0lZYPHGpzcHu060/FlrdTOWufxvdUbMUNOa6NG2GnyRMC2swtDnoi6mskDrBYnHFfx61F9GjiZFW9o3hOvtCI1XzU57vLc+UOG2+iZcd6Dp6YKJ1GEBcb1j4zHWu89CfxIrwkZw+mOjL3YgJfwe3vHherfi7GO1YZaI5spXZvQJL3XXoTWIcOXIDA2E7b23jcw987lGLe7k8EyzuolTN2bK70YM14s3bpxd7c3somoPcwdYGdrUIMEPKhqUdKsHNW05/LKQqycOTwVexzNfjJ8OtD016JHpP7aY6i5BTLZc6/1a1UdIGpEy43X0zQygCJwbK2na2ciIMZU4Zgx9GWonhgHqxaqXt4ra3riR/4se3f1CCw/ocY99B684+5xQEWVWKOTdk1wrIydtrbDwCqC6sQxlx6P2vU1LQjvgFV+zF9dPkW7vuZzEBJRx2hdOQJY670Q62xbZ1ltCVvr1Hh7ewy6vt9zj0Z9Gcc6P9hmS7jzYdvWD/TRzup0b6FWeiEae8RpPeQcy8jeca319pNa6fFn5+Hz5PpdevJJ3norSnK+YTtctrmt97poY3vVfMf2ab0MDb0D29qO1uZpf0fD57qt1/VvTuRf7IUY6LSehvFYOzLHpeYTO11e70pz7Vkoll2aq1+fKs3I1K6FeaL3aFyPJ9SyUl1uumvz4PA4JFqrsPZJ116GxvX6oxeiN7LHoHbdS3XicLmGpF2r6srOG/r1NI+dN04sR4TaBsfLXkuauVO/V0pNnyG22KW25e297XIHlh3X79nS1nHnS3j0jKG3ZVvbYfDA9lpsqLD/XWcAu23OTiSyF6d2v5q+nojtj6K2A9f8iKh9gmSKqeGAJHsOTspyv8hkxYqSQkNnDYMDmS7XvYAEbFNNiFoPQkOvwtGZxa5Nf1ovxvU4qUbl/GXvxeu9Dh0dN+qRm+h63cu4Hu0zZE9HHzpyVJw8g3Gj71Rj3c3ZNNdlvfdkV/MV43mwJgog/j2u9KyAD7DezK8FTT4t4iF0qDdga+TTOXZ+rwsDkYg6jQFGftGXChoR+UdfOq6YvBs9ERH1VQwwIiIyJQYYERGZEgOMiIhMiQFGRESmxAAjIiJTYoD1oH5BQWhu/kKNERF1jjyeyONKX8EA60GW0Jtx6fIVNUZE1DnyeCKPK30FA6wHDRk8COcvNODiJ5dZEyOiDpPHD3kckccTeVzpK/gkjh529Z/X8NHFS2i88im+4H8KIuoA2Wwoa14yvAZ8qb+a2vsxwIiIyJTYhEhERKbEACMiIlNigBERkSkxwIiIyJQYYEREZEoMMCIiMiUGGBERmRIDjIiITIkBRkREpsQAIyIiU2KAERGRKfFZiH7EB/cSUXfgw3ypW8nwOvN+PYbeGoZBA0MRHMzKLxF1Dfl1KvK7wOTXqdx5R3ifCTEGmJ+8X/chQm8egMFfGaimEBF1LfmdYFc+vYo7ht2mpvRurAb4iWw2lDUvIqLuIo8x8ljTVzDA/ERe82KzIRF1J3mM6UvX13lEJSIiU2KAERGRKTHAiIjIlBhgRERkSgwwIiIyJQYYERGZEgOMiIhMiQFGRESmFPABVpebhIjEPNSpcRcHMluf12u8gblBQQiyv+a9oaa39MY8MX/sRryvxl1Ub8SoFvPkuueKfz17f/0ojFrvcW0a+Xlz98ih97FxrGEbW3yO63zXdbb1Xievv5/dnrnOdbX43bxth5uuWg8RdRvWwBzKsHTkKCw9oEYDxPvrd2L8GRvkIytttlpsqJjh+YApAmr5DjXswRs/Xw7Mexh3qHEZTkFBM5Cvxl3poRmRWaXGPdA+LxlzZ4rhPStxbK19G23YO245IgxB+8a8CCwft1fN34txmREq+IQ23uvQxu+nkSE9qwIb1N+rNqsCMwyB53U7jLpqPUTUvcROGNDObX3YdsesbbZzatzFnzJan9duh2zpd1pt6X9So13s2InTaqiTdifbMGaDrVaN2u1NgS05xfM8MdeWjGTxr642y6ovd2aDzWqYrpPLinXt1tdpzWq5Nkmuo7V5Npf1yvVZbSIMHLTPT3H9VAeP29TW76druV7jZ/u+HV21HqKe0GXHGhPodTWw0oxRiBA1KfvLvUblcb5sihyZht1icHea2/vO5mGmYXmXJks1z5+1tvf/WgGMszpqUpo9czGjYgPWfE+Nu9uzE/kpc/GAGr0j4xRsx5e5rsPhAewUNYudsmbVqvfx++3Aow95XgOqjqFqzHhY5bD87DGP4uFIbY7mjocehXXHTs9Nl8b32rX1+2nkNlUh+Xv231J6AHNTqvDSH0TdqY3t0JontZpf59ZDRP7TuwJMBMof7ypG7elT+isnQQRSEnLP6rPl9bQFpzNwyDBfMyVLjOdglhiclaPP2zRFn1W6uQrL7MufLsYKrMekjDJ9pt+9gZWZ7gfXNzBXNnf9obVAeh8bV+S7vaeT9qzEcrgexJ30z7Mamit95+m9bf1+RNRXmSPAqkRoGGtB9ldakVpAGZ6KTQvD1YgwJUGEUhVO1OijNe9VASNHYJg+qgWXPahaE7s+C7FqGAjH1JmibnC6Rq+Fic/bYwi77iWvS81ARVatS+3ojXly2l4s8xgmQvXv8RJE7cVrjap93vidCMS1ngJFdm7Qrw+dymhv3Hh+b5u/Xxd5YLsNtu1dGPJE1O3MEWBWQ63J+LLXoIxcmvz0ZkG72CUZGL0rTUx31sp8YWx2nJTlpWNDd9F6xC3XOnMYD+6yI4ZsWtvrJSze/8NLLp03Ou8N7LR33jCSHR+CIvQOGb4EgbGZsJX3+vL7+WLc3V7e795c6UVXrYeIukavakLUgiauCIkl9pDTmwUdVI2pNmcE1sbJQGojyFQYLkCOIzQPZfr5MCXDa8V41NpOudVC9Gs1OLEcEfbu3rPy1fgobKyWy8gmRy/Xqjrg/fXLXa6naWQA3XkMGzxdO7OKA/uJY6Ie7CRDtcp+Ha/V9/ry+xndAes4oOKvxh6aMmytGC//k7W1HQ5dtR4i6naqM0fA8r0XoqdehN56FtbZts6y2hK21qnxlst6+myv2+NFx3oG1do2jNF7BPrEvYeiHPfWO66VHn92LXshyu1x7YEneeutKMn5zu2Qvficv1Nb73XRSg9MB+33cW6f1jvQsHxb2+GY14n1EPU09kI0pQiMEWfINbX1alzWyFybEEszMlGqhltq+f5hESOAqiqoS2hajewJYxOin3oh5s9SNRDHy1MNpCXtWlVXdt7Qrqd57rxRlRnhto32m5zl9SX9/jV9+gxgt2tty9t72yVyGU7tHofld+rriNj+KGoNvS3b2g6HrloPEXUvFWQBq133gX2wzZYgalF3qFf6n1xrVQeXO+fJl7P2pcj1qXke3yM+66Bxe9Tnea7hufL7WVEbtauOaFdtiYh6RF+qgQXJf1SWUTeqOHkG40bfqca6n9YBAh3pDdga2QtyJ+badrpe/yKigOLvY01PYoD5SV8qVETUc/rSsaZ33chMRER9BgOMiIhMiQFGRESmxAAjIiJTYoAREZEpMcCIiMiUGGB+0i8oCM3NX6gxIqKuJ48x8ljTVzDA/MQSejMuXb6ixoiIup48xshjTV/BAPOTIYMH4fyFBlz85DJrYkTUpeQxRR5b5DFGHmv6Cj6Jw4+u/vMaPrp4CY1XPsUX/LMTUReRzYay5iXDa8CX+qupvR8DjIiITIlNiEREZEoMMCIiMiUGGBERmRIDjIiITIkBRkREpsQAIyIiU2KAERGRKTHAiIjIlBhgRERkSgwwIiIyJQYYERGZEp+FaEINDQ24fPkyrl27Bv7nI+q7goKC0L9/fwwcOBBhYWFqat/BADORzz77DOfOncPNN9+MW265BcHBwWoOEfVVzc3N+Nvf/obGxkbcfvvtuOmmm9Sc3o8BZiLV1dUYMmQIQkND1RQiIt3Vq1fxP//zP4iMjFRTej8GmEnIZkP5n0rWvIiIPPn444+1ZsW+0pzIThwmIa95feUrX1FjREQtffWrX9WOFX0FA8wkZIeNG264QY0REbUkr4vLY0VfwQAzCbb0EpEv+tKxggFGRESmxAAjIiJTYoAREZEpMcCIiMiUGGBERGRKDDBPDmQiYmQScs/qo6UZoxCRUaaPCNp4Yh7q1Hhf4v63ICLqKQEfYHW5SSJMxEHT5eUMF/JAC2D3v5nzNTO3Xi1IRGRe5qiBWTNw6PQp1DpehVg4XM3rDlOyvH5G7HqxDbtSMUyNBxxt+9XfqiQDo2HFihL73+4U9iwMVwsSEZkXmxCJiMiUTB9g2jUZQ/PY0gNqhnQ2DzNlc+MB+dO+TCZK5TyXZjY1zU6b5zbNoMV1IO1z7OsSL/frY63NV9Ndttlf3JsZPV7TK8NS4zKern119HcnIuokcweYODj+8a5iZ3NZTgJ2p7lfH6vC2mzgN9oyxVhhLcICeSDNtqpmSTWtEx0TSjdXYZl9G+T6sB6THOsTIRC3HiNyDPNHqlk9RLuumFbj0qy4baTYZpfQluGVhppM59/30F3ZWLBLzVbM9rsTBZqjR4/it7/9rdeXXIZaMkeAVcmDq4ez+OGp2GS8njMlAbNEYJ2oUeMaK1b82n69KhwL0xM8T9tV1GqNqy2x67MQq4bl+qbOtAKna1QtqwY14vPGjNBmCuLz1qvPFtu/RxzYN03RZvhJGTZmVWFWjus1vtj1OeJvV4Q/qtpgXW42dlsz8BvD33fYwkJsS1QjSod/dyLS3HPPPdqrNW3N78vM2YnD2IHCpYkqDbvVZO9GILKLO4EYmzIniYBwECG1LFHUAuPEvE7U8rqMFioJeLBFaMbgQRFONbV6D8Wa96owemacT2Fjmt+dKEC1FlIML+9M3YSoHTjjipDoaAqTtQg/UwG6ADmOgD2UKWohBlqvRdl8djpNP9D3loN5X/7dibqYe1gxvNpm4gArwx93oUVTmL/VlRThpKwhro9RU1oTjoW7xME8p3PNlZ02fISofzqbCp30v+eICGeT4ck9JW4dLupRfVoNCqb73YkCnD20GF6+MXGARWCMONm3N3lJpRm+NiF2nWERI4CqKjguu4layRPGZjQxvrS1G4dVDca/vRBjsEzUktw7u2h/OxFGy1TTYuySDIyuWo8nDNtel5uOtYZfrVO/OxF5xPDynYkDTJzV/zoDyIp3XH/54/QeaEKckoVtiapno3w9CS0gjGoM2xiRBmw7bez44H+yM8ahTOjXptR2ac2AxmuLsoNJievf9wlku3biMOHvTkS9R5CNX/VrCsePH8fYsWPVGBGRZ33pWGHqThxERNR3McCIiMiUGGBERGRKDDAiIjIlBhgREZkSA8wkgoKC1BARUev60rGCAWYS/fv3R3NzsxojImrp+vXr2rGir2CAmcTAgQPx8ccfqzEiopY++eQT7VjRVzDATCIsLAyffvoprl69qqYQETlduXIFjY2N2rGir+CTOEzks88+w7lz53DzzTfjlltuQXBwsJpDRH2VvLTwt7/9TQuv22+/HTfddJOa0/sxwEyooaEBly9fxrVr18D/fER9l+ywIa95yWbDvlTzsmOAERGRKfEaGBERmRIDjIiITIkBRkREpsQAIyIiU2KAERGRKTHAiIjIlBhgRERkSgwwIiIyJQYYERGZEgOMiIhMiQFGRESmxAAjIiJTYoAREZEpMcCIiMiUGGBERGRKDDAiIjIlBhgREZkSA4yIiEyJAUZERKbEACMiIlNigBERkSkxwIiIyJQYYEREZEoMMCIiMiUGGBERmRIDjIiITIkBRkREphRkE9Rwj2poaMDly5dx7do1BMgmUS8RFBSE/v37Y+DAgQgLC1NT/Yvlm7pDIJTtntTjAfbZZ5/h3Llz6NevHwYNGoSbb74ZN910k5pL1HmyjH3++eeor69HcHAwbr/9dr+VMZZv6k49WbYDQY8HWHV1tXYGER4erqYQdZ+PPvoIV65cQWRkpJrSvVi+yV/8XbYDQY9eA5PNKs3Nzdy5yW+GDBmilTlZ9robyzf5kz/LdqDo0QCT1wS4c5O/yTIny153Y/kmf/NX2Q4UPRpg8oK2vCZA5E+yzMmy191Yvsnf/FW2A0WPBhh7Y1FP8UfZY/mmntCXyh3vAyMiIlNigBERkSkxwIiIyJQYYEREZEoMMCIiMiUGGBERmRIDjIiITIkBRkREpsQAIyIiU2KAERGRKTHAiIjIlBhgRERkSgwwIiIyJQYYERGZEgOMiIhMiQFGRLoDmZiZW69GiAJf7wiws3mYee8aHG5W422pysakxDzUqVGiQFaaMQqz8y+qsbY0YX/6KCw9oEaJerHeUwNrzMf2fVfUiDdiB895MSDC6/C6VOw4q0aIvDiWtxMnfTlBq8rB2n1qmKiX6z0BZrWiPnsbTqrRVl0oxNaPozBejfakpk8aRZwStSUcowcUYnNx26Xl8Gt7EXZPhBoj6t160TWwGMSOEuF0wPtOfjgnB2HzksUhgcgs6jFiShJO5eR7bzm4kI+Nb83AY98JUROIerdeFGAWzElLQsXWQjSoKS1cLcH2d5KwJN6iJtjVIzcxCbkem/PKsHRkJkrVmK4JdfvWYHZMDKInxyNa/JydUYhqt+xsrMzH0of1ZSZFRyNqzotaDbEuPw2TxLSlb1Zhc4qYJ+cvtB+cxOfJ63ONlchdnCDmxSDq2TJtjva5ZXlYOke9R1tnFkovqdl24r07MpLEdsnlxDLRydhSpeaROY1Nw4qv5SH3iBr34ORr+QhLX4BRatzFpSoUrEtFvCw3skxFJ+Dx/NrWWwBEGM72dJ1YXj9eXNTifSc3xuPxffapvpRTuc+J/ar5IvY/m6wtFzXP8HmX9PKvl2GxD01LxcYyXy4RUJ9i60HvvvuuGuqkD7bZEmZts52zNdp2PfFt28/eUdPdnNgUZ0va2SCGDtnSteXt6mxbZz1s2/qBGnUhlr0zw3ZQjdls12wHn5lhS95UYbt8XU0S0869/qTtvocM6/zwdVvytzNsb36ixoVrNXW2j9WwdHC5p8+U27ba9rMfZdh2fagm2YnfM/2nxbYzn6px4XJxhu0+l9+lwfZayrdt6cWNalz4tMZ2zn1dfVyXlT0vuuozDi632tL/JAaOb7LFpbzuUoYcPi22pU1cbXtblMlzWx/Wlzc4uHaRbevhBlFSlWs1ts0PiXLyJ8cUm+1PGbaErXVqxPM+Idd9xxixPzjKviSXfdK2y14ufSqn8j0Ztp+J7dpQYSir0gc7bclTM2yvfWDYtk8qbBvE9v7kkGEaeeSPsh0oelENTArFLFGjeXN7Scszy+ZyFBTFYNn3B6sJHXR0PdZ+molt6VGwBKtpCMGwpGxs+vqryD2qJp0qR8P30zB1kBoXQiLCEaaGvTpdiMtxqzHrVjVuNzwVm9bEIXKAGhcscZlYMqAQu2vVBJzC2x/PxZK4UDUuDIjAMPd1kfmMmYuUz1/Edg+16YY/5qFhSRomOsqkq9inc7BwwmBRUpWQCCzOjEdpkb127y4cE2Ou4GC5sfdjPfaXjcPipEocrFSTpLMl2BUeh6n2culTOZWKcPgr6VgWZSiruIiCVYWY/GIW5gw3NIUOisKy36ShOreo9RYW6nN6WYAJE9Kw5OP12Oy2kzcU5uBwQlKrO7ivjr1Rhok/iHEeCAzG32vFsQp1H81tQ9FUXIJqX7v2GzXHYXq8r9cxBmNYeC3OfKBGRUQOay7GfpcDBfUOg5GSHoOCHLcTtOZKbM4Jw2MPtvPkTJTRYTX1rV5XGz11BuoPHXF+lgiqgxFxWDItBsdKnTtYQ3kZLJMmeNwnnNzLqRSBxDirGlYaDmEXkpE4XI0b3ToOE+vK2+6oRX1G7wswsaPMmWdFwWvlalyqwvbtFixJddtZ2q1eC6hdP1Jt+26v+I1ip25S7fTWdLz+WA0enZaKtYVVaGxPkFmtGNVa0DZdxMl9eVi7MhNzE/TPXfqmmqexYtmOVJxZFI+56wpx0v36GJnbhCTMOZWHggtqXGgqzsPhRFHbN9R4PGmqLceO7FV4arF+zWlSSo73MBgzCbEVZY77KxveKkNYTDRCvhmDEW8dUcHXhMOHgMTJbuHZZjmVRmG0e4fJqkocrsjCbLVPub7SsVss0sgyTUovDDAgZHoa5ryVjR1qJ2/al4OCe5Mxy73vRodYsWRHMQ4d9Pzas9gZkmEJWThUtBrfupSH2d9KwDMlvt6M6lnjgVWIfyQLhzFBnImvwrZd+mdumqYWsLs1AZtK9uD5+xuxNSUa8c+WoKEjNUEKQKL8/ThM1LjsJ2hV2PyrBqTM9XJy1lyL3HkJWPBaDSKnp2PZujy9vO5Iw2i1iGdRmBZfiYN/lsMXcfBAGB6cJAaDozHlNhFssi3vagn2fRKHyYa2cZ/LaWumrXfsTy1fWZhlaJanvq1XBpjcyR9LD8OOnbKZ4yIKtjdgSVq0Psuj/rAMVIPurhrv1QpH5KgqnDitRn0REo7YhVkoLvs1btmcDFlJ65hKbFzZhBW/y8LC6VYMCwtFiKqlNXkMpxAMi0nFpqIy/CYsB7Pd21TJtELixQnaO/nY3ShGjhRi9/3pSPFyjbOhcDV2xeRg59PJmDhyMMIsqrGv+bOW14rdTIyJwpsllVrT3puDEhCrlbkQTBRBdrBcvPtIGeq/E2O4ttvecupmRARGV1WhWo0SedNLAwywTBc7a2EO9h/diR23pGKO104MgzH6G1dw9HjL3bnxQAn2q2EpNiEZh3d46arfmpAITI2/CXUfqnHNFVz2tWfw+Qoc+8oIhLs3LTYW4Y9en7wQgsi4eITU89J3rxFsxbzkBmzMq8T+V49g1ve9nZwBJ98tx4jhLe98PPmHwraDYkIcxpcdQunBEoRMcX5OWHQM6vcVYX9ZDWLvN6y7w+VUGToTc0LFPmvvDEXkRa8NMNnMsWRJA36yqAxT0+LauMAMjJ79COqzVmG/oX298Wg2lr5jwVQ1rpmQjl8OycbclSWoM+RdU0MVCp7NdDwaqm5fHvafNSxwqRw79oXhW4abdEbcFYrD76pmxbbOTofGITF4JzaXGBLvkjjbzSxHyP1qXDpfgtx99c4z6+YrOJy/B2Hf9Hh3EJlU2PfTEVu0CD9DOpa0cWl34pQEHH7hRcN9ik2oK8zExgtRiFRTWjUgBtNHlmHjf4bgwUmGvWj4BMR+mI/N78VgmvHzfS2nrRqMlF+k4tiP0pB71LCO5iZUl2VjwcbWek1SX9R7A0wIezAVsVHJmOdL343hqdj5ayv++Eg0orSbJ+OxYM8o/HKVe/iFIvb5vXj+a0V4NEYsKy8ux8RgZuYe4PurkKJ6T90yzIJ9GTGIujdGvwC9qBCRa37tUhMcNicT419/GNHyRk3HjcytCcfCl9fglq3fRVS0vn3xKyswed1qPGi8JjAoHJYDmYi+N1q/gfq7i/DayDV4YU4nbx+gwCJO0OYkjMC0eW2fnIVMWY2ds0/hCVFetTIxORW5A57ECyL52nqv3lxowcnb4hDr0knEimn3X0HjvfFu19F8LKfeRKTi9R1JqPvlDLEOuf/IhwGkYvPpcXhuSYxaiAgIkjeDqWG/O378OMaOHavGiPzHH2WP5Zt6Ql8qd726BkZERL0XA4yIiEyJAUZERKbEACMiIlNigBERkSkxwIiIyJQYYEREZEoMMCIiMiUGGBERmRIDjIiITIkBRkREpsQAIyIiU2KAERGRKTHAiIjIlBhgRERkSgwwIiIyJQYYERGZEgOMiIhMiQFGRESmxAAjIiJTYoAREZEpMcCIiMiUGGBERGRKDDAiIjIlBhgREZkSA4yIiEyJAUZERKbEACMiIlNigBk0Hs3G7LGjEJFRpqa0Q/MVnCzMxuNzYhBlFesYKV/jEJWQiqdyy1DXpJbzSRMaThRibWoCou+1r2sUrNEJmLsyD6Vn27Wylg5kOtbZ0dfSA2pdDvXITbTPT0LuWTXZqysozYhxrvdb6dh9Qc0iv2o6W44d2emYPTkaVvt/D/GKimlfmWs6W4bclamIjx7n/O96bwxmL85GQdUVtVQXuVqL0txM1222RiN6Tjo2FlahsVkt541xX/B1v6/Nw0zHPj4KMzdWolHNIv9igElN9dj/rAiLR17EsQ5kQ9PpfCwQO9HMp1/E/sqLhh2nCY2ny1GQlYZJ9yYj97QPK79QgmcSJiD64VXIfasWDYY9o+lSLQ4XrMeCuAmYnd2zO03/G9RAJ1TnzseCXRf1kWArVrySjVm36qPkJ0212JEWA2tcKp7ZUoJj56+IUuvUeEGVuc3lakorxAlc6boERMWlYW1BOaovGdbSeBHHSl7EU4kiXFaW+BYsXl3Bsdw0RN+TgAVZRa7bLLajobIEW55OQtTkzK4/IWosw9IfrsdJ9TuEJeZg57IoWPRR8rMgm6CG/e748eMYO3asGusBIrhKc9bgJzllaDDuVKJQ1q6PUSNtkGdjM5wFGhYrpk4bhYFy+FIN3iwTQWPfu+RBem8hFkaocXfu6woOxegp8Rg9SI40oa68BIcNZ8KRiwtRnG5VY+1QVYindlaqER+dF0H8Vr0+PCYDh36fimH6mCJrYPFYWyWHxe9ZIn7P4doMj6oL0sSZvfi7y5HgwZizZS+enxKqzfMHf5S9Hi/fbREH46cS0lBgOMhbIqIRe284+mtjjaguKcMxGUZe9wlZk57hPBlBCIbdH4eJQ0PEsCi37xzC4Vpn7Use9EvEujp20Hf/LPFpw6MxNVpt86VTePOAofY1OA6bfu/lxEjWwNKK9OG29vvGcjwzJxU7avXRkHsysOeVVEQG6+OBIuDLXVeSAdZT3n33XTXkT9dsl987ZNu6/GHbN+622u6408Nr+SG1bBuun7Jt+K7zfXE/P2S7fF3Ns7tcYdvwkGHds7bZzqlZLq5X2H420bncfU++bjt3Tc0zuHxotS3Osd3ftv3sHTWjWzXadj1h/8w424bjarKLOtvWWfZlHrZt/UBN9uDynzJs96nfU/4O6X9qVHP8xx9lr2fKt48+PWT7iaG83f2DTba3P/ZQ4ITLp3ba0je0vk9c3vOkYz13TFxk2/5ey/V8LJZx/je/T/w39/xZbfn4tfnOz7r7YduGdzyUnWs1tu2Pftu5XMrrto/VrBZEWXQs522/v15j22rcjx/aZjvjvq8HiIAud12s7zUhHliFKHHWuXaX8ywtZOR8bFuToI+0Q8Nrq7FFXeuxJGTj9VXirNL9bMwShWUvizNA++lm1Xqs3WdoXlHq8lZjh/2kcsJKvP6rJAyTJ7BuLDFi3pYEhGljF7FjQ75ei+lOR7PxixI1PD0DS8ao4Y4Qtcy5i4sc2zw682Vs8mPNi6QmlK5diQJV3sISs1H+SjomhnkocILFmoxNy1qpmTSXY+Oz9sJhxbJXcpAysuV6wsT+sXOZvbXgCnavy8FJNeazq2X4RZa9KXMwUvLyseweD2UnJAIpL76MFfZyeiQLm4+o4Q4Rtb6n5mPtCTU6OAHbXg68mldf1LevgVmsSMkuRmVRJmIHq2k+q8L2PHsznAipzLjWm0Qscfjpj6PUCLC/qMTlOoNcV8FOre1NCMfip5MxzMvOYZmyCj+NUyNHX8Z2+1u7xUUUZNtD0ooVP46D58OcD9yuH4xelI+drbanUrc5kYNn7Ok1JgM7nxdlt4MH46bifOxQF2MtyZlY7OU/Z+TCTKTYd5Kze/GmPRB81HSgELvtF36nr8KKCV5KYnAEFv58kWrmvoIdr7rvc75zuVarNUlmIZYXvQJCHwwwi6gUJWBFbhGqygvx3PTwjh2QTxRjt72n3YQkTGuj80FYXBImqmEcKMNhexu9dP4ISs+r4ZFJSGzzslYopk63J1g9Su3XprrDkRysVWevlsR0pHi5ruVVcy1y56dht+Osnxe/e0YT9m99EXXasDhZ+nlnahJiXeJkTBeKxJnRargVwdFITLTXmES5PdK+cnv4iP2zgFkJPpxIjYnHrKFquLjEdZ/zUeOBTMzNUmeI7GgUcPpegE1ZicqCLCyMiUBIJ5oA6v5cpg4CoiYxOVo16XkRFo3J9mBqPoSDxj4UNbXO5hSrFZFq0JuQsVEYrYZPVlR2+OzSu3rkrstXvR2tWLIkpmNh33wRu3/sbIKRF793Pt/Ri/jUKQ1F2L5PDd8zH/M60xyMcrxtv50iOB6T71HDXoy/f5IaEuW2rLwdzd/1qD6lBkVZHDNSDXplxT33qsHmShxtZ0tFY2W2s7lb62j0cusdsKhHsBt9B506bt8bQjH+6+Fq2JtwRDo6Bl1BdY39gpdwvQPxEx6OEWoQZ887wrRLHXkZm9Wv2fHal7x+8DCW7nM2WQViz62+oqlc1P7V8MSH4ts+8fKmtgrH7LWabzpPqLy6y+pc7lRV+8ptB2pQ4ZH2xKlH3Ydq0BfyWu0jL6rm7sGY5edesuQbBliHiJ2hRg2KYBrmY5PCiK852wYbLhnu4rplqLNLelUVqtWgVxfq4diE0zVii7raRezItte+wpGyoGO1L9frB7z43dOczXAR+Na97b7w6+qDGmdZvT3MtzAcOsJ54tXY6Hr7ildhuMVxnliFE6fVYBvq61Sfd6HmrI97ifu1WnY0ClgMsA6pxQlHc8QIRNrb2dswbLhj10V1tWFnihiBUWoQpwuxy4emjoZDJe3vxdUeR3Kw8agajnsSj3XgdjOX6we8+B0A6lF9XA2KEjdaq5w0oeFIPp5ye+qLL0/gqKt1nEJh9Nd8bVsLx52O5r8a1Pl85hWCERHOlo7dLTpCedBcjoNvqmFfuV2rZUejwMYA86fWah4D4vDgdDUsDjJbfpqHam9npo0l+MWv2nkjcrs0Yf+r9tpXKFJSEtp9varptKG7PC9+BwjDidfIEQgXB+uChXGInrcGBW5PfXE8gaPLn/pyU4evPY9+YIazpWLfavzkgPdHU1XnZjl6SPqmwaW7PDsaBT4GWEecr3E231mtziaRDgvB1MfsXX6FE+sxd1Eejl1S4waNR/OwYFq63p24u5rizuZjs/1C//BkzJmghn1WhY1PGptgsnnxOxA0NDg7TQRf1g7WT5XpVQ3LmDjMmZOkv+LEQdvRXtyEY1uSRYi1bBao+cA5zVg76jbWBVhm73yLi9i9+BE8ta++ZU1MPhpuZQLiN4rta88+UrTK2dw9IAm/XMOORoGOAdYR19XPrjQmHS9lGq6Rla3H7GjZlJOMx1euwlOLkzEpehyiHlmPUrGPhc3JwGKfemK13+E8502m41Pn+nZx3kUEZiU4f5eTWenIdV6KoJ5ytdFZk6p6GWvlwfrWBDxfUoHK32fj+TWr9deWfFRWlmNbivOso3rLIjxjb1K2656ur16EYta6HMyyX7qTNcj0eFjHRiM+NRNPrczE3IQYREXF4/ECUeBkzX9ZOx5QcH+Cc91XC/GTlWVdWPOk7sAA64gBFueZWaPhoNBJkQvzUfxsDMIMZ42NFyqxv6AQBSWVqFMPSA2LWY2dz41Do/3esaFDO9ebzKi5DK+9pppmguPw2IMdudAfgjFLXsa2RPXe5iqsTUxmiAUa2ammKAtzhnvonhMcithVr+KFBHvnhYvYsd31upPF4uzY0HTVT2lmicGmvTlYaHzaR9MVVL9VhIKCIhw+rR6mHRyBlLyXkWhxdtQPv7WNvWRQAja9koHRav9r2JWGOIZYQGOAdUSYocfV+fPtuJfFyWLx1DgRgsjkHJS/XYjnF8dh/NBQZ8+/kFAM027ALkZZbhIigxtx2b5nDTIEaic1FRdit2r6s3w/GVMH6MPtJw6Azxse59NUibU/zEQpjwYBI3bZqjY61YRianqaswa+rwSlhmuzYbc5mw3rL3RoL4ClI+VrUAxWFB3BodwMzLk/AmGG38FyawQmpq7GnreL8NyEUFwTJ5h2A53toq2LSMVOx6PaRIjJh07zzCtgMcA6qL+hltTkrcOFgbHX1rDbvNRsBlkxJz0brx8sR9XpU6iVr+PlOKTdgK2eHFJbBft9nZZx49yeDN9RF7HrVcOTFaa18WSFtsjH+bxsaPK5WIQF89vooELdR5x4OSMnGtNifOgaPnwSprXWa9BlH/hMDbXF2IM3DLd0uOkgBMNiUvF8XhHK31H7iHhVlhVh59NJ6hscgFOn7B8WjfE+9qS1TMnCTkNz/sms+VjaRocR6hkMsA6JQKRjpz6Fap++vFGczX3o3PtHj+zcRe+mU+Jz1fDEcR3o4+7JhWIU2B96apmJxHZ33vBANvkYmmX0DiqFDLGeMMCCgY7Q8TU8hmKY4wb2KpxwnoO53hbynmGGN8aOJGO6ogOUN2J7K9Tg0CiMbkdYRi40NIGrDiPPHGGIBRoGWIcYn6ohzihP+dL+fxHVZ+w7gO9ng541obTEXlOKxuRoH5pGfNBwoAjH1LAlMQHj1XCnuTfLlK3C3Kd4bcH/xImXo9w1ofGqGvRZOIbdogYl41M1Kk75dl/iuSrHcl3XctCKqmLsVteJLVMmtbMzklsTeHMtdqTO53XcAMMA66CJExz9ebH/UBvfVitdPYKD9tqNNQYTO9x0IlwoxFZ7N/cJCZjcmXU5XMTBN+33loUiMc759Pyu4N4sIy+Q89qCv4Vj4v32mv8RHH1XDXpVizOOZxCK2tgQNSgNnYBY+03858tw2IeWiJOlzhOX2Pu7toy5O/xavnpUlSjPD3Tgs9ybwGVnJF7HDSgMsA4KmRKHqWoYRYXY38bZbMMf87FfDY+eGdeJM88r2J+VrWpKoUh5IsnZoaQzGg5hlz1ggydh8jfVcBdybZZR1xZK2CzjT86bgX38ihFDLabliZcV0xLsgViFHX9sea+Yi+ZyFLyqmtGDE/Cg87m+Xa/2RazNV2XrnnQs8eFBwx65N4Fr13FfRLWfOl2SdwywjhoQh+/bvxqiuQQ/2+jlyRiNZfjFZjU/OA5Lkjt+/Us+W/DxIrVjTsjEkq64TiUYH/KKKeJAZbhA33XcmmW0awszeIHcn6xzsdB+MG/zaRYXUbDO/tUrwMS5M1uceI2e/Yijaa4uJwsFF9SIB9V5zidjDEtLRWy3lDFBe5ZhtmqqHIyU5cmdO8lzawLHiWzEP8LOSIGAAdZhIYhdluk40DfsSMXs3NqWZ7SXKrHR+Gy1zIxWuqbXY/fGbJTWtnJqd7VWf7qA49mCCdi22Uvtq2yV47l2kzw8RcGd8buWRo+Lcnbf72ruzTJaiPHagv8YD+jen2ZRkP4wnnI0e6fjuSRn7dlheCqeS1HTRQ3rqTmrsL/FE2SaUFeYbnguZhKe8/hwzXrkPqyexyg+z2Orxlsv4pnCKjR43E3kcx3lk2qM+9vLeK6jtS8D9yZwrTMSr+P2uCCboIb97vjx4xg71tEbomcdyEREWpE+nJiD2vWtfIW6G/nA2jjxPkfPKosVU6eNwkA5fOkU3jxQpd9YKchnq5WI9Xq+9UbsvInxWCv28ZBBUYiNG6GvQ7h8uhillVecB5mQKKzYle/18UwnN8Zj5ouyuSYci3cVw/Ft7h7VYktCAjZqT/gORcqr5R3Y6Z3bL5uWVpQUYqG3r1+RZ8mGA40WyG/672G//ih7AVW+3VTnJjlPhoSQ4dGYGh2O/nLErdxicAyefyUHc1orb/IBuN9LcH7lvuzifn8cJg6Vp0EivMpLcNj+UGD5dIy9omx4WtfVIjwelak3tU/PRlW2hy+ttO+nwaGInDAJ47XPEK7W41hZOaoNiRI2R+xvbT0Oqp37vfvfbXRmEfYE2HPSArncdTXWwDpJnpkV/SrB+fSMxir9yRna0zOcB4HIOdko8vFLHJtErc2xDvHabwgvy4RFeL3Me3jJM+uTf1HXGobOwDSv4SVcPWX4eopRGH27GuxOnq4tTOMFcn9xf+pL09ly7PZQbkNGzse2vV7CS9Jq1flYfI89bkRoaU/GkOsrcoaXCMIVr3r5UsiqSkcz9tS4Nr6+p9n+9A21zUWG8AoJx6x1xSjrhmcZtryOm4CZbD7oMQywLhCWkKU/PSM1GpG3Om8ODRkUjvGJGaJmUYHiNXEuj4hqKRwp/56DFaluT+AQtKcLzNHXU7k9HePVTZqtaq7A26rpZ1hCfNvdh2trHDdFwzICkZ26YNAO7tcWeKOzHxme+uJWbmEZjMj75+P535ehsigTsW2VN8kShWWv6k/HmBUV7nwYsKgphY2MxsJ1hSg/mIOFUa3fPF39zhHVJBeH6VNaia/7M7Fn3SLMcnsCh/6kmjgslp/zTjE2Jakb/ruc+3Vc3ujck9iE2BsdXYOoR+TXoYRj8e+LsaxTXxvfO/X1JsTAcxEF82L0a25xWagSJzbdE0C9H5sQydTqKir0M1lLDCYzvMgMmk/h7T/rgxMnTWB4kU8YYL1OEyoq9IvMXfo0DaLuVFWBCq3pOBqJkz30diTygAHW61ThqPZgkA4+fYCoBzScqtTvN+uyJ8tQX8AA621qy3FYth9aZmIa84tM4tgR/XFs46dN6txNx9SnsBMH9UnsxEG9FTtxEBERBTgGGBERmRIDjIiITIkBRkREpsQAIyIiU2KAERGRKTHAiIjIlBhgRERkSgwwIiIyJQYYERGZEgOMiIhMiQFGRESmxAAjIiJTYoAREZEpMcCIiMiUGGBERGRKDDAiIjIlBhgREZkSA4yIiEyJAUZERKbEACMiIlNigBERkSkxwIiIyJQYYEREZEoMMCIiMiUGGBERmRIDjIiITIkBRkREpsQAIyIiU2KAERGRKTHAiIjIlBhgRERkSgwwIiIypR4NsKCgIHz22WdqjMg/ZJmTZa+7sXyTv/mrbAeKHg2w/v374/PPP1djRP4hy5wse92N5Zv8zV9lO1D0aIANHDgQH330Ec9Sya9kmZNlr7uxfJO/+atsB4oeDbCwsDB88cUXuHTpEndy8ov6+nqtzMmy191Yvsmf/Fm2A0WQTVDDPULu2OfOnUO/fv0wZMgQ3HjjjbjpppvUXKKuIUNEvuQOfvvtt/utjLF8U3frqbIdCHo8wOwaGhpw+fJlXLt2DQGySdRLyIva8rqAbFrpqbNTlm/qDoFQtntSwAQYERFRe/A+MCIiMiUGGBERmRIDjIiITIkBRkREpsQAIyIiU2KAERGRKTHAiIjIlBhgRERkSgwwIiIyJQYYERGZEgOMiIhMiQFGRESmxAAjIiJTYoAREZEpMcCIiMiUGGBERGRKDDAiIjIlBhgREZkSA4yIiEwpyCao4R7V0NCAy5cv49q1awiQTaJeIigoCP3798fAgQMRFhampvoXyzd1h0Ao2z2pxwPss88+w7lz59CvXz8MGjQIN998M2666SY1l6jzZBn7/PPPUV9fj+DgYNx+++1+K2Ms39SderJsB4IeD7Dq6mrtDCI8PFxNIeo+H330Ea5cuYLIyEg1pXuxfJO/+LtsB4IevQYmm1Wam5u5c5PfDBkyRCtzsux1N5Zv8id/lu1A0aMBJq8JcOcmf5NlTpa97sbyTf7mr7IdKHo0wOQFbXlNgMifZJmTZa+7sXyTv/mrbAeKHg0w9sainuKPssfyTT2hL5U73gdGRESmxAAjIiJTYoAREZEpMcCIiMiUGGBERGRKDDAiIjIlBhgREZkSA4yIiEyJAUZERKbEACMiIlNigBERkSkxwIiIyJQYYEREZEoMMCIiMiUGGBERmRIDjIg65kAmZubWqxEi/+s9AdZUj/3rUhF/bzSiJscgamw0ohNWYX+Dmk9kUqUZo2CNjsekyW6vhfmoU8v4w7F1MYhYWIhWd6nKLERb01DAfY78pHcEWHMtch9Jxh9HrsKe8nJUHixD5fFylOWlYjy/0Z16ganrinHooNsrNxnD1Hx/iExag22Z8QhT4y1EzMYvX8zEtFYXIOpavSLAGgpXY/PX1+OFpAiEBKuJQkhYBMIGqBEi6hTLyBjEjgxVYx5YIhAbEwGLGiXqbr0iwK41NmJY+FA1RkREfUGvCLBbhoajuqISjWrcq+YrOJafidn26wjR0Yiaswalxnb7S5XYkZGM6JgYbRn5c3ZGPo5dUvPt1EXsxso8PJ4g1hUTjWfK1Dw0oW7fGswW7412rKMQ1U1qNlGXEWWtLA9L5xjLdBZKXcprPXITM1HafBH7n012LDdpcb4qk2K/yE1HvJw+WZTZaenIrbyivdOhzU4bZViamOd6Xe5SFQrktWm13qjoBDyeXyu22FVDSRbmTlP7itiu+KdLWr/WRmRn60HvvvuuGuqk6zW2rQ9F2eJ+fsh2+bqa5olY7rVHZ9hSt1a4LHft4xrbx5+qkZrXbanffcS24XCD7ZqaJF1+Z5s2ffsHaoL0pwxbwjOrbek/2mP72OVzr9kOPjPDlrzJ+DnXbOdef9J230PbbOfUFOo5XVb2vOiqzzi43GpL/5Ma8eSDbbb0nxbbztjLsHC5OMN23yxjWauzbZ21SCy3yLb5PWfJ1pZ7co/t7U3zbak7a5xl/pNiW/q3n7S9aVinVt631qkRwX3cdsiW7vKZYtvXLrJtNe5L12psmx/6tvh9DHvXO6vFfpFjO+NcyPZxjev+R77zR9kOFL2jE0dwBBb+rgwrbshCzOQ05B652OIMT6rLy8COb/4a2xZGweLxWtlFFDybjWHP52PZhMEI0ebqLPekYtvzo7D5VyUu6z5Z2IjpaxIQZlgfjq7H2k8zsS3d+DkhGJaUjU1ffxW5R9Ukoq4wPBWb1sQh0nC91xKXiSUDCrG7Vk3QlKFpwnosHuks2Za4J/HYB5l4vD4VLyRHOMv8oDg8lliFPx7oXJNB7NM5WGjcl0IisDgzHqVFjqYK1FVUYPxj8xHpXAhhEa77H5EnvSPApOBQsbMUoXxHEurEzhz1SLZbk18VCnaG47GUCDXuQcMh7LqcioX3qHF39yRhzrtF2H9VjUtxcZjq1lHk2BtlmPiDGI874Ph7rThWwXtnqH32P62aBw2vBfneytFgDAuvxZkP1KgmGpOj3TthhCNypAia+JbldfTXo1B/oRsa8m4bimE19Y6mRnkJ4FhJmW+XAIgMek+AKSHD4/Bc0REUzz6Px2Wbv32vaDiFY5YojPPWK7GqEodHjvDSNTkCd46qx8eGfXr0KKsasqvXAmrXj1oecOQrfmMV0OR2bYGoDZ660W9LDldzhaaLOLkvD2tXZmKuvB4rytrSN9U8hzDc0loXd2MLgp2naR3QVFuOHdmr8NRide0tJQcn1TwpZPoavDA8DzEJmcgtq/fYekLkSa8LMJ1srsvC6/NqsDS7Up90tdGPZ3hWLNnR8oBjf+1Z7B56RB3XeGAV4h/JwmFMQEr6KmzbpZezTdPUAj1F3p85LwELXqtB5PR0LFuXp+8DO9IwWi2iC8X49HxU7kiF5S3xu8SltexAQuRBLw0w3bCIEWhsVLE1fARG11ahplkf9cgahYmna7w83aAWZ06Ft34WqwlH5KgqnDitRom6VSU2rmzCit9lYeF0K4aFhTruhWzyVtb9QN6fuSsmBzufTsbEkYMRZlGNlM2fea5lDbJiztMi5AqScOKJla5N9UQe9OoAa7raBIvFfltlDBKTjuC1fV7O7MImIXFgXqudLJoO5KHg6wktrnm5i01IxuEdXh65Q9RVzlfg2FdGINy9ua+xCH/cp4Z7yMl3yzFiuKGZUzn5h0JUq2GPBsVg+jfrUccdiNrQKwLs8ItrUHDC2POwCQ1H8vB4Vj2WzItS04CJP16DkKxH8NQ+13b2xqMlOKbtLIMx59lUnHwiGRvdejI2Hs3G3HXAL1fHtd07akI6fjlELL+yBHWGlTQ1VKHg2UzsOKsmEHXW0DgkBu/E5hLDidklUSvLLEfI/Wq8h0yckoDDL7xouPexCXWFmdh4IQqRaop0rDDPpcNV09lCbK8Yh/Ets4/IRa8IsNHRETi2cT5i7h2HqOhoRIyNwdwdjXisoBALh6uFJEsMNhWtwegDmdrNkvKCsrzBeMF/NiLE/szEiFS8/mYmbil80m2ZMKwozEKsT8/JCUXs83vx/NeK8GiMfLhwPCaJdczM3AN8fxVSjNtE1CnhWPjyGtyy9bui7KuOQisrMHndajw4SC3SQ0KmrMbO2afwhNgH5A3KkyanInfAk3hhidXlJHDYoAZsfETsJ2r7Zz5bj3kFKzG+izqRUO8VJG8GU8N+d/z4cYwdO1aNEfmPP8oeyzf1hL5U7nr1NTAiIuq9GGBERGRKDDAiIjIlBhgREZkSA4yIiEyJAUZERKbEACMiIlNigBERkSkxwIiIyJQYYEREZEoMMCIiMiUGGBERmRIDjIiITIkBRkREpsQAIyIiU2KAERGRKTHAiIjIlBhgRERkSgwwIiIyJQYYERGZEgOMiIhMiQFGRESmxAAjIiJTYoAREZEpMcCIiMiUGGBERGRKDDAiIjIlBhgREZlSkE1Qw353/PhxjB07Vo2ZXRMaThRh68Y87Dpei4ZGfWrIoAiMj0vCY48lI3Z4iD6xKzQ3ofqtfGze/CpKq+rR2KRPttwahYlJSVgyLwmjB+nTvJPbXYZde4rwZnEFqi9cRGOzmmUZjMixCUhZlIw5E8LRhVvf4/xR9npX+TZovoKTf9yGza/txbHaekdZ18vLJMxJXYSUGB/Ly4FMRKQVqREfJOagdn2MGvGB3Nbi17GjoBAHDfslQkIxzDoBs76fhscetMISrKb3Ar223HnAAOsKF0rwzMJM7DitUsSjEIxfnIdt6VGwqCkd1ViZh6VPrkfpBTXBk+DBmLX+99iUMFhN8KQSG2OSscXbepSQkfPxwo5MxPoUioGPAdYxPpU9wefyUiICbHH3BFhjWRZmL34Z1d52S1ixoqQQC4er0V6AAeYnveIPXZuHmTPW46S91hIcitFT4lXtpwl15SU4fNa5B0UuLkRxulWNtV+jOGONE2esDWocIeGYGBeNYQPkSCNOvlmCk/azTAzG1F/9Hi+0GmJlWDoyDbvloDh7Hh89CZGOA04jqkvKcOySYe8fnIBtb2YhtrMJHAAYYO3XVLYGMYvy0WAv66IWMz4mXpUZUdbfOYTDtVe0WRofyktdbhImZVVpw8PuT8LEodpg676ejOfntL3/VOclY+a6SrFVisu2AtfOV6D0SC0amxlgpiYDrKe8++67asikrlfYfjbRarvjTv1135Ov285dU/MMLh9abYu7277ct20/e0fNaK8PX7clO9ZjtSVsqLBdvq7mOVyzndm5yHafWuaOu+fbXvtQzWrhkO1nD622vVnjYaOVy+9ssiUYPjNmwyk1x9z8UfZMX77dnNv6sCpTM2w/eaPGdq1F2ROl772dtlTDPvGN5YdEiWydY53ilf4nNbGTzm1zrvOOu79tS3/d87bartXZDv5ytW37B2q8l+ht5c4bduLohLq81dhxUY1MWInXf5WEYR4a/i0xYt6WBIRpYxexY4M4i9WG26MJpRuzcFid/YYl5+H1ZVEe2u5DEJmcg52Z6iy1uRxrc8r14RZi8NzvV2JqROtXKyz3pGPn+jg1Jn7nVwtxTA1THxSRjG1vF+H56REI8XDdKGSkmP/bRRimxht35WGXl8Je84Fe+5JNeWNGqMHOOJuHJ1SNDsFWLNtVgk1JnrdVtl7EZq5ESi+qffU1DLAOq0LBTvvOF47FTydjmJcLwZYpq/BTew4cfRnb7W/11dUSvLZLNc8Ex+HnmdFeL5JHpq7BYrVjNr6Wj/1X9eGOsExPwCw1jMZGOFooqW8ZlIBtBSvbvq41Zi4W3qOGUY63j6tBT7xen2qvK9idZW/OH4xZW17G4pG9qesRuWOAddT5Iyg9r4ZHJiGxzWb5UEydbk+wepS+Va+GffROOfarQYhAmapd8/JCnH1OmxauDzeXYN8RfbBDgnkQIGBYUqqP1z8HY/SoUDUsallnWy/rTfbraeIk8Ba9iaLjqrZhY4kajsvEz6c4t4F6JwZYR9XU4qQahNWKSDXoTcjYKIxWwycrDBeYfVBXc0oNQRwcfOsEMnpclBoCKiraW+UzaDZs6dChqimUqHUWQxpZbu6vhtzVi3KtBhECS1snZW049no+6rShUKSkJHS6ty8FPgZYR13vQNtHeDgczfxnz6udzUeOM9V2+NoIR7DWnW9njc/oz+UoVYNh8ZMcIUzUmpr3atWQKDODvd3KoXS6ll+FgwdUE7tlJhIn6IPUuzHAOuqWoY4L1aiqQrUa9OpCPRwnnKdrxPmn7265VTUHCidP+Vibqq93bleNONtVg+1yoQiP/zhfv+41OAG/XOys1RF5Vom3y9QgovGtVnt016L6tBocGeE8uesIY5N+TDTGq0Hq3RhgHRUxAqPUIE4XYpcPmdJwqMTZ7NhOIV+LcAbmviKfOmUcPlCshtrp6hU0nC7HjnWpiJ6cif2yp+WtMXj+ld5xDxh1r8aiPOyw9/S5Jw6TvbQ5X7O3LFStx6SRoxBhf1mjRdlLxuPZ+S73UbbqvSrHvuVoYr9ai/3Z6Zg9ORpW+3rHRmPSnHRsLKxyPnGGTIsB1lED4vDgdDUs6lJbfpqHam87RGMJfvGrSjXSAWPiMcve3be5BD97psx7b8DaF7E233BTqTfycT7Gg0eUOHgkpOKZvHI03GzFrGfzUF6SgzkRanmi1jSW4Wdr7T0pBiNleXLr10yvNrZ+HbhZnESdr8T+LWswN24cotPycMxLga+rdbRtYMTwcDQeWYP4exLw+JYSHDt/xfk5TVdQV1mCLU8nIUqcnO324Sk0FLgYYB0WgqmPOe93wYn1mLtI7GSX1LhB49E8LJiWjt1yB+zwM9eseCzdeT9Ww640zF5ZgroWR4Am1O1bhfgZ2TjZ4c+yC4ElNARNDfX42P6wRaLWNNViy/w07Fb3RobNWYMVju70HlwSATY0ClPnJGGOyysO44eGutwm0nBgPWZPy0RpKyHW8KGhQb42D3NT8/UTSvmkmgT7ehMwMcLQM/FCEZY+LPZLhphp8VFSnVSdm4R4+42TivZA3ZgRGHipBoffqUKdehxT2JwMzDm+Hlu0xROw7XQWYrU5vrqC0owZWLDLfve0JEJmZBRio8KB8xU4bHhg6einMzBi3Xr9UVHWDBzaleoMXKOqQjy107V2ePl0OQ4bHhIsPycyNRuvZ8b0igef8lFSXexSGZ55JA07VN+NsOlZKPpVAsI6U1au1qJ080o8nmvosTthNcq3J7Wo1ZVmjBL7hRrRqGePLml5s3/T6Xw8Pn8NSh0PIfC8TrPqS+WONbBOilyYj+JnY1x21MYLldhfUIiCkkpneMWsxs7nxqHRfqG5Q93RQxH7/F5sS40wnJ02oVGEzW7xebvfcoZXZEoediZYnE/8CA/DLWqwBWsSnl+z2uX1QkExKo9X4FDuIsRqnciaUJ2Xhrin2mi6pD6n8Wg2ZscYwmtONko6G17SgAjEZuajPMf+FBvhSDa2+tASPzqzEK/LB2d72AbtaSGvpDt70x55sf0PFqCAwADrNP3RTeVvF+L5xW5NH/IrG6ISsCK3GGWiphYZ3IjL9qP/IEvH7lMJFiH2dBEqS3KwYk40Im81NInIr7O4fz6e31WO4lXRsFw1PDVDfF77OyqHYFhMOra9mYNZqie0bLr8yT42J5LQfAWl6xIQ/ciLOCaLhPwGhHWirK+J69JaumXKavwy0V7OL2L/n9pIm6Hz8Zw4yfMqYhGWJaph1GN/mbPbP5kHA6yrDLJiTno2Xj9YjqrTp1ArX8fLcaggCwvt341UWwX77ciWceM8N+f5KGR4DBauyUNxWbn+WfL1ThmK8zIxx6p29tPOnlkTv+7oM9l+lhj8cpXz+tv+Vw1Pw6e+qbESG38YgwV5tXrzXkQSXjhYhk1J3fG9cSGInT5JDQN1fznVovyFGW4zsUyJx3gfAjQ2PkENAdXVnbhPknoMA8yPmk6dctyXNXGcb0/T6IyT79rbWsIxfpQPN5N6ETIpDlPVMI6Ud/h2AOoFaguxYFoythzVa+KRKTmo3LsaU2/VRrvHCKuzye9yI66pQTvLV5wtEcNu87Gs32a4l/N0Tcfuk6QexQDzmyaUlti7F0djcnTXn6e6qsKbb6qzSlGDmjxGH+ywAR1pgqReR/v+u1V6B4jgCKTkyubqnu/YM2yEs4Wh8bKPt48YebtGTAGLAeYvFwqxdZ8anpDg9ebOLnGkEDvO6oOWxITOP5nAeM+OpYPX78jcGsuw9Ifqae/aV5UU4rkYwzXYbtR0vNJZ6x85omXz+73RjhaCuncqfGribvqg1lHrstzaHU2f1N0YYH5xBfuzstX3aIUi5Ylu7rLbXIst69TjnxCFZY91/vFPTYdKnE/Dj3Y+lJj6jmPZK9U9Xv7+qhKx/+yzt14AUydFqyED44MFfPq6ImOLCBB7Px+RZkYMMD+ozp2Px4tUs8aETCzp1geNXkHpU/OxUe3AYSmZSPF4baIMW1aX+fY4HXHm/ZPV9p09FLOS4ni22tdcLcHWfHXj1D1p+Kkfv6qkcd9q/Mxe/CwJ+P4UT6UvBFMfSVYtAz48GefoevzM3iIyOBnznH1EyEQYYJ1Sj90bs1Fa20q3cvkstpUJzhudBydg2+bWa191eUmOxzk97rGrejm2PFuIkw2eP6+poRy5Cw03Oo/JwM4VrZ9ZntmRhqjJacg9ctHZPOhGe4pIgvPpCjKAf+rxAEK92jtl2K8CITJ2Qpe0IJRuTMXawiq0UpxFgb6Iw9nJiE4vctwOMjEzE7Gtfe3KhDSssJ8cen0yTjZm/tD+rejihOy5dJ96LVLg4ZM4OqUeuYnxWCvyKWRQFGLjRmCgmnP5dDFKKw3PYAuJwopd+VjY6u0pTdi9eByWyjPN4Di8IHayll9aWYalI0WYiCFLRDRi7w2H/k1LTah75xAO1xouXt+ahG1Fq708fNe5Lo1lMMZHT0Kk/dt2r9bj2FuVqFY3YmsikrGzYCUm9oILYHwSR/vIk6tJ6/QTMcuYOEwb1b5CMCw+HYtjXHsHOp+e4XyajP2bw66dr0DpkVqXFoLRi/Kxc1mU9+uv8jrdNMMJV3AoRk+Jx2itXIv9pLzE5eHA8ob/1+U9k2q8N+hLT+JggHWKM8C8sUxYhG3Z4izP61exV+KZe5P1p3jHZaFqS4KHZjq30PEoBMMSV+KVNUkY5rWiVI+CtGQ8dcC+p3sjb9bOws5VcZ1/ukKAYIC1T12uCDC3R6a1x+jMYuxZ6LxXS2r5+KdWhEQg5Vcv47k4H7vHXyrD2pR05J5urWonBA9G7KqX8UKy8ak2vUNfCjA2IXZKOFL+PQcrUls+fNRyawQmzsnAtjcrULm9rfASastxWLWTTJ3e2jWmaPz096uxOMHtCRxiaYt8KOri1djz1hEcWt9WeEnhmJNThqo37ds/2LUrtPYUkTgszMxBcWUFip/tPeFFgSH2uSJsy5yPqaLmNWyQa4ENGRSOyPuTsCK3CFWVRb6HlzQoBiuKxH6Qm4FZYt0Wx6r1/WSWLNNHy7CtF4ZXX8MaWIBoKEhF9MpyMRSHTZXZmNXJr1cn71gDo96KNTDyu5N/luElTIjBRIYXEVGbGGABoQpH39GHJiZM6t57xIiIegkGWCBoOIVj2tesRCNxcueeWUhE1FcwwAJBZTkOy5/3xHX/I6aIiHoJBlggiMvSvw7l1WQ2HxIR+YgBRkREpsQAIyIiU2KAERGRKTHAiIjIlBhgRERkSgwwIiIyJQYYERGZEgOMiIhMiQFGRESmxAAjIiJTYoAREZEpMcCIiMiUGGBERGRKDDAiIjIlBhgREZkSA4yIiEyJAUZERKbEACMiIlNigBERkSkxwIiIyJQYYEREZEoMMCIiMiUGGBERmRIDjIiITIkBRkREpsQAIyIiU2KAERGRKTHAiIjIlBhgRERkSgwwIiIyJQYYERGZEgOMiIhMiQFGRESm1KMBFhQUhM8++0yNEfmHLHOy7HU3lm/yN3+V7UDRowHWv39/fP7552qMyD9kmZNlr7uxfJO/+atsBwbg/weFEKfdPCLD3gAAAABJRU5ErkJggg==;" parent="1" vertex="1">
          <mxGeometry x="693.09" y="79.75" width="54.01" height="70.25" as="geometry" />
        </mxCell>
        <mxCell id="5wgpudkQjk-QjJw8Ud6R-13" value="" style="shape=image;verticalLabelPosition=bottom;labelBackgroundColor=default;verticalAlign=top;aspect=fixed;imageAspect=0;image=data:image/png,iVBORw0KGgoAAAANSUhEUgAABNcAAALsCAYAAADAhlFwAAAAAXNSR0IArs4c6QAAAARnQU1BAACxjwv8YQUAAAAJcEhZcwAADsMAAA7DAcdvqGQAAP+lSURBVHhe7N0NQFX1/T/w9wUVHxJ7kLLEXGgWohs+FFoLtYJsorZornA2MTYpW7hMVk7L0p81zCYtSxeT/pm2XKxUygfKB7ZSNh9YPrBMKQPLwmVCmqhw/+dzzvfce+7lcrlcLgj4fm0nzsP3PNzr+d5zzud8H2x2DYiIiIiIiIiIiKjegtRfIiIiIiIiIiIiqicG14iIiIiIiIiIiPzE4BoREREREREREZGfGFwjIiIiIiIiIiLyE4NrREREREREREREfmJwjYiIiIiIiIiIyE8MrhEREREREREREfmJwTUiIiIiIiIiIiI/MbhGRERERERERETkJwbXiIiIiIiIiIiI/MTgGhERERERERERkZ8YXCMiIiIiIiIiIvITg2tERERERERERER+YnCNiIiIiIiIiIjITwyuERERERERERER+cm2IP+EfeXuU9j7VRUqq+zaLDts2v9kzKYnkTkyrv3Xrs3RZ9rVPJlrjpnpnOmNLTlTy5i5baFvSjFSGymMLQAhwUGIuiwI4/p3wMM3ddTnERERERERERERNRe2tr8/okeyrIEyY9oYt87Tg156ao1NBcH0aW3c5ligDea4cJ+2znFdZkxZ58m48d8BV7TBiru7IOLiYH0eERERERERERHRuRYkQTUjhCVBLOe4M9Ql/5NglwzaPD2oZixzzNL/mOuqmVbaLDONyRg3Qmnm2uaaZipzXAJ8O784i6S/HtfnExERERERERERNQdBEtCSEJf8NcJYxl+DOd8Z8tLn6KXUtGk90Kal1v44S7jJYATlDJLemGOmce5PX6qmjDmSxrnMGDO3JQG2Bf84qY8TERERERERERGda0FGqMsIiQlj3Bn8Eu2C9IQqjRHqMgZzXTs6BMuYM2zmGmwTZqDMYP51HTPTO1PJWuYWxd92n9L/EhERERERERERnWtBZgDLDIeZJLylT2v/WXl3KJ4fdQG6djSCXs50NoR1DMKC2y/Am+NDcUkHs/NRI0Bms0tKI7UEzuR/l3Sw4ZaINrj96na4+uJg6DE5bb4nZmjNunTPV1VqjIiIiIiIiIiI6NwKkpCaGbwySo7JHDMgpi3TZr1WeAqDwttg7cQu6NElCO2CbWgbDHS7IAiL7+iMEb3a4bVdlTh2StYztqFvR9+wEVS7onMQMm7rhD1TL8YbSRci+2eh2P7gxVif3AVDtW23NaJs+j6N9WXaOCJhHtuZqmpjBhGdv6qKkXVnX0T06YuY6fkoV7MbU2X+XMREavuMTERWsZpJRERERERE5z3VW6gzsCVhLWtQyxRxURCWJnbGmSpg15dn9WqiF7a3oeeFwUhd9R0OfHNWS+Vcz9yS6HdpGzw/+gL0vqQN3vjoFLYfPotTZ+z4gbbNMZEhuCasDaa/W4E3957GmWpzPdmW9XicWzw99zI1RnS+yMfUPqlYraZchHRGj8hhmPDgQ5gQG44QNbs1O7AkEfELirQfl+nY8Ldk9G6CToQ3T++LSauM8aj0DViTEm5MEBERERER0XlNrxZqJVPWORLSkqDWd6eB4CAbbrqqHX5zQ0c8qA1JA9qjvNKOb05W6+EvYz1rcAy4oJ0NU4Z0QL/L2uCe149j1nsnsHJ3JVb/txJ/2nYKSW9UYNvnpzFjRCe9dJu5f2Nbxn+Fc6tE5KKyAiWFuZiXEo/YlBwcaO01p/dk4j4JrHVNwNJXmiawJobePRm9JXIZGoOxNzOwRkRERERERAa9QwMJXZnBLDOI9YMLg9C+jcyx6aXUxkeH4EeX6zPMTkK1+Tbcfm0IEq5tZ8zQSADuBxcGI0R/4LXh8s7BuL1PO8zdeAIflpxFpRRw02n70nb29Ylq/H7DSYSG2PATLZ0+X/uvEdST4zKDdvJfcyA6j/WZjDc/yEfBphwszczEk8kxCFMBprL8WRg/r9CYaI1O5uPRXy9BSXAkZryWgeGhan4TCBmUhg2796F4ezZSItRMIiIiIiIiOu8FmcE0s4SakObP1tzbBXG92+nzOrUFortJu2haOm2GXfuP8dcIhd3R1wiuSdrBV7TBW7/ojN4XG0/7ERcFI6StDRsOnNZTSBrjr/E/GZcA244vziL2qrZqnpOZxsl1OdF5JzgUYWFdEdY9EsNvj8OEx7JR8E4aotTishXZWH9STbQ2HWPxzIf7UFyUwwAXERERERERNQuqWqg5SODKhirtT+m3VRgR0VYvvXbiDPTqnDe8eEwbvtH/Dl0kwzcYov2d9u4JfV3pK/TX17XX1z9cXq1vTUqkVVTaLSXW3INj2v6qtX2ctqOzltYsqWYM8l9Zw/hrsI4TkS5iIn4Vp8artuHDIjVORERERERERI3KUS1UmIEtmf5D/vdIuDYEkwd3wJDwNnq7acna+CRzuK69NnTAfdow9cYOuLVXO8wc3hG3XB2CBdq6xyulHTbg0LdVuLiDDV07SujNuQf5r7mvziFAxMXB+G+ZNBYlx2IsEeYazgqr7sG55m/Jy3/RezWU4f2Nm9RcokAKQWhHNYoKHD+uRqsqsDcnE/ePi0d0f+MclCE6NglTVxTW6GWzJCvRkWbqRm3GsUIsm57kWDcyJglPrC1FpZG8pmNFWJmZhrtiYxzbiRgci7umZGL9IU9rSUcNKt3YbJRUHcX62YmI1nvlTMKywyqZud0RMYg000fGIGZcOpYVVqhEplJkjVVp+qRjszanLC8D40eqY+ofg7tm56HEPBwPn3FqTnGNz1jju/GgvCgH85ITEDPY3L/6rnNLVQpRiZL8bDzqli4yJgHjn86D/jNIRERERERELUaQtVSYs0qmDVtLzuDxvBO49eq2eGdiF6T9uCN+HdMBv1KDjP/6euNv6pCO+Os9XRBzZRs8tu47/HW387G05HiVHjRLH9YRF7Q15hn7NPYr/70zKgQ9LwzCqiKpOmqQNNZwmrGO74G1r8vKMPzW2xwPrldH9sOad95VS2t34uRJjL832bHegMFDsGfPXrWUvHH/zq1D3x8OxF0/T8K69RtQVVUzemANQMo41Vclyh1VQcPR41JjbPMTMRj92BKsLyxFuSVaVH6kEKtnJyFuen6NAJvDsXxMHZWEJ1YVOtatlEBUWjzuyrYGiwzl2+Yi/oZEPLooDzuPWAJe5UexM28J7o8boq1XrGZ6UoaVD8Xi/hVFKJdTpKpSlXjNx6Pmdg9XOINeVRUoK8zFE+NGYepG9wCb096sRMRMeQVbi1WaygrsXJGGYfdko6Tc82dc/ViCx89YuwpsnhmL6LGzkPVBMcosX6r+XW9xfu6S7CQMS5mPlW7pKo8VY2t2GmJ+lt36O6UgIiIiIiJqRVTJNZOzHNsp7eFu5Z5KTP57BTq0lVJnwki776szOHhUe+p1xuXwXaUd/7fpJP66+5RKZWzr6xN2LNt1CiN6tcXin3ZGd9UjqOgSEoQnbu6EWdqwat9p7PxCnqRlPfMoDEZ6mXY92vqoqqrG+xs346yHwI7Vxx/vx24G0wLu1KlT2LmrEA/8ZiqmPjwdFRW1B0PID0dy8YZZmio0FjdEqvFKIGzIRDzz9w0olMb49+9D0bpMjFPtlZWtysTKQ8a4u9UzU7G172Qszc1HwQcbsHxKNKSzTLF30SvYas1KxdkYn7zCCAoFd8XwKYuxQTpd0NZb83SS0cumdjA7n56IJ3bIuAf7X8GijZGY8mo+irTjLN6fg5SexqJT6IqhyXOwZlOBsaxoFzZkJqqeQo9ideabKNFTusvFgswyjJmdgy3a8WzImogo1fkD9izGXSNTsRpxeFL7fgo+yMXSZPOLMz7jTjVel70LEjFp5VFjoms0Up429qd//szJGN7NWKTTvqOQPgmYkZWLwkL1b/JBNmbEdjWW75mPF7YYo0RERERERNT8OUquSdjKDHol9GmHBbd1xB/iO2LG8E5qrjBS5Ow5jaU7TunjZrSrc3ubXpJtXtwFmBffCbdf3VbvGKFaW5698xRe2vo9hl3VDv+achFy7w3FW+NDUfibi/A7bfunzkIPwJ04Y4TVzCOSvzJt7eTArFZaH506dULbtm3xwYcfovhg7SVnpKOG1WvewXfffafmkL8GDRyITXnrsO2DLViXuwoPpP5a/3cQ6zZswNp1G/RxaqCqSpRty8akO2c5gl1RqRMxVAWQoqblo+DVdIzrF45QFRkLiYjDM9MSjAkUYYelpKmLPmlYviQNw/t0RVhYOIamLcGTsWpZeb6lXbdKrM+cj736/rtizKJ3sDQtFr2l0wVtvajEmdjw+mT00NMexbLMHJTp42609W+b/wqmDenqCOIZ+uL3m/Kx/LFERHXvbCwLDkHv2+dg2u16Au1jFGJXLZ04RKWtwMKkSPTQjqd3bDqWzopWSypQdjQS017LxATt+wkLi8Dwx7TPOEgtLt+FnbUEHl0cWYEnlqhSbl0TsHTdCsxINPanf/7b07B0mvnFAZcmLEFBbgZSYiMcVXlDwmKQMmM8ehuT2LWLjeYRERERERG1FEESunJv1ewC7ek1ONiGNtoQZBZac2cmVrEu+dNOe6CXDhA6tLGhQ1ttXX2ZHWeq7Hji/ROYsLIcS7d/j+OngO/PAn/bU4l1H1fikk5BmDCgPTq3M7Zjbto1pGbsyDnPdxdccAFCQkLwv/99g01b8tXcmkoPH8amzVv0QNz11w1Wc8kf7dq1Rdewrrg0LAx9+lyNRx6eiidmzdCXSSnCf2+vrfgS1aloPoaZVW4jByDm3vnYrApNhcXOwR+Tw40JTVi3rsDJo9ibn4usp2dhanIChkm7ZVNyVQrtvD/iMdSFoePNkmGmzhg6xCzZVYqSr9UoCrDJjJUOSsXvb+6sJiz6jUeKGbTaVoCdKhDoKgF33O5hXXTVPgdQeaQIm9/OxryZ6RifEI9hMQNwv+NjlOJrjx8jBhPGOr8PETZkmCOIhSFJjlJ8hq4YONhMX4lKj8fpqmRtjqOE222z5mB4qJqoRYj2bxJaWYED2/KwLHMWHp2SpP2bxCJ6VCYOqDQltfybEBERERERUfOjh86kZJj8zwiv2bFyz2n8bv13+jD93e9QbTfKjml/HIyUakz7//FTdiz850ltnRP6em8XncaZamc6GTZ/egZPbjyJ1FUVSH27AjPzTuDXb1Xg0DdVuCe6vd4pgvAUSlNHoObXzxWXd0PfyGv18bz3N9ZaJXHnzkKUlJbiqqt+gEsuuVjNpUC56MIL1RjQpk0bNUYBERqJMbNXIC/LNSB2YGUqYgbFYnRKOuZl52D1B8UoOXwaIRe5lg3zJKyrqqZYl0MHVak1TXg4wtSoq67o4YhxHdTymRq1ioxEX5dgnlJVjJWpsYiMTcSk9PnIWpmLrftLUXKynaM0Xu3CcKn7AQW3c5aMuyysxvGGdjEDfMX45DM16sXBfWYps0gM6lv391q+LQPxg2MQf28anliUg5V52u/O4aPajj0FFomIiIiIiKi5C3IUPbP8leqR1XYbbokIwdrkLjijPTibwS4jyKVNazOMecZI2AU2/OWuUIy9tp1eFbRK24YsN8NkMibrntEWVlTaUa4Np7Xtlp2sxpRV5XrptufHXIAru0i8zxlUM6qryrS5nfpr3749xo5JQHBwEHbv3oOdu/6jljhJm2CrVq/Rx2+/LR4dOzi6XqxB0q5ek4u77h6P/gOu00sQSYcJI+JGYtnyFTh7Vm+F3aun5s7T14vWHrI/2r1bzTV8XlKCG4fdrC9PmfwAKiud1fZkXOa5L6vvMbn3YFrwr39jZMJYfXrmE0+qVFLKrArvvLsOo8b8VNtef335DbEjkPHsc/WuPvvFl1/qf+Xf4YYbhujj5Ic+k/Gm3p6XGgp2oXh7DhYmRcNaaKoyfxbGz8zXe58Mi52Ml6Rdse1a2v27UPh0nErV3FVi8xMT8ehGKZonbbllYs2mfKP9uN0FWDjSSNViHJK26V7BAcm2EYl48tVc499v/z4UrkxFlJGKiIiIiIiIWhC9WqjBCJsZISwbburZFk/GdcI/PjuLZTtP6aXWbDZnmTJjNXNd4P1PTmPdx6fxXEJnjLm2nbbICKYZKVzDYzJuzDeWbys9i5f/dQoXdgjCH0ddgIs7GOs60zsDa+YW6+uGIUPQq1cvnDlzRq/6KQFEq31F/8X2nbvQJTQUt4wYruZ69uSceZg6LR07tfQnTpzQ50lVx0OHPscTT87Vh7oCbMNiY/Xqp+XlFdiz17V9pf37D+Drr406dweLi3Hs22/1cXHs2DF88olReey6wYP06q6iIcf04bYC/Cp1irbfT/TpylNGwE5K+EnnA7+Z+jCK/vuxHmgTR458hcV/zsLPkybg8OEv9HneSADw72+vwnN/fF6fHnfXXXoAk/wUHIowvT0vNdRSCm3z22bbZnH4/fNpuE3aFTOLepklzQIhPBy91ChKSz23p4aj+PorNRrcF71VRwV1qsrH22ZHAXHpeCktDlHduzpKrPlSbbOxhXUzi+SVosSIH9fqwLocVcovHFOenYMJQyKc/35Vp6X/CSIiIiIiImph9JJrZsDM+GuErx7+cQds+fQ05m4+icyt32N/mafAjLGeVAlNX3cCT7x/Ev/87Aweuamjevh1BsWEM5wlY8Z+JIW0v7Zo2/fY99VZ3NK7HX7Wr71qr81IKaPmlly36Dtp/8sM6EhwTdpXs8p95129JNaA6B+hd29HqMCjquoqxN70Y7yxYhmKdu/CwY/34t01b6F/v3768nfXrsN///uxPl6ba665Gldccbk+vn3HDpdg34dbt+qBMfHFF1/ioKUThoPFn+LIV1/p7chJcM3UkGN6bfnruPWWEdjxrw/1EjTz/zBP71U1Y8Ef8Y62npT8S5/2W+wu3I79+z7CvLlP6vMk4PbCi4s99sC6dVsB+kcP1ku6RfYfgEfSH9OOsRozZzyKWb9/lNVCG10pSg6qUYRAxWCVCqxfG8DuKIMHwFEQccdivLDNQ4hoz3Itj6vx+FgMVaN1Ki2F82Non0ON6srzsLb2JhSbTNSNsarEYAWWZWQbPabWovSAmZfbob1b4dgDeRscba4RERERERFRyyF1MB0BLCPkZUNbbaLnRcHYUnwGp87acfB/VXjk3e+w58hZnDzjDAKd0sZl3s9eO47/Hj2L77W0L3x4EiHaBq66WDWepCc31zHDZNqgzzIqfcqcL7+rxoOrvsOXFVUIDZHOEMy0BmMLzml/3PTjG/WglLSr9o9/fqjmAkeP/k8vvSXVFX/607F64Mib3z70G2RnLXGUHJMSfddecw0eSP2Vvvx4ebkeBPOma9euiOprNA7/3//ux7eqdNrx4+Uo/M9HuOyyy/TAmJS027N3n75M/Oej3fq83r0i0CvC2RJ7Q46pX1RfzPr9Yy5ton2k7WfVaqO1+JRJEzH51yno1LGjHhT7+c/uwri7EvVl+f/8J774ou7Sa0KCl88+txDzteHEyVq6dqQACUfvPmoUuXhhYQHKtK+8srwYm5+eiPtzPbc76J+uGJeWpNouO4plyYmYmpWPA2VHUVZWir05cxF/zxKUyOLgSMx4OM6tN1Avwnuhl9kO29rFWLDtKCqrKlG+Px/zJqZhdbladi4NScUMM7i4Zz7iR6UjK79Y++zm58/A+AVGFLDXNWaHEMV4NTMHB8orjQ4nVqRpadhDKBERERERUUukB9ecJIRlxxm7HSk5Fdjy6Rk1B9hw8AwSlx/HNO2hXEqnFZScwbR3vsPPVhzHPw6d0UNkkm5r6Vk8uKoCnxytMubYZK4wt6QGPXgmpASbMW/7F2dx29LjWPLvUzird4Yg851/hbWKaH1JpwaDBw7Qx9977329nTKxtaAABw8eRHh4uEtpsNpcfnk3PVC0Of8f+MP8Bbg3OQU/Hn4LHkx7WKWAXrrMmzbBwbhhqFF+5/PPP3cEvkpKSvDpp59h0MBo3JV4hz5PetaUqpUy7NxVqM+L/tEP0aWLs4WthhzTLTePcAmsicLC/+jbCw3trJdqk2CdScaHDrleH5fqq8Xa8bobNHAgNuWtw7YPtuAfm97Dc/P/gMhrr9G/8+xXXsW8pzN8apuO/Df8l5PRQ43vXZKMmOi+iBycgEmvAjOmJaglATJoJnKfS0CYBMKqirE6IxXxN8Yi5sZ4jH5shdHGWHAEJmS/ghRfq4SK4Fj8KkVVu6wqwqJ7YxEZOQDRCanIwnQE+mP4pyvGvZCNCWasuzgX81IStM9ufv5XsPWIsajHuGTcpoKFZWtnIX7wAEREx2L07F0Ymj6Rba4RERERERG1QKrNNRmM6qFGOTIb/nX4LCpOm8uEHZ99W4XsnaeQ/9kZ/PPzs8ja8T2Kj1Wh2pEGemcGH5ac0UuxyXaM7Wr/1SZdw2ISJjPWs87//HiV3tmBMNaWwTwqYSzzh5RIk5JpUkJN2leTdtYk2PPWW6v0apjDbroJl116qUrtmVTflGqUN8TejEkpk/WOAf75wYf46quvERpqbU6+btdfNxiXhoXh5PffY79qR+2jPXv1UmYSeIu89lp07NDB0e6aDDKudwigAnOiocd0TZ+r1ZiTVPkU0ibcHYk/d3R+YA73P5imL5fvrcpDkKxdu7Z6VVz5fN27X4E7xo7Ga69m69VuxZt/f0vvRIEaUb80rFk5E2OiO6uSYiEIjU7CS+tWIKXmP3mDhSVkIH/dYswYG40elnbgQrtFYGjyHKz5MBdPDql/j5hR03Lw5uwEDDS3GdIZA5MyseX1ZER56l30XAiNwZPvFGDN0xMxtI/5fWu0Y+19YyKeHG8E9RGagJc2ZSLlxgiEqmMPjYjDjNffwcI4z/2sEhERERERUfOmt7nmZAa1tL+qDTAjrGUGtIxwmATTnHPM0JfMMUqhybQ5JdvRx627UcwqocYxyDqS0rotY8xkzGmYoTExescGUipr46bNOHDgIHYV/kevLjpm9CiXElqevL9xM+b9Yb7eacDNI4bjb39djsLtBfikaDcynp6rUvlGSpv16mUUd5F21iTQJ3+lU4Uf9otCr4ircOWVVzraXZNBxqWEXb9+ffX1RCCPqTFJ6TgpJSekauvHH+/Xx8kXsVi4f5/eJl7xqmRHibS6SDBt4coCFOnr7kLhypm4rWcIcHOGsS1tWGOWDNP0SMlxzF94s5ppUdfykJ6xSJm/AltUD5gyFObnYvljiYi6SCVy4cvnkmBaBt40t7m7AG/OjkMP7WMMn6/W3Z9jKREXjpRV5vwM1OiepGcy1pj7nB+rZjrV9hnr+uwI7oyoxHQszzW/b23QjnVD9hxMiLYEFbvFYUZ2LgqLjDSF6zKRMkhbXsdxERERERERUfMUZJYek8CVjHUPteGWiHaI690OMeFt0C5YlhnBL2uoq0MbGOl6tdWHizoE6SnE1ZcE4ear2hmDlubmq9rqw3BtGNCtDTpJo24qtWxR9nxllyDcGtFW22YbbTzYsUdhHmEgXHLJxRhyvVGlceOmLfjr397US4r17xeFa65xNFLlkZQQe3fdOj0IJoGxx2c+hkEDB+hVJ0V9qzlKG2ZmSa7i4s/w8f5PsHv3Xlx11Q/Qo0cPXHjhhXoQzWx3TQYZl7bapM02EehjMskxCAn0rf773xxBBU+DGTCrrzOsFkpERERERERELZxecs38n4yP69cer44Lxf/7WShevzsUkWFGoMtkpLIh6YcqnRp+cnVbI4G2bOGoC7Ds56GWoYs+vKal+/uELtiQfCFG/KCt2pYchA0/7x+iba+Ltq0uuEfbtvQWaravZgYAhXGc/pOSaVJCTUqqfXLgE6z8W44+f+RtcXqwyxupvilVLUWb4DZo19b8zEYQ6/1Nm9WU74YPi9Wrfkq7a2vXrccXX37haE9NjvVGVf3zH//8QB/EDdo8abNNNMYxiai+fdFW25YEHje8974exGsoqdb6/sZN+rhsWzpSICIiIiIiIiJqyVSba8JoA61jOxsu6RSEi7Xhii7B+MWPzNaDnMEVKbWWPLg9ukq6jsbQSVtPyDYu1ebLMhm6tLfpvX/KcKGW7orQIAzu0Rav/jwUsT+QQJBRHVTWl3121dJcoHYpS9xDaYGoGmp2bCDthUkAqkd4uB7kqosEwaT9MCFBsBV/XYmKigq9t1HpBfOtt1fpy+rDrPopQbK16zYgKCgYw2KdxxIV1Vdvt2z3nr16JwMyLm21mRrjmMTgwQMxeNBAffylJS/j8Sfn6B0tSKcK0tPn/v2fYM68Z7B8xV/1NO5Onz6Do2VH8XVZGQ4f/gI5b72NcXf/Qq+CK4YOiUG0KrVHRERERERERNRSBRkhNTO0VtO4H7XHhe3VhB7qsuH68Db4wcVSX9S6hrHMNRxmR1bB93hs3Xf68GTeCRR8flbv9EACb3f1C0H7NsaawtGxqM6YaxybMQjr1v0lHRvceustagqIibkO4d27q6naSUmynyXeqZd6k8DcCy8uxo8GxeD6G27Sg0e/SrlPpfSdWfVTlJSW4oorLsc11zhbmzfbZZOAmQTgZFzmmRrjmISU4pvxaDqu7BGubbdKD6LdcttPENl/APpHD8bIhLF6r5/fnTih1nC1Y+dOjIgbiSE3DsNNI27F9N/N0DtjEFIy75n/e6rOkoJERERERERERM2do+Sap1JisuyyzkH4aV8pSmZUyAy22RF7VTtc3KHmGrIl1xCdDW8XVWJRwff6sOCD7/GHLSfw7ffVerXPXpcE6yXlJJ2srZdK00aNLTi3Y1Zadd96Q9z04xv0EmtSPXHU7bfX2ZGB6brBg7D05cUYNHAggoOD9WFIzPVYsez/YdCAaJXKd7Lfm358o94DqLC2pyYkAGXtzVPaaHMPSgX6mExyLLmr/o6HHnwAPXte6TjGTp06oV+/KPz+0XSMv+fn+ry6SEBzoHYsi57/I1a+/hq6dXMGCImIiIiIiIiIWipbu98fsUuQzAhvATOHd8SsWzrphdKqtf8EB9mw9dAZjMz+FpVVQFinIKwY1xk/jmiHs1V2tA02glIPrSrHn7ef0sf/ff9F6H9FW217doz8y3Fs+ey0Pl+CY8N+0EZvh02qjq7aV4lfv12Bcm21x2/uiMdGdNLS2DF/y0k88f4JvYSbHJMZWDNVzr1UjREREREREREREZ07QUZJMKPUmCN8pc08dcaO4qNVqKq26yXMBndvoy/qc0kQBnY3Gs3/Z/Fpt4buZQvOIJjNbsPIPm0xcUAHfZh8fXs8clNHXNwxGCfPAls+PYPvKlVijbEps3SaczsyrZdq0/9r3R8REREREREREdG5Y9Tzg7PkmrBrE2ergX9+dgbHvrfjko5BiL2qrV6VM+lHIegUYsPXFdV4u+i0tqozCGaQrWjzJFKm/bl/aAf8MeECbeiEjNsvwK1Xh6CNttfsf53Ca4WVqLLGylwbXdMYx2VWCiUiIiIiIiIiImpOgvRImuIYsxshsm0lZ1DybRWkqa3hEe1w9SVBuPtHHfQkr+74Xi995mQNgElgzZiurrbhTLVdG7S/VVLVVJ+NW/u0Rb9LgxHkElAz1nHbkk7mmdVXiYiIiIiIiIiImoMgo7SYNcAljHnfnbFj5UeVetXPgd3b4PERnfQOCL45WY2cfVKf09qlgTUMptEn7fjjP04i9a0KbSjHlFUVeGnrSVScsuOasDb4v9suQFhHVXhOaPtxPRoZk2qiZmVQ5xIiIiIiIiIiIqJzLcgIhrmVB9NLnRmlxF7ddQrfn7HjgpAgjI1qry8q+PwMDn1brSd1ktRmaMzYnoTe/vHZafx9X6U+vLG7EjPfO4GtnxsdHFzXow36hhltuQnpOdNY05Uxz9MSIiIiIiIiIiKic0cVG7OWCLOWRgP+93013txt9DogbaWdOWvH5k/P4NvvPZUis65pBNqMrRnzZepMNfSSa6KNzYbLOjsPQZ/r2Kyxrqxp/JUF1u0TERERERERERGdW7a2vz9iN4JWRlRr5vBOmHVLJ5SfsuOBt8vx5t7TGNazLd66t4teJfSL41W487XjKDxyFhMGtMfLd4bq6z20qgJ/3n5KD4ltv/8i9L9CehS1I+VvFSgoPasHx9q2sSEmvA2eiOuEyy4I1kvEjVz6Lf5VekavcvqYNkgTcM9uOYEn3j+Jar37UOexybiMnZ57qTFJRERERETnzMnvT+Gro8dQXnFC3bsTNR9BNhtCO2vPnl0vQscO7dVcsmIeppakOedpW7vff6VaOjPCWL+X4NrNnVBeaQTX/rb3NC4MseHJWzriuh5tsfbj03gm/6Tem+iEASGW4Fq5HlwT/3YE14CvK6pQWaWP6r2NhrYPQqcQKTJnw7qPKzEppwLHvq/G49o+JbgmhzI/X4JrkrmN9taMcmvOv6fnXmZskIiIiIiIzgl5KP/k01J07xaGi7p0RrD0gkbUjFRVVePY8QocPlKGq68KZ4DNDfMwtTTNOU/ruUeCajLIfyVabcarpWdPmX+80o60d0/gxiXfYu5mCawZKbTPJX0QGON6r6PGVqq0eeZWLu0cjB5dgvShe5dgdGxrw3en7Nh66DSeeO8kvvneaLtNNinbks2YPYoKY4vy1xgzp4mIiIiI6NyR0i7yUN714i58KKdmSc5LOT/lPJXzlVwxD1NL05zztK3t77/SQ1lGmTDgxivb4tZe7fTSZm/tPYX9/6t2BMqM0JbRipqM97kkGHf/MEQvkbZy9ynsLZMiajb8MjoEV10crKcyGWsCJ07bUfxNFbZ8dgb/O+nc8o+vbINbtP1Kuk2fnka+ttxcZqwtjH1XsuQaEREREdE59Z99B9Dvmgg+lFOzJ6Vd9nxcjB/17a3mkGAeppaqOeZpR5trRmtm+iw1boTbjDFnSM3gDLA5w17OlMJcLvOdqcylzr/GmJHCui1zrrG+MI9Kgmtsc42IiIiI6FzatfcTDIi6Wk0RNW88X2vid0ItWXM7f4OMcJUz1CWqVSDLCG8Zf43/anO1/xtBL2M9qdRpVOx0riPLZJ4ZIjPKvhlpDWbAzNiWsaaRxvifsdTYnpAUxlS7YHNNIiIiIiIiIiKic8tR/tMIb5kBMiOU5ZxnzrVJnEtNCTP45kxtkL9GkM2YY4zLfON/xpgwpmWZsSVjm8b65lwzrYi6zLW6KRERERERERER0bliqVxtBsqMMTM0ZsxTS5wxLp0ZJLOuaSQxQmKug3BuzVjHnC+MceO/RjrrUmMOMK4/e3ghIiIiIiIiIqLmQfoi0JjBLDOcZYTM9MFuBtg0+oik0QZ9vozLTLP0mXN9mW8E0NSgdytqzDe36FiuLTOWyrQxbqQwt2vsaeAVbfDwTR31JUREREREREREROdakAStjKCXhLGM4JYLmxHYcjKCXeZ8+a9zGwYzrGaGzPRBS2+Q/TiX6FyWGePGMnMKGHRFW6y4u4uaIiIiIiIiIiIiOveCnrntAgy8oi1C9O53JaQl4SwjpGWOmQEugyMkps13Bt6MMJiR0pqi5l9Zxxk0czKXOYUE2/TSanKMWx+4GBEXs701IiIiIiIiIiJqPmx2qfdJRERERERUD7v2foIBUVerKaLmjedrTfxOqCVrbuevpUMDIiIiIiJqVQ5lY3SfRGQdUtNEREQUcAyuERERERE1mnxM7dMXETUGBrzEu/faMH6NmjAdWIC+Nhtsaqix3LRmPGz3vqsmFFm3/wJ8qibdedyfw6dY0L8vFhyQ8Xcx3nIMNfbjttx1m3Wt6yTHY/NyvOLT+X2d26qR1ttxuJHvy5F2vLamlXx253b6zvd2ROc5rwFrye/nT96Wc9PTuaKf1+a5Vuv5b81vTl7zaB352/qb4JJvbDX34y1f1bWug56nvCzXec+j3vO3VaC2Q42FwTUiIiIiokY2ZvE+FO+3DIt7YV5cX0RMz1cpzjMqgDZqmZp20B4gr34EA1bbIa3X2D95FrvGeHp41R7MZ6xA0s9+oqbVA722bpGadlHr/izWzMQjuA939pYH1eUY+Ik6Bnsxnt01yhJEkKDAKOzKKPZ4jN7XtdCO6RFvxyO0h/eI9AF4R9+WHe8MeAQRjmCF9+NwIZ9/zC48q46rOGMXRlkewN+9NwKPDHhHHfM7GJAe4T1QR02gFFlj+2J0Vqmabk6MQE9Ees3cJvlwFMxzSTtntSmP578lv+nqyKNe87fO+pvwLmbuftZxDPbVA/DI1ZaAstd8Vce6Dsb+vKsjj3o9DqtAbYcalfblExERERFRo9hiT7s60p72vpq0+mypPaG2ZYGi7+NO+8ufqekA2rlnvxqrp0+etUci0v7sJ8X2Z/vBnrRazRf6siS79pCoeEgjJF2/Z7WlhncmwI4J2lqrk+ywzNd525+FbKO2ZS7brXGMxrqRGS57dfJ0TBp9fxM8LzPV2K513/U4juKMSOP7cXjHnqR/J+7jhprpWz6/z1d3XvOU5PdA5bcS+8tjIu0JL5eo6cDz7zuR88XIKzXPt5rnkqfzVOjnv5nf6sijkrbW/G2SbdSal1y36zVf1VDL74Yci5Z/a3xeqzryqM/HEajttDIBy9MBwpJrRERERETnQs9kTBsLrF7rWnpt83Qv1Uf1KmmW5WOzUaIWiZKsRNd1D6oFVu7bsJaeU8umblTTjaH3NOyz78M0s8SKVe87cV+/FXjELOly4O/4y54kjB9tTJo+fesvwL134io1/ZNX7bC/6izF5sLb/hzexfJlNfdj+vS/u4ABkfr+ZN9FE8bDuref/CwJRa/+3VESzMq6rsOa8Ri161nM/Zma9kiOKRL3/dSypvp+lq+p6zikpItZvfNT/P3VIpdSflpKjJ9QhL+8pS1fsxwr+llKEGmu+ul9iFy23ENpHaov1zzpoSTaxnSX5Xp+1PNhPOYVAXsz4t3Wc69qno7Naom5rHFLu/0Ey+12LK8lr9TQOxIDsAtFLiUq3fJbHXnUa/5W3H8TXBVh555IDIyUce/5qibruqZ3MV5Kgj4+Xk175j2P1nEc2m+EWX27QduhJsPgGhERERHROdLrGu2Jbf9BR4BMAmuTsNit+qgZYNMenOPmo5ejiukGzOijr6aTh/hhGb2w1Fx3fxr2pM7HXrVcJw/tcbkYm2fZxv7UZlQ99SpM212M+16NMNoOunonnrUvd3molAfbmelwfZhsoE/nP4IVbg+vTrI/9+CUrzytqx7M35pWSyCAWo98LPg4TeU1bcibDmTEO4PXkh9TD2KGIz8uxhiZ3zMZayRvaj8PUekb9GVrUsL1VUqyctHPkX4flo7NxSS3IPu5YwRtH3nKGZbV85YaN3nPb/7w/pug788tgOwrT+u+e69U0XynjoA9nW8YXCMiIiIiOkd6RPRSYxrtQXvBqgQsnR+rZmhufkh7wC7CqrxSbflBHEQk+jlWCUfK/GT00Me1h/iMIoxZnIHh+rSIxULtYT5KTYnNL8wH0jOR0lPNkG2kJQCrco3SL/pD/T4svFlfeA5IW06jgLeMtoPs9vFYbnNrvFtKWk14NoAPtlKyC3j2cU+P+sbxSFtHPpfUcfC8btM8mEuQ0o590xm+axxFRpuJLiXIZEjFapXCoOVBa37uGYexkcDBYlWy7GAR9qIXejvyo1t6D3qkZFjyLzD8di3/FhVpvw1CW98SiDsXfvKq0c6g2bj+KNyHJLXM4C2/+cnLb4I09K+3R7a7/sFsj+uqUqfvNHbeGr1c+/1zf7FAzRmDa0RERERE50hJsaXepv6gnYtJLg/rRtUwnV6NVD3Uu5c00wNvCbjDa1CsFAf2O6uZOYbUXLX83DNKtFgfkn+C5auTsOJvzpIw7/7NtSODBpOqp9aG1U16taxH9M4JfApSWat+1rKuPKw3/MHcvYqaG/cqqF4MuNZLyn4DtT2RZ5GW0mbWQZU8c2GtxmnJz0IPnht5vj5VOV2qmjaj/GswArtGcFw7/38K7MIARJr5q7b81gCefxOMqtEReucEvgSprPmqlnXNjkEaWurUax6tI39bBWo7FBAMrhERERERnSMHPy5C1Og4VfpMEzkdW2o8sDtLogyfL9OqKqc8WPtRnbNGz6X6YC3x1ozpPWzW3jaaP9596pGabTVJcGzGQBR7aAfqqmsHALuKtMdvJ3m4j+yvnmRrXddo+wx7HkGEKtVjG7NCTXvq5VN7OO5XhJ3WYIzeBp0RqKjzOByuQqQk/a9LSr2dJv3hO3IgIvfsdOmFUW/jqR5BOvLMCIKlAtaq3C7/POFIWSXzF6NXjbbVPDECdcPWJDh/JxYnqGXNk3t7YR7zW0N4/E2Q4FgEds7z1Fab93zlbV39s2j/e+RqlX9to7BCTXvqEdV7Hq3rOJwCtR1qXAyuERERERGdCxvTMWlVAqaZVbh6RSKqKBfrrR0YeKQeyOWh2qzOqcvF2+4dEeil4Uzh6N2nZgcKzYnRkP4jlkCTtE/mLJUiD7fImBvAqlJGw+rPupQk0x6uZ2j7nFdL6ZTRc/EsHsEoR6cL8nBvNijubV3XEj36sDoJ6PesxyCenn5eElaMMRo1FxKYcAQq6joOR4cGwE8efxZIH+X4Xl3akeo9Dc9OWIFR9zr20oA25sipFOvXFOltptVdzdqozrklPRJ71+TV3n7axlysRgKWrjKrgzdz2jk5Kt1aBdRTfmsYj78Ja2ZqOeNZzPUYhK8jX3lZ96rp+1zzr/0dJCESz9ZWutVrHq3rOJwdGjRoO9RkGFwjIiIiImpieo+gekPmlhJjentMRZj3kGvj5Junq94AD2Vjam2lWsyeR1Pdeg50qzKmt8+0KtW1N1DrdqWB9T6N3FuoN9Jr4Cf34S+WkiHONsuMtppqa7TcL3pbTZ4fQleMMY/BHMzSZRIkewcD0s1OF/6C+z5xDY7Vvm49jV6O4oxdGKW2MwrvWErT1H0cDvK9rh7gKHET8ep9KLa0I+XaTtYo7USqR2+QVAsjmL3342I1LSXZ0lyrhW5M95LXaq6vB+BxEAccAXj3PG6UbGvc3kK9k6rPxnnk4Zz0kt/84+U3wVpC1BzMALLXfKXxtm691JFH6zoOh0BthxqTzS4hVyIiIiIiagTysOveyLlm7GIUe2y4vBRZY13bZZKSL3q1UAl8xVl7/0zAUrfqnHpvo6vUhCzPi8QCvXfQHGcj6NoDvWs7TZbtqH1Ij6R1lbbZtfcTDIi6Wk01AbO6pR8Nk3vmrP7FQFLrF7DzVc8jbnnKQfJ7Jvo5lrnm/6j0xRi7JhWrRqs87Z4XpVq4tVSaJc+bvwNGr8DmD4SWdxcDk1Kh8rCxv4Pmb0YdmjYPN0J+C/hvArUkTX4NqgODa0REREREVG9N/WDz7r02LP9ZAB/MDyxA35/Cr14EqeVpbg/izUGTfieNkN8C/ptALQqDa0RERERE1OIxWEEtCc/XmvidUEvW3M5ftrlGRERERERERETkJ9vWbQUsuUbUhIbEXK/GiIiIiFoulnqhloTna038Tqgla27nL6uFEhERERFRvfHBnFoSnq818Tuhlqy5nb+sFkpEREREREREROQnBteIiIiIiIiIiIj8xOAaERERERERERGRnxhcIyIiIiKieguy2VBVVa2miJovOU/lfCVXzMPUUjXHPM3gGhERERER1Vto5044drxCTRE1X3KeyvlKrpiHqaVqjnmawTUiIiIiIqq3y7pehMNHynD0m+Ms/ULNkpyXcn7KeSrnK7liHqaWpjnnaZtdo8aJiIiIiIh8dvL7U/jq6DGUV5xANR8rqJmRamNSukUewjt2aK/mkhXzMLUkzTlPM7hGRERERERERETkJ1YLJSIiIiIiIiIi8hODa0RERERERERERH5icI2IiIiIiIiIiMhPDK4RERERERERERH5icE1IiIiIiIiIiIiPzG4RkRERERERERE5CcG14iIiIiIiIiIiPxkW/hetT1nlx37vgBOV6m5RNRg7YKBvlcAiQNsSLvFpuYSERERERERUWti6/xQlV2NE1Ejie4B/L+JNlzVlUE2IiIiIiIiotaE1UKJmkBhCfDLVxjHJiIiIiIiImptGFwjaiISYMt8nwE2IiIiIiIiotaE1UKJmpBUD81/hDFtIiIiImqYsrIyHD9+HKdOnYLdzkc6Imq9bDYb2rdvjy5duiAsLEzNbV4YXCNqQtLJwdHnGFwjIiIiIv+cPn0an3/+OTp16oRLL70UwcHaDSYRUStXVVWF//3vfygvL8eVV16Jdu3aqSXNA5/yiZoQe+QlIiIiooaQwNpll12Gyy+/nIE1IjpvyO+dvFC44oor9N/B5obBNSIiIiIiohZAqoKGhoaic+fOag4R0fmlY8eO+u+g/B42JwyuERERERERtQDSxtrFF1+spoiIzk+XXHKJ/nvYnDC4RkRERERE1AJI5wVt2rRRU0RE5yepIiq/h80Jg2tEREREREQtAHsFJSIyNLffQwbXiIiIiIiIiIiI/NRowbW377fh+MIgHP5DENanBeGWa21qCRERERERERERUesQkOBa9wuBP91tw/45QfhsXhDuGmhDkLZlmw3o3B4YGgG88WsbFt1jwwUhaiUiIiIiIiIiIqIWrsHBtQdH2PDP9CD8cqgN3UKBdm2ANsFqoUU7bV7S9TYs+FnrK8F293U2fJERhNVTGv7Zfv8TG44+F4QX7mFJPyIiIiIiIiKi5q5BwbX7brThd7fZcEknNaMOwdrexv7IhtRhdQeOJFBVnhnkMvz3qSAM69P8gk5J1wOlx4Axi9jAKBERERERERHR+cTv4JoEuabF29Clg5rho47tgDt+5FuA7IvjwOhFdoSmVet/xZJf2JpVgE1KmvXvbsNz7wUmsPZ/79rR9eFqPPg6A3VEREREROfMxnRE9ElE1iHrdDo2q8nN0/siYmw2StT0+UT/7NPz1RQREfkdXPvlEKB7FzVRTz0vAW7opSZ8tGW/Hcu22RHaHvhxbzWzGZBg2FUzqvHXfzMYRkRERETUGEqyEhHRp6/bYAl8UU16MND9O3MOo7NKVUIiImoov4JrvS8FBva06R0W+ENKu115cf1XPlhm/L1cBfXcq45a2zyTEmXSDpq0XSZ/PaURUgpOqptat+Pe3tm/HgtyDNZteNu/ud28qUZ1VjONbNtso806z2Qet/w1uaeXNtnM5fJXps1lzbXqLBERERFRg0ROx5b9+1DsGHKQ0lMtaww3Z3jdx/D52jGsSkYPNd3s6Mevvqu86YhCJGbkmd/dPqxJCVcJiYioofwKrvW/woaLOqqJWnx6FNjzhedh8347CkvqX9KrV5jx98vjRsCpfRubXmVUhj+st+OGXjaXQJV0rnDnABse/ptRtfTVbUYaMzAl23g9xYby7+GyHZnvHoS7thvwr8+M7Ujbar7sXwy4EkaJOy2NfO57hxhpFm12zpNjlO15Iscq6bcfMtLL8H6R87sbdrVNr0Iq882qs/MTPW+LiIiIiIiIiIgCy6/gWkhboK2HHkGt0t6w44Y/VHsckrLs+O8RldBHEnyaMtymdxwgVTGlGmZ8ZrVaCvzzAHD0OykRp2Yof99lpBV/22GkiblKn9Q7Iig/BUzPcQarZNsfHrSjz2WubbtJ+2+yvsnX/cu2ZJtixb+A7yprzhO1VXWVDiCKy1w7S/j5y8715RjMzydVZ/d/ZUdoB6PkHBERERHR+UBvA8xS5XHqRrVAHMrGaKlCulH+mmlU22kuVSed7anp3NpYc1ez3bF8THVsy8P29OOwLDfba1PzXY65ybgfs6eqtm5pPLa15udnJyJqJfwKrlWeAc5UqQk3ndoB91wH/OASYM0UG44vdFZZtA6fzAnCLdd6DwBd0cXYhqT/8y+M0lvXP+0MaEnAzawuKekkvdXps0Ypt9p0C7XpwSgJSlkVfAqEtHFWPxVSus09XV37r83n36iROkiATAJlUmLOG7O6qgzDGVQjIiIiovPJoWy8fc0GZxXIxQlYneoeJCrCvEzgRT3NBsyIzMUkCfJkRqqqpmpeAxrpL8nKRT9LtculY7XtOYJI+ZgaNx+9FpvLtf310RecO3rAKxUH063fXS/Mi7MG+iRo5ppmyzWZmLRKLVZa3Gcnoia3Y8cO/PnPf/Y6SJqWyq/g2u4v7Dh2Uk24kXbYJMCT+XMbUpfb9WqPdg+xoROntd/zb7wHjay9hcpgLb0l1TYl4CYl08wqkZK+qZzr/QuzvTVhfkfyfRMRERERtTpF8zHMU+mnnslYaG0/7OYEjEER9hxU07pIzHjebB8tHClpCZ7nrcqttaRaXXqkZLi0zzb8dm17RUXQD+PQQe1vJPo5OnXT9jdf7Vs7/jX792HhzfqCJrP5hfnYO3axa9trN2dg6VjtWWetEWQsycrE6sjpeNGSpkdKjp7Gyu/PTkTnjUGDBulDbepa3tz5FVw78DWw85DnoJkwA2wvJtnwwIqaATYZl/VlO/6QEl1SbVO2K+2N+etIec3qn0KqjVZ6KfUWqP3XRUrKSYm563/guTSaHKdURbVWayUiIiIiapXcOzSwdibgUu0wFavVbO96oXeAO0Rw6dU0NVfN1fRMxrSxRXqpMM/VKptaKQ7sB8bcHqumnfTA2P6DeuDy4MdFiBod51MgrOV8diI6V2oLoLX0wJrwK7gm/t824LCXklreAmxHyoHXtxvj/jCDTlKt0zQtzqhGWh/S3lloe9cOAKQ0mHRM8F5RzeqipkDt3xer/mNHRJhRUs70xq+MThmkeqkcv1l91Tx2IiIiIqLzhd72WVwuxjqqJS7GGLWs6Rhtjg1bk+AMAC6W0nFOeu+iUiVyf6oRgGo1gabz+bMTUX25B9JaQ2BN+B1ckwDTok1GkKk2ngJsFaeAVz60I29fw0pbPfeeHeEXwdHWWIe2tnpXy5SOAKQnUet2fnurDX/Utl1XibRA7N8X0nGBHI8Ezcx9/aiHTe9AQY5ROniQ6qkyf8IQG3Z9rlYkIiIiImr18vH2KmDM4hyXaolNbmMuViMBS62l6TwKR8oqFXxqQBXUhgtH7z7O6p9Wm9fmAn16OT7H3jV5bp0PGKXeHFrcZyeic80MqLWWwJrwO7gmFm22Y3auHV+VqxkeSIAt8nIb+nW3YfxfjA4Jnl5Xd2BN2le79vHqWkuPSWDsinSjnTEZ4hZW6+nNdtkkKCXLzV41hWzLmka4b6frw67rCDlma0cKoq79e9uXNXDnPs/Tccu4HJe5L+v3IsdlnW8eR23fGxERERFR6xGBfpHAweJSNS0l2XytFhpAvSIRhYM44OhEIR9TrVUjD2VjapbzGF2oKq1N3Vvo8AenI2pVKkZbj2tjOiatisSMB43qonqaovl4wJKmJCsN84rUhGjIZyei81ZrCqyJBgXXRNY/7Ri+oBr/b6tdr+55VsWg5K9Mv7rNjjGLqrF+rx3fVQKHvzWWExERERERNUw4Up6fDmTEO9r7evv2c1AttGcyXkyH0a6Yfhy5uMOtauRByzFGpAJL92dguFp2TkhHCnmu351xXJZSgB7SPIBM1w4NWuJnJyIKMFvnh6pYxImoCUkVXiIiIiKi+tq9ezf69++vpoiIzl/N7feQT/lERERERERERER+YnCNiIiIiIiIiIjITwyuERERERERERER+YnBNSIiIiIiIiIiIj8xuEZEREREREREROQnBteImlC7YDVCRERERFRPNptNjRERnd+a2+8hg2tETajvFWqEiIiIiKie2rdvj6qqKjVFRHR+Onv2rP572JwwuEbUhBIH8G0jEREREfmnS5cu+Prrr9UUEdH56ZtvvtF/D5sTBteImkh0DyDtFgbXiIiIiMg/YWFhOHHiBE6ePKnmEBGdXyoqKlBeXq7/HjYnDK4RNQEJrP2/iQysEREREVHDXHnllfjiiy/w5ZdfsoooEZ035PdOSu5+9dVX+u9gc2Nb+F61PWeXHfu+AE7zt5koYKTzAmljTaqCssQaEREREQVSWVkZjh8/jlOnTsFut6u5REStj3ReIG2sSVXQ5lZizWTTfoj5S0xEREREREREROQHVgslIiIiIiIiIiLyE4NrREREREREREREfmJwjYiIiIiIiIiIyE8MrhEREREREREREfmJwTUiIiIiIiIiIiI/MbhGRERERERERETkJwbXiIiIiIiIiIiI/MTgGhERERERERERkZ8YXCMiIiIiIiIiIvITg2tERERERERERER+YnCNiIiIiIiIiIjITza7Ro3Xy9cVwMjnq3HgazVDCQ4Cel4M/GKIDQ8Ms6FjO7WAiIiIiIiIiIiolfE7uCZr/W2HHQ+9YcfJ02qmm2u7aWl+HYSel6gZRERERERERERErYjf1UK/PwO8srX2wJr47xEg+f9V49hJNSPASo4B1zxejdlr/IoPOnx4ELg8vRortzdsO0REREREREREdH7xO7j2vxPAwTLgh+HAuoeCcHEntcDN9kPAy/+oX9Dqniw7QtOqPQ4SBJNgmPjLP+0YeKUNs0fbjBlERERERERERERNyO9qoVJq7NY/Vuttr3VuD5R/D1TXsqXBPYHVU4JwQYiaUQ9SKm3TfjvWPBCE0A5qpkYCbL/5azXe1ub3uEjN9IGUTpu12o73flu/9YiIiIiIiIiIiNw1uLfQqmrg25O1B9bE4W8R8KqhN/QCdvyeATIiIiIiIiIiIjp3GhxcOxekNJu1qqinNtfc00hVUxlSltnx5XEgana13l6blMCTUnB9ZjmrmwopiTdsgXN9Gcw22cw22sz5kk7Sm+paTkRERERERERErYPfwbUgGxBsaerspt7AivtsuLyLmmHRpQPQoa2aaCAJhn1XCZRnBumDtPe25B92l84IJIj2+r/t2DvbSCN/u18IvJ5iQ9YE4xhl3sdPeS75Jvu47ulqXNHF5tiPrGf6+y47/vWYMb/0GeMrnLzc2L+sK504ZI4z1pXlg69km3BERERERERERK2R38G1K7oAc++wIeoK7e9YG/76qyCs3we9DTZ3l3ex6QG2QJBg2LN3OYNV/bT997kM2PelMS2lxnYcsiP7l87Amfs6dZGOErppn2/JeOc64wbb9EHItsxtSztwI/rY8MVxu146reQbQFqxC7/ISCvLF/zM5tJeHBERERERERERtQ5+B9dsNuDOATZs/V0Qbuhlww0Z1fh/W+16G2zueoUBbYPVRABI6TCp0ilVLsMfrcauz9UCTekxOy6/0Ai6+evjr4yAmbeAmLVH0+fec5aak7bgBvW0YeTzRlVUIiIiIiIiIiJqvRrU5trJ08ATa+wYmVmNQ/9TMz0YdKUaCQBpS03aS5szxlntckAAt18Xsz01YVYZffhW11JxUv1UjktKs0nwjUE2IiIiIiIiIqLWye/g2pkqYMrrdvzxPTtOa+O16dgO6HmJa/DJX1LtctN+ux7MMqtoupPqmF9+C+z5Qs3wwzWXGfvx1AnBhn12vRqqtcqoJ1Lqbcs0o622nZ/b9dJ2RERERERERETUujQouDb6h8Cie2xehxeTbBgYoJJlErCSTgak2qZJqmRaq4Wa1TKlUwEzoCV/H3nTKD0mwTdpE03aRqvNfT+24chxZycFQjpMkKHv5dCXHT9lzJeSbNKhgkmmJeBIREREREREREStn9/BtfJTQOVZNeGFpJG0gZKRaJQEM9s7q9C27V4tVKplDrzSplcflTTy9/ofGMusbaJJu22eSpRJZwXv/TbIZT+zVtsxtJdRYs667cferkbSda6l2DI2uK4n2zI7QCAiIiIiIiIiotbDZteocZ8d+BoY+1K119JfVj0uBlbdH4Tel6oZRERERERERERErYBfJdfW7bXjcD3aEJO0sg4REREREREREVFr4lfJNSI6N8rKynD8+HGcOnUKzLrUXNhsNrRv3x5dunRBWFiYmtu0mDeoOWLeIPKMeYPIM+YNIs+aQ96oC4NrRC3A6dOn8fnnnyMoKAgXXXQROnXqhHbt2qmlROeWnJ9nzpxBaWkpgoODceWVVzbZ+cm8Qc0Z8waRZ8wbRJ4xbxB5di7zhq8YXCNqAQ4cOKBH6sPDw9Ucoubpq6++QkVFBXr37q3mNC7mDWopmDeIPGPeIPKMeYPIs6bOG77yu7dQImoaUjS7qqqKFzpqES677DL9fJXztrExb1BLwrxB5BnzBpFnzBtEnjVl3qgPBteImjlp84AXOmpJ5HyV87axMW9QS8O8QeQZ8waRZ8wbRJ41Vd6oDwbXiJo5aUxU2jwgainkfJXztrExb1BLw7xB5BnzBpFnzBtEnjVV3qgPBteImjk2i0gtUVOct8wb1BIxbxB5xrxB5BnzBpFnze28ZXCNiIiIiIiIiIjITwyuERERERERERER+YnBNSIiIiIiIiIiIj8xuEZEREREREREROQnBteIiIiIiIiIiIj8xOAaERERERERERGRnxhcIyIiIiIiIiIi8hODa0RERERERERERH5icI2IiIiIiIiIiMhPDK4RERERERERERH5icE1IiIiIiIiIiIiPzG4RkRERERERERE5CcG14iIiIiIiIiIiPzE4BoREREREREREZGfGFwjIiIiIiIiIiLyE4NrRERETaIUWWPTsVlNERERBRavM0RE5wqDa0Tni0PZGD14LrZWqem6FGVi2NhslKhJolaLeYOodpWlWP90MuIHxyB6RCyi+8cgJmEW1pep5UTnI7luRGp5YUQ8hrkN8z5QaZpCWQ4mRcZiXqGaruEoVqb0RczTtSYgCizJG7XdI2nXk81Z6bhrRAwitWvJsNgYRGh/45MzsP5QpUpUu8pD+cianoSYwQMQHRuv/e2LyJgEjJ+Zy3syahYYXCM6n5SvwKtrK9SEN5VYv3hJs7hQbdUe6pYdUhNEjaUF5g2iRldVjKx7kvB2n1lYU1CAwk35KNxdgPzsZAzspNIQna/6pOLNTRuwxW2YcaNa3hQuHoYHn3sev+qvpmvoihH3Z+Kl5Gg1TXSOFOdgUlwSXj2RgGfeKUCRdi3Zkl+A4t35WD6tFzZNjsVdmYUoV8ldVWjPAwmImZKP0F8+j/ztu1CYvwEF2/ehKP91PBkfptIRnVsBDa4d+h8w8P+qET2nGge+VjOJqPmIjERp5lLsVZO1OpKDl7+OxkA1eS5VflOOut9lETVQC8wbRI2tLGcOXvjhfLyUGIGQYDVTExIWgbCOaoKIzp3grhh4ezTCLPnTXdigOAzspiaIzoXyXNw/dgWinn8HS9Ni0dvl+hGCsH6JeOad1zFySzLuX3lUzXfa+fQoTP0mDfmrZmJcv67aGhYhndE7NgY91CTRuRSw4JrdDvxpk10PqhVreeLZPLs+71wr/x4YtqAas9cYB2NO35PVeAfnvk+i5iMWw/vm4OWN3sNVWxcvRti9SQhX00StH/MGkbtT5eXoEd5dTREREdVXJTbPyUD5rCWYFt1ZzfMgOAIpr8xB6Jw5WH9SzRM75uL+beOx/Jk4hHoJIhM1BwELrm0tBpb/yxlMWvUfO/5xwP/gkgSmJEAlgSoiCpRQjEtNxK6Xc1Brczkn8/Dq9kQ8GB+qZpikkdxEZHmsopmPqX3cG9CtRMnaubgrNlZvkyRG+3vX9BwccItdlBeuwNQ7jTTDYmIQPW6JXnqoZEWq3nbJ1HVFeGGCasskZYWqjqftT9pzKC9E1pQEbVksomfn60v0/eZnY+o4tY6+zQxsPqYWm7R1l01P1I5L0mlpYpKwqEgto/NQQ/KG8PG8s9g6OxZTN6oJh0qsT4vHgj1q0nQyF/fHZTpL1h0rwkppB0v2Jed/TALuX1GsrW2xMR2js0q1Uz0b9ydo6WJj8ISZTXzMn3R+u7R7OA7sqq2ajpuqCuxcIW3pWPPAXGy2Zqhj8rubpJ9vksY471Zgp3s+4blLrYE/v9N6ukTMy1fNFBzJwxPquqKf67PzUObSPmjdHRiUZCW6XWt4n0RNSLt3emNTPB5M7KpmeBGagJ+PzMPblhedm/+ag4GpE9G7HoG1srwMjB+prhHa+R3/mJZv1DKixhSQ4NrJ08Dcd6txwnK1kPFn1tn1Zc1JaAdgy7QgvJ5iU3OIzjORkzDt4sV4YYeadrP35fkoSxqPqAa9HarE5tmJeHR/ApZuykfBpg0oyM/DH4fkY/w9lkZOj+Tg/ocKcftfjDRbCgpQ8MwoXKot6pG0WG+7ZOHISDy4TLVlkpVkKfZ9GFmzV+DSWbnasnwUzo41Zh9agQUbwvHgK2odbZv5vzqK3020Nq56FCsffAg74l/RjkvSSVtCczHmIrWYzk8NyRs+nXeuhsYOwfq1joiBoaoAazeWYvO2UjVD2ZaPfSPjEaUmNy/ORPmI+Vgj+5LzP/959HtzIn7nXvKu9BU8/moYnlqlpcsvwJN6NvExf9J5LyQ+DdO+nIW75uSj3FuHH1XFWDn5HrxwMglL33PmgYJFSYgy22aT9na0B/ivE59Hfn6+nqZA+7v07kq8MC6pZtuaPHephfP1d7py3/OY+mY4/iDnup5uProsvAcLtuVh6gMFGLHEyFNyrj9z+WKMf6GBES7eJ1FT2l6A9bExGOrjc0XUdTHYuss8xwuxaVMsbh/mUhHUux1zkfBSFzy5Sl0jCvKx/FcD4Om1KFGgBSS4tnKHHduKjfE/3W3TB/HhQeC1AlaNJGpeOmPMhHisezXP9e2p0B7sV+bGYtrPfXi75M2O+Zh3Ih1L06ItRbhD0CMxEwt/+DqyzODFvgKU/TwVt1lu1kIiwuFTs6T7c3A8bg7GuLcj0jMZC+fGubTnEBqXjgc75mC1+p3SdowPvx6PB+MsxdM7RqAH2yQ5zzUgb/h03rkZEovh2oPUTjWp25KLsomTEZqv5Q01S2xeW4gxt0WqKWD4Y4uRMsTS7khIBKakx2Nzrmuwbm9OOW6fm+DaHo+v+ZNIqun8LR8z2mQgdkQqsrYdrZk3NCXZ07HsuuexNMV6TmlnlaNtNu1BfXYmejyzAtOs560mdFAylj7TFy8855rveO5SS+fr7/SB3d0x7UlLlTdJ92BfLLp3Mfr9cSaGO+6RQtB7QjJ6vb2h7vZBveF9EjWhsiOl6NHd98Y0wrqGobxclZc+WYqvtaeCcJc22rwr2bULA381Eb2dGQ9hEW7ttBE1kgYH1744Dix8z46z1cZ0h7bGIKrtwIub7Xqahlq53Y5rHq/W/16eXo3QNGOQaSsJ6FmXP5nrutxTe2jmPHMd63ZLjkHfrzlfxmWeVV37FN72YZJ24MxBlpvH6H4M7tVlZTvmMhkasz05aiWGpOLBr+fD/eVnWc5ibE1I9PntUm12vpuPoXfHeryQDRwciZ27VKmcy7ujckMeDngrEVGbqjjcHu/rpbIreoQX45PP1KR2oe5RtQHrawt60PkroHnD/bxz01E7h2PysclSBXTz2jKMHD8eI8/kY6ujzZFCbCqMxYh+arI2Wn7qcbDUtfROXBxuc7sp9Tl/Eongzhj+WC4KliWiRHsgj74n060aZxFWLg/HryZEqGkPyrZg1fFkpAxS0+4GJWLcR7mu7ezw3KXmbv9iZzVox5CBrWqxRx5+p0Njh9UsEd0rElF94jG8p5o2deyLfp0ON0IVN94nUeM4dcKnhgU8O1aG0m5h9Sp1Js0Z7MzL9605A6IAa1BwTTosWLzFrndgUBtZ9lyAOjf48jiwSNvfx08GoTwzCA/fasOs1XZHsEuCXIlLqpE5zqYvl0ECe7s+N5Z7Iute93Q1rujiXCdrgrPK6Js77Mj+pTFfhoFX2vCLpc7gli/79LSPdQ8FIW2lvUanB+/stuOn0dDTzB5t09e99Y/VmDPGua5sZ/SLxjHI/meusuvbk2V7Zweh+4VqY0S16opx90Zi5RsFaloU4dVXQ/FgsrN0jH9K9QecVb91v+E0hvgFRUClakskMg1v/uog7huZjHk5Rd6rHbmLjETf2gIdlUexd2025s1Mx3i9DRNpu00t00Vi2rJkfDI5HuOfzsFelwdFOr81IG/Ued65C8HQYd2dVUCrCrDpq1gM79YVw28pxcZtxmzs2YKdsQk1eiitLC7AssxZeHRKkpG/JiyuUZohqq/7MdcjfxJZhPSMw5O527DhrsO4X9p4Mp9cyvZhZ2g0BngrWVBUiK19ennpzS0CV/ctxdeWiAHPXWr2+qTiTb3Kp3VIx1C1WPjyO93j8lpKRAe38xBI1uY18AWojvdJ1ER69OyFksO+v/goO1qGHt1UHZbuvdBr/0Ht1993IbfPxUs9sxGbkI6s/FKPpa2JGkuDgmuFJcCr2+qOmr25066nbahO2hXm6TuC9HbTxH0/NoJgWw8axyC9lQ7vY8O4wc7g2JLxNgy4Uk148Jd/2tGti5HOJOub2/jtrTbc0Esf1Ung68hx4PgpY9qXfXrah2xz8k02bNpvdymFJuuNjHKmk3UloGfd/m9G2PDlt9rz1hfareYxO2zaoh4XG8t6XAQ8e5czLVFtQm5PxbgPMrHsiDFduXYxVg5OwpiANEpgaSfNw7BmivOhKSwhA1ty5+CGY9m464YEPJHnJVrvg/KNsxB/j7w5HoIJabOwVG/DRNpuUwlM3RKwMG8NnrmxHC9PiEF8jUaC6XzlT97w+bxzExYbh5D3841SCIV5OKBNSwCix5BYHPygUOZi7/p8DIzTLj6mqmJk3ZuASW8cRO/b0zDt6Wwjby1LdbTJ5p3v+ZPIlVTBzMCb9x7E1Ezj/MTJ8iYsIcBzl1qIBv9ONx7eJ1GT6h+DofkFrk1g1KoSO7V7nwEDzN/yvrhhSCF2uHfy5FVnDExbgcJlyQj9QDvX41KRVcgXL9Q0/A6uVZ4FnnrHjm9OqBnK92eMwUrSSFpZpyFC2zuDSO4kQPXFcaPUV318/BUwoo/NEbDzREqXmVUuU5Y5g4m+7rO2fcT3teG7U85AnZBSadZ0sq6UZrNW+xz5fDUqVBheAnESuIua7VrVlahukfhVWhiWLZf6b0ex8tUyPJgaYyzyqD1CtXPNI+3hyvlmKBy9+xZhz3416YuQcAxPycCG/Odx6QtJkAII/inEgpmVmPG3DKTcHokeYZ0db3grPd4Qag+KsclYmJuPF8MW466GNhJMrUR980Z9zzuLbrEYeTIPm8qkyttBjIhT7ZL0G4aB27dgL0qx9YNeGHGdMVuU5czBqtjFWP5YEob26YqwUFW2oeq0D29o/cifRG56RPRytonTsxeiiotw0Nu5HhmNofsPeulwoBif7AvHpV4b3OS5Sy1Hw36nGxPvk6iJhcXj5zE5eDnXhwDXES3dvxNx7zA1ja4YkdAdWS/l1v8lzkWRGPdYNrasTMSeB2a6NjtA1Ej8Dq5t2GfHPz6pGcz5zV/t+uBO0r5d2LKCP2ZbZ1K6rPQZo9qltcpoU5Hqr2aVUHP4MiNIL/1m9n4q1UFf/7drW21EdQm9Xbvpy1mM9TuWY9mlyRjntaHaroj6UQV27K55W1i+MQ/r1bgYnpCErcty6t8mSEgEbotvh5Iv1bSuAsd9feF0eBd2XtwL4e5VJspz8fZaNe5RCHrHxSOkNPCtmFDLVK+84fd5J8Ix9ObD2FSQj1W7ojHU0b5ONEb0eQfr8vKxqUecS1tvez8qQK+eNRsH3vtWDg6ocW/8zp9ESuXJSoSGmkU5YzE2cRveWOvlhzpsGMZ2ya61w4HKjdlY+cOEGm2sueO5Sy1FQ3+nGw3vk6jJdcaYaQ+h9LGJyPLWhl9lMRY9sBjhc9Mw0HJ+hiXO0nutHu91ZS8uisXt15WihKcuNQG/gmtfa/dPc9+x47TbGw6ptpn7oE0fZNxK0krba7JuY3pL1VIwSakwqcZZm2suQ42qmSazuulrk5xVUT2pa5+17UMClBe0B7poQ228HZ+VVAf9+CmjHTpf0hPpgmPw4INl+N3kfNyWGqfdOnkXddc9KM2YhfWWtjfKd2Ri6vZQ3KamdUPS8IfLMjF+Zh5KLLG4yrIirJydjmWHjOmStdlYf8iS4FgBlq0Nww191bSm1zWdsfUjVVW0rlJA3eMwNng5Xsiz/NAcK8SC9AKE3KimxeE8ZK21tMNQVYGtK9Yg7DrLjun8Vp+84et5V4uoW0Zh38uZ+HpYvEt1oaE3R2LzCzkIjXNtwH3ozQnY+tISHHCcwJUoyUnHgiPR6K3meOVj/iTaumQuVu6x9hBaibJt2bg/oxQP3usstj/04bkIybgHj1p/VzXlO/KwU3+g6Ypxs5Ox94EkLHDrcVSuIeOfBv4wp+5rEM9daika/DvdWHifROdCRDKWvzwAK8cm4NGcIpRZLwJVlTiQn4lJcROx4+5XsPBmSw+1QnqtfiUbw9+/BzGp2dh6xLqy5uRR7M3Jd7RluDMn26XTncpDOXh11wAM9L3DUiK/+RVc+3O+Xa+uWF+yjqzbGCT4NWWYTa9Cae2FMz3HrneEUBtpt00CYZOXO9eR9WUIv8imd8RQ8o0xX0qySQcKJl/36Wkf0hHBkn/Y9fW9Be6k6uh+7Xt77j3nunIcj7xpTJvHSuSvsDuSMTw6Cff60lRNT+3i+Hwk3r4nBtGxRgO4k9b0xR9muT8UdcbwZ97BMz/IxX2xWlppxDc2FqPT1wA/n4UJqnTOpT1CsXZ6LKIHxxoN/U7OQe+5z7uUEuoxLh0D37wTMSNiEZOywku1IhGuXYDn4tKXb0V0jHF88TN3YcTTc3CHoyt7zUXhCN2YjpjBMdp2tXS3TsYbfebipXG1NCpM5yXf84aP511t+g3D8MMV6H2L645ChsUhvCgct9/smrtCbp6D5XftwwNa3tLP3xHJyOr4EF56MLLu4ITOt/xJFBUTgZ0LJiJ28ADt3I5BRP9YjF9Wjl+tzEGK9TwJjcXC3LmIkt9VLZ3kgRjtnJr013KEdFJptIerN9el49Kch9zShGFGTgaG+9TeJ89dahka/jvdWHifROdG6JCZ2JA/HwP3Z2B8nFxPtHNrcF9E3jAaj64Jxb3L8rB0XC29TodGY9rr+XhzbDlefSgO0ZF9teeQGERGatsYNx2rKsNwqUra46IyLJDnFHV+j55dintXznQpDUfUWGx2jRr3yeFvgbg/VqNU++uP8AuBvN/W3aOlVG2UElhrHjBKjUkASQJb72nrSiktYe1J02zwX9JZ20V77mc2LCuw622eSe+bUqJLeto0p4W5HTMgdnkXOPYjx2EGtmR+aqwNi/Ndj6OufQr3fUjJvpzJRtVO0z1ZxjZeT3Gtemr2SHpCBeqt67rvWzpEML8zah12796N/v37qymilqEpzlvmDWqJmDeIPGPeIPKMeYPIs+Z23tY7uHbyNPCrZXa9tFZ1vdYEgmzAqP42vDzBho7t1Ewi8ooXO2qJeCNI5BnzBpFnzBtEnjFvEHnW3M7belcLlaDY8vts+HahawP7vgyyjqzLwBoREREREREREbUGfvcWSkREREREREREdL5jcI2IiIiIiIiIiMhPDK4RERERERERERH5icE1IiIiIiIiIiIiPzG4RkRERERERERE5CcG14iIiIiIiIiIiPzE4BoREREREREREZGfGFwjIiIiIiIiIiLyE4NrREREREREREREfmJwjYiIiIiIiIiIyE8MrhEREREREREREfmJwTUiIiIiIiIiIiI/MbhGRERERERERETkJwbXiIiIiIiIiIiI/MTgGhERERERERERkZ8YXCMiIiIiIiIiIvITg2tERERERERERER+YnCNiIiIiIiIiIjITwyuERERERERERER+YnBNSIiIiIiIiIiIj8xuEZEREREREREROQnBteIiIiIiIiIiIj8xOAaERERERERERGRnxhcIyIiIiIiIiIi8lNAgmu7DwNL8u34+CvgxoxqfZBxmSfLiIiIiIiIiIiIWqMGBdcqTgG/fs2O+Mxq/OAS4I/vGcE0GWRc5skySSNpiYiIiIiIiIiIWhO/g2vHTgJjX6zGX/9tR5/LgI4hwNo9drXUGJd5skzSSFpZ53y2crsdoWnVuDy9Gh8eNOaVHAOuebwas9c4vzui1qKyuADLMtMxPiEe0f37IqKPGvrHYNi4dGStLUJ5lUrso8pD+ciamYz4ETGINLfXZwCiRyTh/swc7NXyVKA59hkzwPkZBsfirimZWFlUoVJ5cSgbo831xmajRM32qjwfU29Q62hDTFouyur5XVHz1ijn8rEirMxMw12xMY5zR/JbfPIsZOWXolIla1R7MjHM8Xn6YupGNd8T5g1qqKpKHMjPxtRxrteZ6NhGuiacLMbmrHTcZc23kTGIGZeGBTn1v6bVZu+CeMdnieiTjs1qPlFAHSvEgnvk3qae51hVBfbmZOJ+Ld/FDDbPU23Q7o0afr2pRMm2FVgwJQnDrPddks8SkvFoVj5KmuRiRi3F5umWc9CHwet9iTeVpVj5cKy2jURkHVLzGkHlIXl+0u7lXO4P5bqWgPEzs7H5UC0ZgPdU55xfwTW7HXjsLTu2q5Pqpt427NDGrcEzGZd5skxIWllH1q0PM/gkQSnr0NKCURJMm7nKjnUPBeHLjCDc0MuYn55jxz3X2TB7tPE9EbUOR7E6dQAiRybjiUW52Lq/FOXW60BlBUoKczEvLRHRI1KxbL8Pd0lVR7F+dgKi41Ixb2UBDhyusNy4VaL8cCHWL5qF0TfEYtKK4sAEEbSbx81PW/Z5zLLV8qPYmbcEj47VbvZm5gXsgUpXVYysialYfVRN95uO5c8lICxYTVPL1ijnciUOrEhFzA2JeHRRHnYesQR9tfx24IMczEuJR/Q92TgQkMxRmwqsfmmJbzd0/mDeIIvywmxMGjEA8SnzsbrQ9TpTfsSZj6bmmidMQ1RgZ5aWxwYlYFJGLnZa8612rSgrzMOix+Salo7VR9R8f5Xn4oWsUjVB1BgqUbJ2LuJjk7BoR/0uCka+i8Hox5ZgvZbvysrVAqHdGzmuNwkZ2FzP4Hbl/hWYFDsAw+6di0V5hdpzoOXYJJ/tL8DKjFQs+EDNI9JUNkEwqHyHdt7HxePRgFxPalFZjGWpsYiMk+cn7V7O5f5QrmvF2LpyPia9UKDmNBDvqQLOr+Da1mJg1X+M4FaQDRh4pRFIcyfzZJmkEbKOrOsrCaBFza7GnDE2lGcGOQYJUB3+ViVqIUqP2WHTvoceF6sZGgm4VZyy4+FbGVij1uYUvv5SXQ5COqP3jQkYNy5RDQkYGtHZWCaO5OOJsUnI8vrbUIplv4jD/ZZAQ2hEDMaY24yLRmiIWlB1FJtnJ+Au7xv0QQU2PzoKk7LNfYagh+NzuH6GspVpiHs0H9b7S79pF7qVkydi3h413S0RS19JRm9e6FqJxjmXD2QlIX52vuNtY2i/OHWuJuK26M7a2Wuo3DEf8RJga6wb0R2Z+L88NR5ozBtkUb4xHXHj5mOzGcgKCcfQBJWPxsUhKlTN1/LR6ofvxP0NeiDSrgfTR+GuDGceC+lpzbeRCDXPwyO5mHpnWoMCbDszM7C+CR4W6XxUiZL8TCOAlbai3i9bKvPnIu4ea77rjIFxZr5zvTeq3P8KJo1Kx2Yfb47KN85C7Ni5zm0Hu90/Wq+PRA6lKFE1wgDtOmCeL16GGy5XyX1QXpSDJxIGINp63jeG8nw8GpeAJzY6r1Uu94fadW3gRQHMALynahz2AKiuttvPVqkJC5kny/zxxr+r7X1mVdk//0bNaOE8fR4ZP35STRDV4qOPPlJjLUmJ/dUHHrK/vLXMfkrNcXfqszftqUMj7VddrYYH1tiPq2U1bbGnqXTX37fU/uHXHrZ6tty+6alRzu1dfaf95c/UMj8cX/OQc1tDJ9tf/bjmPr/W0lzv2N/19rT3a/m0ny21J5jpxiy1f65m16R9hkdusux3un1T7V9Ks9YU523LzBuNcC7vXmiPNdNeO8r++JZytcDp+K6F9oRrze1F2hNeLlFLAqnE/vIY5z7MIe19tdgT5o1G0TLzRj18+aY9yXo+P7vLfvysWuZwyv7J8snO3+hrJ9rf+FItqqev35joPPeuvdP+7Paaecx+6qD91fss5+iEN+1fq0X1Ys0TjkE739Xi1ox5o/GcOn7Qvunl6faEQe7nljn4do59/vKdRnrtWvO7dw/aT9XId9q+Pl5uT7bc3/3okS213guaTm2ZabmfirYnLtxm93R5lOvjnuXT7c9uUdPnCeYNb6z3HgH6rTxRZt/z5h/sSbdGq+26Dw17xqjhxBb77yx55tq7F3q+P9Qc37fcnlZbBuA91TlX75Jrx78HfjzfWT3z6lnV+LAY6P+ka7VNGWSeLJM05jxZV7bhTbm2fNEWo7pkj4vUzDpIKTfrvqV9Myv36qXWds+s7slybkfSS8cM8lfWF7Jdc76kGbagWj9e2ZZs01zXnC9kmynL7PjyOPSSeLLssLa9XyytxnPadkzetkHUsoRjwqJMpAzp6igx4y6kZyJe+vNk9FDTyMvBujI17lFXDJ+di/ysZAwN87DV4M4YPut1LIxT0yjCC68WqvF6qirAgtlm8ZtITHttMSb0qbnPsIRMLJ8WqaYqsPrpxdirpvxxIGsiJq1Sb6yCIzHjtQwMN0tfUCsSyHP5KJb9n1kNszPGPP86noy1lAxVQqPTsPz5BJin094F87E+wO2glufOx7wiGYtElJktAoR5g5wqsXlBBraqkl1hSdl4c1q0s+SYQwh6Jy3G8nR1Mmq/6/MW+1GV5mQ+/i/DXK8rJmSvwLRBNfMYQiIwYckrmNFPTW/LwAvb1LjPtOtIxnzjOhKp5SN9HlFD5eN3g43qzHvNUmTa+ZqSNQdj1GS9RCRh6Ye5eOb2CIR4KOUS0kdbbrm/K1+VjVXe7u+0PPbEozkwknTFmEX5eDMtBp4uj3J9jErKwLRYNU2EYhzYr0a1303V8lIDlCLrnliMfuwVbDXbNguW+7ZMOG75A0q7ps2biZXqFidsbCYKXkvzfH+oCY1MwsIGZgDeUzWeegfXyk8BZZamXKTKpwxVHppAk3nmcpOsK9vwZs8XwJffAvF9fasuKYG1TfvtKH3GWW00baXdEWCToNX1T1frwTqzamnmOBtGPu8ahJMg2BfHndvJ/mUQMjbU/GASJPvXZ9rn0NJsmRaE0A7A33fZ8a/HjPVkfTF5ubHu6yk2ZE2w4fIu2gPNbGOdzu31RS68bYOoVeo3GuP6qHGUo9zLw36/9FewNEm7kVPTnnXGmAlJjgBC+fZdfrX9VLlhBZapG9DQpHRMiTDGPemdko4J5g4PvYN1ZvHqepIqTuMz9MiEfqGb8vorSPGyX2q5AnouFy1H1g41PigNv4/z8NCvhMalY9ogNVGVh7c31rM+kDfleXhcBaTDJszCg4583XDMG+TiZB7eWKVuRIPj8FR6jNe81Dt5Lqb0NMbL31hR76By5cYcrDYDErfPwowhXvYWHIGUp8ygQgWWvZ7nqP7ti/K8OXhcz0ZdMeHx1AA8JBK50YNTmdiyPRczYsPUzHq4KAFLV87E8LoKP/QbjxTzeoMCfLhbjXqw96W5jsBClHZ9XOjlOkbkyalGq0Yfgh5x0/Hmh/nafVtkHfdtftqzGE+YGUDaPHsmzsPLosDhPVXj8qvNtaYgwSdr+2TuJc/MUl0yf81Hdjx9hxHkEtJZwPA+NrylXvT/aZNdn7Z2GjBusA2j+jvTSABux6Ga25EgnLtOWs76zQjX+c/e5SxlJ+uP0PYngbr6lDwLxDaIWpZ2Ht961hSLFF9/+XtZ3vbvL4aHAqp1qMT6XLPUWmeMHR2jxmsRHIOxY80bwVJs3uZHI9TF2Rg/Jdfy1vYVTIvmzWXrFNhzee+77ziCbkN/Gg/vj0pdMfKnzvN5/ZYANYiLCqyfPdMIQIQm4Km06MDdgDJvkLvtBVivRnF7Am7rqMZroz08jBwZboxX5WFtPUuTbd3mbERwTEJc3ed2v3iM6a7GN+Q5StjVSQLUj+XqbXeGJszCtEGN8hhH56kuF0VjTPpibNhRgDWz49DDz9OrR2KyjyVcuiKqr/O3+uChWu6NTuY5O+/oORnPJPMpn+qpyvIKIzwMl6rRBukSgaHJc7Dmg23YsigZA32sSVd/2jPHy2btg3BMeaqR2zzjPVWjq3dwLbQ9EGb5N6i2G0Owh0JmMs9cbpJ1ZRt1qTgFlHyjJjQSdPr4KaNUl7UDAEnzxXHopdDMwJsM7+w2diqBKQlQ/TRan3Qh88zglXQ4cPmF2j3RFWqhF3L81sCfyVql1Frdsz4CsQ2iluO0pYefcFzqx0vUGi4OdQYYOoU4Sv74rgAfml10B8djhOPNa+0G3jhMjQF78wvURctHR3Jx/y/mY6/+PYRg4GOvYOHNvNCRps5zuRRbPzAfWCIx4sauarx2YTGxzoDdpnzsVKMNUb5xDh7PNUoS3TZ7Fm6rf6bzjHmDPCg5uE+NQXt4962OTtQA503grl3qjb1PSnHAsbtI9POpRGYkBg1Wo1WF2OHT7iqwec4cI0AtpfFmx/lx7SKqTSyeLFiBhSmx6F1XMDqAQi03daGdPD/8leWucHTeMTB5PKIaM7BArVNpqfPlY8fQALzcC0fKq7lY/lgiomqpmhkwZbl4da0aHzQR95rNCjQG3lM1iXoH17p0AP453QhyyfDJnCDc2AvY96RznjnIPFkmacx5sq5swxsJXEnPmhLw8sUVqrqldd8ySHXMpmC2lSbMfde3B9BAbIOoxTmyDZvMdhJiYzE0EDd9h4rheBbq3r2OkjweFBdhpxnwuy7atzZvrrGUMNpX5HtV1PJ8TL0zHesd1SFy8Cbf2pKprnO5qgh7zGrIoQMw0Cwt403PXs6Hl/KDOFCvSLAHUtomXb0FHTIHTyUE6EaNeYNqY/4+18cPeqG3Gi05XM/SxX7sL7y3ea6WouRLNeqFVAedqtq/GfrkLIxhZI1agYMfO3u6Duvq6eVPJbY6SlDHYFxc3S+IiLxqYQV+KwvysVWN1137oAF4T9Vk/KoWam14/8Kp1Xhzpx3j/+LaoYAMMk+WSRqZlnXyP6k7YCal1KR9NOnUoK4qkRKI+64S2HrQ83aleuUVXZzVP61kniwzq4Hu/8po781qnw83RRv22dHnMmDJeP+DYYHYBlGLUl6IBQ/MNUrOSGOaMxIDclEp274NB9R46OABzg4TfPXZQcf6uDLMt2Pq3svZNk55Ocp8eRirKkbWxFSsVhe6sLGLsZyNHpBFneey9W3tlb4GkiPQ21H6psylDdX6O4qVD6ap0jYxeCYjMHmYeYO8ubSbquKp2bvPx1JoWl5x/K4fLK1HW5xhuNSxuyLsMV8G1aG0xBlUqLU6nOlIDu5/yKgOKgHqheMYYKDWoBAf5qtRxOCG/mrUhaWmQJ8hGNhokQVq1Q4VOzoTi/pBy7pXcDY7EIEbBjfSbz/vqZqUX8G1odq/x9gfGUEgqfJZqN2lXPcDfdKFzJNlZrVQWeem3r4Fj8xSW9c97eyp0xMJxA280oZZq+0u6aQ3TwkCCmkfbfN+u97xgUk6MpB5ZttpI6NsenDrsbedPXTK+kv+UXcwsO/l2r3RceC46qjB1/WsArENomavsgJlh4uwPisd8TcmYZGUupEeq7ID1JhmVRFefdl8C9oZY+M81AevQ0mxI1xRj4t0OK52BCwOoqTOghEV2PzoRMxTpY7Cbs9A7jOxrAZETr6cyweLnL3T9urlYyA5HD0ckeBifPKZGvXDgazJeFS1XzX0yfkY180YbxjmDfIuRPtddpzra3N96qBg68YNaqy+QtArwhnMW53rQwcFVQXYtE6N10Ueeh6YZbTLFsgANdE5Vp6b7egYCoPiMMLTiX3ooKqipomMNEqXVh7F1hWzMD4hFtGRfRHRRxsiYxCTkIxHs/JREsB+eKiVOOs8KfZmxBvnjDkMjsWwcWlYsKKgGZ47pTjg6OijL6L0R45KlG1bgUeTExAz2Pk5omMTMH5mNjabvZf6jPdUTc2v4JpU2Xz6pzYMVr0v/eOAHYO08YssVbpkXObJMiFpZR1Z1xdSmkx61Zwzxoao2a4l4iToZO14QKp/SoDNmk5685QOCYT8zZkcpK9nLpdgnPTMaaaRba15wPg6wh810kigTfZfF+kcwbp/WS/pOh8/qBKIbRA1O4eyMdp6keuv3SCNSMT9Gbk4oD3kD03OxIaCXMwYEpiqZAeyZ2LRITUxJB0PDlHjjc7XjhnEaeyzdoEtPQM9l4AwtjNCFo15Lvt+rnqxY66jt6nQhEy8FJDSNswb5APpMEDdf0oHBY8/kW+U+qpN8RLMW+F/Ec2on4yyBPPm4HcbvW/rQFaGM6hQh53zzIeezhjz/PMBClATnWPl+Xh8nlkipysmPJLkOWhseUHUu3e4lldzMGlELMbPzsHW/UdRbgbeqipQtr8AKzNSMWxwEhYUNqjINbUylSe9BJzKj6KkMA+LZidjWHQsJmUVer9eNKli7DELX/fphfCqYqxMiUPMvXOx8oNilFkOtPxIMbaunI9JcUNwV6avn4H3VOeCX8E1IcGzVQ8E4e7rbHp1Sjmvb+/nDAbJ+JmzRlVLSSNprcE3X0nQyWyDzBy+zHAGxUwSYLOmcW9vTdLLeuZy6RzB7JnTZAb0zDQy7t75ghyPp3Wt+5f1FvzMZqyvAoDu65n7svZgWtc2iFqT0IvaASdKUXokMK+SyvNcu5aeMce/EgAHP3NWM7KWWAiY/Zm43zxOaMf5x0buGYhaHF/P5ZJDllKW1zRhEX9pu+M3K4x21romYGGgGl9n3iCfROJXaXFqHChblYq7ZuZ5KJVQiZK1sxA/KhN7G3IeRU7CNMfujmL1lHvw6NrSmiXYKkuxfmYC4hdo57AP+yvfmI77lxkPPWFj5+OpODYsTa1AZTEWWaugjZuLGbV0DFV21NnoZ8jxLZj6i1nYLOsFd0ZUXCLGjTOG26I7O5vSqizEonvuwQJVEofo6/JK9IiOc5wvjiEuWnvutjTCVnUUmzOSEDe9jhcyTaWszNkBWvBxvYTZo/lGxgntZ/k82ucIdWYA7FyUhLsync8qteI91Tnhd3BNdG4P/PkXNmxIC8Jn/wN+e6sN/btDH2T8k6+hL5M0krYlknbZpESZezCNiHzQsRdGWi902jDmxgiEaU/ijrcwIwcgJnUFDvgdY6vEgRWpiDO7lg6OxJTXX0GKWbKhvgIT66tdrwSMcfQGVIR5v83GAT8azKbWqJ7n8rk4b1za7gjHlD9nYHig6hcwb5CPQhPmYulYZ2nJAyvTMKz/AEQnJGPqzFmYqlepGYBhaTn6ORSVPh1jVNr664wxTy/GGHN3UrogLR6R/WMQn5yOR2emG1XYouNx/8piPd/OmJagEteiOBvjzXzeczKWspoOtQbH8vHE2ARH4EuvgvZkbK1tzJ8qd4Y49mbN168rYQlzsKWwAGsWzcEzc43hpZUFKCpYjAnmOyQtDy769Vxn51N0XuuRtBhbVmY6zhfHsGgFthTsQtG6xUgZ5DwL5YXM/StV9PdcOlnuDPIVvYJ5UsKsWwKeyduFwr9bPo/2OQq1PLHUkQG0a96iyXhih5qoDe+pzokGBddMEkybHGvDNZcBH6QH6YOMyzxZ1hJIO2v3ZLm22yZttFnbZSOiegqLxRTrhU4bFmbnomD7PhSumoNx6jpRtnEu4u/x40e/shQrH45D/Ox84yElJBozVq3AtGj/SwCEhjrX9VrU3F/ag9e0VywPanvmY/QveME77/lxLrcPdT6Olx9vimoyrm13RKUvxrRAdhvPvEE+64zhz7yDpckRlgf3SpTvL8DqlTlYbalS03tCNpYnhBr5SoSH4VI16rPQWCx8R3tA62MJE1RW4MAHuVi5MtdZhS04AhOyX8HYUMfeEN7NrdyplPz8xXyjrSkJxC1Jc/bgS9RCle/IxF2xqVim+vIIG5eJvHpWQZOG1vOeS0QPT9G4i2Lx5MpMZ0+6R1fg5Q2N/TaUWoOQiFjMeD3f5YXM1oVLjQ7VmpOuCViam4FxPT1kgGDtmjfrdbzk6JH9KJa9WkcboLynOicCElxrDcyql9Z226SNNmmrzb0KKhE1XGhkIp55JxczzIdz7Uf/vhd8KOasVO5fgUlx8Xg013j7FDJoMt7MX+H68OOHsMudVUFLjzgfkHwXitC6qsDLg9pr0x0PVJU75mP8o82kmDo1OX/P5bCuzof2Er/O1c7o0kWN+uCApe2ORuttinmDfCUPG4/lojBvMWaMi0HvbpZAdGhX9L5xIp5ZVYANs2IQai0hcFForSVpvNIe7mfkbsOWrOkYp0pgm0K7RWBo8hys+TAXTw7p7FIip4uzPo9byc+uGLMoQJ35EJ0rVRXY/HQCYu5Zgp3ypB+snddPb0D+3DiE1itoHItps+oowRkah2mpkWoCWJ/n6I6UqA7a9eLJuZbg7HvY1MyqFg+fNquOmgCdcVtaKqLUFNbmYXNdgTLeUzU5Btcs3Ntt89S2GxEFUHAEUv5vsqOx6JJlOT69SSrLTUfs2LnYfESmumJ4+goUvJ6GgYGovm25GaysOq3G6mJplBRhuNSXxt4ikrF8UYKjLS0ppj4+S73ypfNGg87lNtaHdl/f4JfiwH41Kj2HOl/keiXtQznagZNGcRuzGhvzBtVDSM9YpMzNxob8AhTv32cM2/OxITsd4yJVwG2/s+H0oT/sq8b8EYIescl4RpXANvdXmJ+L5Y8lIkrl2337zAtCDAY6YgHuJT9fwcKbay+ZStTslRdiwS9iMSm72ChBE5GIlzblY2FiuE8B7Eu7Wdq1HRKHET5cVHrcHG/0KioOlqJEjRLVqWMs7hihxrV7oZ37jJeF50xYmHYXZorByFgfrgc9h2FkHzWOgygpVaPe8J6qSTG4RkTnVmQ8xpjVx8t3YafZQ6JHFdg6JwExD+eiTN7WdI3Fk7l5WJoSHbAH/R49nRH1Ax87G4z3ytooab9I+BqTD705A8vTnW9h92ZMxCRps4fOAwE4l3tGON9g7i/GATXq3VGUHFajwX3R26e2CfMxz2wfSuyZj/hISy/AHoZJq1RazepU5/zRWb7cCTJvUGDt/ahQjYVjYF8fI8p+K8KeXWq0ezSizCea/Axnr22avRkJLnmm5pCK1SotkItJjvmJyPJ6nSRqAtKz58gkLNphvNjpPWExCt+Zg9vq0eNtiKVpA1wW5rHjnhq6dXfeYxUVwce7NCJdr2uc9xXl5afU2DnSMRRdHC/0fXwxj+7ac4oalWuNjxmA91RNh8E1IjrHOqOLT9GECmyePgrjVYMeYbEzsWHTYkxoYDXQGrQLryNgsWufo7SDV587S0WEDhjgKInni94pr1jagTiKzTMnYupGdjPfugXoXO7Zy9lW0/592HdSjXtTdhAHzPoA12kP/mq0LqfOQRsdzBsUGEVYt04FdUNjMSKQ7QR6UrQBq1UAO/TmYc48dtbX0qVEzVxxNkaPMnv2jMCELKl+HVvPaqCaXpYXRCfL69+fVPfuvgXkiJqlCPR2xLsqUe7LPZyLcPSoRwOivKdqGgyuEdE5VoHjjsr/tbdX5treUybyliShd4DjarruQzDcLEl3OB9bfSghsHezs/2C4TdGqzFfScPcrzjbntMueKunTARLbLdegTuXY3DDzWoUedi4TY16UVmgndNqPCo2xscHkxBc2l27iavHYG1mKuQi5/ywutojdMG8QQGwLQfL1O946NgEDDRGG83WN1aoqmqdMfYnlutBSFeXPFL30NlStS4EoY75YQhpo2YTNTW3DjmmrcrBk75UZ/PEer9VUOhb75/FB7FPjaJHeP07J6HzWCV27XK27dwrwlIt+ZwIx9AbzWPYhh0fqVGvivGJIwN0R4/L1KhPeE/VFBhcI6Jzy/KW36UKjdWRHDyxwNreU30byq2PSIxMMC92RVj2tvNC7FFVAVa+rkpFBCfgjmHGaL1I23PWHn2qijDvF+lYb+m9mFqJgJ7LIbjt9jg1DqxeVUfPUdqN1MrleWo8EmPjfL2xjMGMTRuwpR7DwpFqVc1tTzvnL02q580s8wY1RFUxFj29Qr38iMa0X9X35Uc9FS/BvBWqJMCgNDw4yBjV3ZjukkfqHubjNrUqEIeFjvmLMaGF9MRPrc/OzJkuHXJMaVDtAe1+6w51TShfgVd96P1z7/vvONpZ8/0FEZGmPA9rN6px7Tf15iFq9ByK+skoVdulAster+seTmN9ZoqMxdD6ZgDeUzU6BteIKMBKsVJ7mDngS/l+6Tnt90ucN0rjEz1WU9v7xhJs1d9odsaE9GT0brTAmiHqrnscx1GyOAMr9cbmPTuQnYFlqthaj9RkDPf32Nx69MHRXNw/Kh2bHaX6qDUI9LkccnOis/ertXMwb4ca96B8YwZeMJffnooJPrW31gwwb5BfjA4EzFh22IR0TKhHe1D1ppfoyVRNBHTFhEeS+OBPrcvJPLy8QrUbOCgVvw9AhxxRP5/oKE26fs4s77/rR3Iwb7H5MjMGExwvQonqUFWB9bPnYL0qHRk6NhG31askfSOJHI8U8yWMdg/3O6/VNI9qz1fOZ6ah40fXqxkaB95TNSoG14go4Mq3zUX84AQ8sbYYlbUU8688lIcntIub2XMauibhyWRPN0ql2LrFbAR9GG64To02QEl2oqPR6PvXeogC9kzGkxPUa52qAjw6bpaHtzqVKMlJc/ag2DURT/7K2VioX9x69JEL3qSJ2TjgS1UJagECfy5L71e/T49RE0exbGISsvbXPKfLd2RivNkpQXAkZjwc57E3tzrzxrnCvEEuCrBodg72lnk+RyvLCpCVMsrZgYCUEp1RW6m1UmTdqToLiEzDek/t3nywBE/kFMHz7ipRti0bk0amqhI90HsCfdJaao2oNdie7whO9B4+JDDB425JmGHeb8nvutxvHaqZ0SoP5eD+O2epl1NaHps6C+MaM1hOLUQ+FtybgZV7jtZa6kuuB9Kr7f25KnAVHIMZ02I93gMFWt33VNYXMVJN8x48ura05mepLMXKtDvxqNn8h3atejLRLH7mB95TNRqbXaPGiagZ2r17N/r376+mWgLtQWVsPOaZtSlDOqP34GEY2N28jJXjQP427DxieTvTNRbPvLYY4yLUtIt8PBqZipX6D344ho6LqeebmmhMmGstEVepXbwGYKrUjguOw0s7Mj2/vZJSdT9LcAb/tMtwjxvjMFT/HJUoKcjDVvMGUIIV7+QgxePxaw5lY3TcfKNEQ+R0bFmV7PUzlG9MR1yqs3fGsLGLkTc/NmA9ojaFpjhvW17eCPS5bDI6SLD2RBjaLw4j+xpnzPF9G7B+j5nfumLM4new0GOJAx/zhg82T3f2GDpm8T5tf8Z4DcwbjaLl5Y36ysdU1ZtmaEQMhg8OR3t9vvbbvH0LthZbri/dErE0dw6G13aSnMzF/dHpWC/jt2eiKNND4Fk77yK08w7B2vVsiOV6drIUO/MLnJ2EaMLGaefk3ECck87PCCRg6f4MDNfHWy/mjaZWv3NMAgXDnjZu7qzXGF/1iE/DlFgPAQGv91vu1zAtj8XOwfIliY1ei6E5Yd6ojeUcrvG84eF6oN2vT3n9FUyL9qfUpfX5Rrvvz9Pu+73WAPD9nupAViLizZf1mpCeMbgtRl3Xju3Duo1FKDcDX96emXhPdc4xuEbUzLW8i10ldi5IxPglxdpY3cJuno6XMpIxsNZfcuvNnz/cbxgL8cTgJKMqZ1wGihYl1P72qrwQCyYnO7qa90i7yM14cT5SvF2o63mxE+4X2pZ2weONoCeBPpctqo5i9fQ7MTXXGWCrITgC455/Bc/E1fa2sx55ow6NFVwTzBt1a3l5o758yUvaA/rYmXhtbiJ6eDuRd8xF9D1Gu2y3PbcLLyV4SGwG17wJCceY2Uvxh8Rwv/ONq/oFPloD5o2mVr9zrET77R1m+e2tr6j0DViTUktVzspiLEubiCc2ermGaTmrd3Im3kzXfu/Po8CaYN6oje/3VSF9krAwayZu87vEY32Da/W5p6rEgRVpGD8nH2VeSo+F9JmIl5alY/hFaoY73lOdc6wWSkQBFoKB03JR+EEOnpmSgKF9XHsOlDf/YX1iMGbKHKz5YBcKFnsLrDWC4gJsVaUMpDF4rw9BodGY9vo2bMmajjHRls+hPkPK0zko2LTYe2DNT65dZgNlq1Ixnl36UG2Cu2LMc/koXDUHKTdGIMyRp6SXwWiMSV+MDTtyvQTWNPXJG+cQ8wZJJxu///scTEmIQe9u1t9f43y/Tb++aL/d8+sIrGkObN+mOjyIw+0315L4xnSseXoyxrjkLU1IZ/SIjsMUuRZs34CFAQusEZ1nQiIwYbGna5h2K9YtAkOTjTy94bHzL7BG3sTiD+sWY0ZyHAZ2d3ve0K8H2rkzbjqWrtuFotyGBNb8UK97qhD0TlqMgg+1Z6dkt+taaFf0vnEinvm7lj9yvQTW/MR7qsBiyTWiZo5vWQOrbGUyYmYWaGNxWFiYiTHNoUHTVohvWVse5o2mwbzRnBzFyntjjXZs4hpWWpMajnmDyDPmjZaH91RNo7mdtyy5RkTnlb3/lgudZkgshvJCR+TAvEHnnap9+PDfxujQYUMYWCMiooDgPdX5icE1IjqPFGHHdmNsaMKwwPR0RdQqMG/QeahoF3bp7dvEYOwIL1WmiYiIfMZ7qvMVg2tEdP4o24edh2WED1JELpg36DxUtq8QJTIyJAEj+PRDRESBwHuq8xaDa0R0/igswFb5OyiOD1JEVswbdB7auc2otjNwJEsWEBFRgPCe6rzF4BoRnT/iMlC8fx+KX0/igxSRVRzzBp1/bntOO+e18/7NJJYsICKiAInjPdX5isE1IiIiIiIiIiIiPzG4RkRERERERERE5CcG14iIiIiIiIiIiPzE4BoREREREREREZGfGFwjIiIiIiIiIiLyE4NrREREREREREREfgpIcG33YSD5FTt6z6zGhVONQcZlniwjIiIiIiIiIiJqjRoUXKs4Bfz6NTtin61Gzi47vq4Aqu3GIOMyT5ZJGklLRERERERERETUmvgdXDt2EkhcUo2//tuOqmo10wNZJmkkraxDtfvwINBnVrX+l4iIiIiIiIiImj+/gmt2O/DYW3ZsK1YzLP50t00f3ElaWUfWrcs9WXaEplV7HC5PZ/CJiIiIiIiIiIiaB7+Ca1s+seOtQs9Rsg5tjcETWUfWrcvrKTaUZwbpw8O32jDgSqD0GWP6y4wg3NBLJSQiIiIiIiIiIjqH/AqurfgX8P1pNVEPso6sS0RERERERERE1BrUO7h2/Htg35c+1O2shawr22goa9VR96qiK7fbcc3j1fjje840wxZUo1zb7+w1NeeZZJsyyPpmGk/VUGUdWddMI4OsYzKXT/ub3ZHOXO5e5dW6HhERERERERERtSz1Dq6VnwLKKtRELbp0qL1qqKwr22gICVAJs+po5jib3mGCNQj25XHgX58ZafbODsIRbTr80Wp8/JXrvOfecw1uvbNbqrw6tz35JtdtlxwDrnu6Gld0cVZdXfdQENJW2vXAndWKf9vx9B1GmnGDbfo2rv+Bc9tZE2z6eu7BOyIiIiIiIiIiahn8qhbqTWEpcGukDdseDcLgnmpmAEkgav9XdmQkOjtNGBllQ5/LgA37nMGty7vAkabHRcA919k8ztu03+5Sek3ad1sy3rltafPNuu2//NOObtp2rGmkDTgJwrlva3gfm0v7cDL+W217pqG9bAhtD5Qecw3KERERERERERFRy1Dv4JoEg8I6qwkPXthkR9zCan08b2oQpt5iQ5AznqSvK9vwlwSiPvkaiJrtrFopJdJ2fa4SeCFBsS517FtKpIV2UBMaGZd5UuJNyN8RfVzTiPi+Nnx3CjhuKZV3zWVqxEKCg1LVVI5bPoOUsCMiIiIiIiIiopap3sE1qfLZ93JLtMyD7YeAIc9UY9FmOyrPAtWWglmyrmyjIay9h1qH2aO9H9e5JtVZpYppzmTjeKVqqpSmIyIiIiIiIiKilsmvaqFJ1wMd2qmJWnx/Bpi5yo6Xtjgja7KOrNsQ4RfZ8OW3wJ4v1IxGJm2s7fzcjp9GG9NSGs29+qeQaqMXtK+9ZJy5HWkfzlpVlIiIiIiIiIiIWi6/gmvDrrbhp9H1LyUm68i6DdHvCuDyC4HH3nbt6fORN+16AKuhpEMDa8cE6TnGuLSPJu77sU3vCGHycmcaqeq55B92TBlWs7qoSYJuUi1135dqhka2zWqhREREREREREQtl1/BNZsNePqnNgyJUDN8IGllHVm3ISR4teYB47ClrTWz3bULQoxOChpqVH+jfTVzu1La7L3fBjm2LX9lWuabacyqntIjaG3kuKXnUAnCmetJz6GsFkpERERERERE1HLZ7Bo1Xm8Vp4Bpb9rxtx12VBl9GNQQHAT8bJANC+6yoXMDOjJoCtImmng9pYERQKIA2r17N/r376+miFqGpjhvmTeoJWLeIPKMeYPIM+YNIs+a23nrV8k1kwTL/vwLG/IfCULiABsu7axt0GYMMi7zZJmkae6BNSIiIiIiIiIiovpqUHDN1L87kD3RhgNzg/DtQmOQcZkny4iIiIiIiIiIiFqjgATXiIiIiIiIiIiIzkcMrllIW2tsb42IiIiIiIiIiHzF4BoREREREREREZGfGFwjIiIiIiIiIiLyE4NrREREREREREREfmJwjYiIiIiIiIiIyE8MrhEREREREREREfmJwTUiIiIiIiIiIiI/MbhGRERERERERETkJwbXiIiIiIiIiIiI/MTgGlEzZ7PZcPr0aTVF1PzJ+SrnbWNj3qCWhnmDyDPmDSLPmDeIPGuqvFEfDK4RNXPt27fHmTNn1BRR8yfnq5y3jY15g1oa5g0iz5g3iDxj3iDyrKnyRn0wuEbUzHXp0gVfffUV3yZRiyHnq5y3jY15g1oa5g0iz5g3iDxj3iDyrKnyRn0wuEbUzIWFhaG6uhrHjh3jBY+avdLSUv18lfO2sTFvUEvCvEHkGfMGkWfMG0SeNWXeqA+bXaPGiaiZkovc559/jqCgIFx22WVo27Yt2rVrp5YSnXtyMyaDXOiuvPLKJjs/mTeouWPeIPKMeYPIM+YNIs/OVd7wFYNrRC1IWVkZjh8/jlOnToFZl5oLaUxU2jyQotnn6g0S8wY1R8wbRJ4xbxB5xrxB5FlzyBt1YXCNiIiIiIiIiIjIT2xzjYiIiIiIiIiIyE8MrhEREREREREREfmJwTUiIiIiIiIiIiI/MbhGRERERERERETkJwbXiIiIiIiIiIiI/MTgGhERERERERERkZ8YXCMiIiIiIiIiIvITg2tERERERERERER+YnCNiIiIiIiIiIjITwyuERERERERERER+cm2dVuBXY0TURMYEnO9GiMiIiIiIiKils5m16hxIiIiIiIiIiIiqgdWCyUiIiIiIiIiIvITg2tERERERERERER+YnCNiIiIiIiIiIjITwyuERERERERERER+YnBNSIiIiIiIiIiIj8xuEZEREREREREROQnm12jxomomSsrK8Px48dx6tQpMOsSERERtVw2mw3t27dHly5dEBYWpuY2Ld5bElFL0Bx+L+vC4BpRC3D69Gl8/vnnaNu2LS699FK0a9cOwcHBaikRERERtTRVVVX6Pd5XX32Fs2fP4sorr9Tv8ZqC+71lhw4d1BIioubnXP5e+orBNaIW4MCBA7jgggvQrVs3NYeIiIiIWosvv/wSJ06cQO/evdWcxsV7SyJqqZr699JXbHONqJmT4vpSSo03P0RERESt0+WXX67f78l9X2PjvSURtWRN+XtZHwyuETVz0g5Gc61XTkRERESB0bVrV/2+r7Hx3pKIWrqm+r2sDwbXiJo5aWBWGm8kIiIiotZL7vfkvq+x8d6SiFq6pvq9rA8G14iaOWkWsU2bNmqKiIiIiFoj6VygKZrD5r0lEbV0TfV7WR8MrhEREREREREREfmJwTUiIiIiIiIiIiI/MbhGRERERERERETkJwbXiIiIiIiIiIiI/MTgGhERERERERERkZ8YXCMiIiIiIiIiIvKTzd7M+i/912dA1j+qsfkT4OtyoLqBRxdkAy4NBYZfDaTcFITrf6AW+Glbwb/w1Nyn8cy8p/DD/v31eVVVVXhtxet4d+16LH7xT7jowgv1+USBsHv3bvRX5xoRERERtV5Ncd/He0siag2a229ZQEuuSZBp3foNuOvnSej7w4G4OrI/tuT/Uy2t26+XVWPsi9X463bgyHF7gwNrQrYh25JtyrZlHw2xb18R/vvxx0gcl4TnX3gRn376GZJTJuPJOfNw4GAxvvzyiEpJREREREREREStXcCCa6WHD+Nnd4/HA7+Zip27ChEcHIw/PD0XsTfdqFJ4d/Nzdqz5CDhRqWbApv7654IQIOYqY7ggxNiWbFv2Ifvy1ycHDup/JZC48PkXcMttP8E/P/hQn1defhxfl5Xp40RERERERERE1PoFJLh2+PAXuO9XqSj8z0f6dNu2bfH0/z2FO+8YC5ut7iCZlCYr+tKOE6fVjAaQoNrzd9vwRUYQ8qYag4zLPFkm+5B9+VOC7ejR/+ml02pTVVWNXbsKcfbsWTWHiIiIiIiIiIhaswYH1ySQ9If5CxwlusSNQ4fg1ptHqCnvpI21NbuNoFdDSfDs3d8EYeLQmgE9mSfLzACb7FP2XZc177yLu+4ej/4DrsP1N9yEHTt3oktoKObNfRL/2VGAgx/vRf6mPNzz83EIDg7Cnxa9hD59f6infTDtt16DcURERERERERE1LI1OLj20e492Jz/DzVl+PGNN6B9+/ZqyjvpvMBZFbRh5v3UhugeasIDWSZphOxT9l2Xtm3a6O2snThxQp+WwNrSrCW44IILEP+TMejTtz9+O+13uG/SLzFtapqeRkgpt08+OYAOPn4PRERERERERETU8jQ4uFZY+B989913asrQs+eVaqxu0iso0PCeC6REmqcSa+4kjaSVfRr79u7WW27GT8eOUVPA2DGjUVFRgfRHf4+vvvpKrwoqpdl+k/Ywhg+PRZ8+V+vpJLj427TfoHv3K/RpIiIiIiIiIiJqfRocXCv678dqzOm774xSXr74ulz+W3dQrC5R9YhhGWltat/etWnTBg+k/hpX9+6lTw8dcj3WrtuAU6dO6dOm/Z98ovcU2jfyWn1aAnISmCMiIiIiIiIiotYrIB0auNtV+B/Y7Q0vjUZERERERERERNScNTi4FnntNWrM6b2NG/H55yVqyrtLQ+W/DQ/E7f1CjfjASGtX+/ZOOmx4cfGfHR02bN32L9w+Mr5Gm3J9rr4al1/eDfuK/qtPv7VqNd57f6M+TkQNsDEdEX3SsVlNBkYpssb2RcT0fDXtrq7lVD/G9zk6q1RN14P+75+IrENq2heHsjG6vusE0rnePxEREQWWfj+i3Rtqw9TGfsRzv/dxv6/Qp5vgODwoyUpshPvywNo8nffwdG40OLgWHf0jvXF/qy+++BKzZj+lt01Wl+F6E2UNrxb6XSXwyta6g3SSRtLKPo19eycBMgmUmVatXoPOnTsj45n/w2WXXab3EDpo4ED8KfM5bN6cj/37jYbcpNroHzP/hMOH6xH1I2ox8jFV3WC4Dq0joFCSlYZ5fRajeH6smhMADLgQERFRK6QHMzzeF6qhiQMdegBobDY8FvVQgan6HZt235uaizGL96F4/z4sZMs/RORBg4NrP+zfD8Njb1JTTv/84EP84pf3ofA/H3mtIppyUxA66R0MNNyMt+wo9FJgTpZJGiH7lH3X5czZs+jbNxKdOnXSp4+Xl2NSymS9E4cN767G/n278ccFf8Bflv4/LFiYqacRXbtegquv7o3v3dpmI2pNotI36DcZziEHKT3VwmYtHCmrtOP1FDzTbroeyOiFpYEMrBERERG1UsPnW+4F86YjCpGYkWeZ1yT3VKrWQZ++GJZRpOa5kcBa3Hz0UkGy4v2LMWZVat0l6zfmYjUScEdTBdVuztCOzcs9dc9krNGOn0E+oualwcE1afD/d9OnORr8t9q9Zw/u/NndGBxzI4bfEo9b4n+Cf2/foZYarv8BMLo/0KmdmtEAUiLtJ3+q9liCTebJMkkj+5J9yr7rMnrUT/DmX5dj965/418f/kMvpSYBthkzn8CPBsWg1zVRiB0Rh9ffWKn3HPqbKfdj/76P9LQvZP4RvXtFqC0RUcsQhxf3Z2C4miIiIiKiZu5QHlYVJWDp/n3Ykh6pZrra/MJ87B272BKUisXCxQnYm/F8s67mSEQtQ4ODa6J79yvwl5cXI/pHP1RzXB379lsc/uIL3DxiOPr3i1Jznf48IQiRl9sCFmB76K92XJFejbiFxiDjMs8MrMm+ZJ/1JaXRvAXLpIrogAHResCR6HymVw/wUBzfUzH9GlUJ6iie77mofy1terkX/Xe0EeElfVw8hjnSu1fjdK5ntDlRWzpX+meM027oUIR5ccY6Lu1kWNrxqLGstn2q78D1ONzawHC0V+d8m2td112d/xbm9hzfq/Nz1/ffsTau26m9TQ9f09XK8d24VnE2vnvXeTXfaNesFl17uyfqu3f7PvTjd/t3cD2369iH/m8g378znXV5g78fIiKigKr72qlfu+R66Xb/VvM67IFemsvby9F8vL0KGHO7Wym6XpGIQi7eruU6rh9Taq42lotJ+vGY9z51fZ5A3L/VwnEPoKaF23fm6d7U9d7Al++15v2j0Qq5O9/uM50a8N1oXJc71/NI/y49f1eu/17Gv6c5r659mOeqI511uT/nL7UKAQmuifDu3fG3vy7Hi39aiIEDoh0N/l904YUYnTAKa97OwYxHp9foCMC08WEbRv/QqK5paFgnBxJIK/jUGL6rdFYFlX3IvvxlltALDg7G1IcexPvr38WPb7xBnxca2gWXhoXp40Tns+G3JwBFuVjvclEvxfo1RYgaHYce+rRxEZuExc5qA6p4vr+BGRdyMXUp+l/7m0yhXxzjcjHWUo1hSzowL67mzcnejHg8gEyVbgNmRBZh3kO1X9j16hJu1STMt6b6flMPOqtPaOkOpta84XTZp2yraD4eGJuIYR+nWY5Du/Gr8d0dxIKxacDzavuSDvMxzOUmoT7/Ftr2HirCND2NqrKg3UQs8LBu/W4mjButSfunY4u5nbxILNBvaK1qptuSflC74fUngCQ3yrm4Q21n6VhgdWoiRo/NRD/z30N/o53mcg6UZGUClvNK0sh67ueJIRy3jdbOu/0HXb5vucF3zSOu+cPXfax6yHmsxjkVyO+HiIgoAPQAR6qH61rN+x3sz8Toh4AXzXTaPQ+0e6AGBygOHdTuYCLRz72yVc9ekFkHiz1vX7+H044VMErFmfc+vl6n/b9/q5/NL3i6h3Ve++V+0/Uea7r+uWsn94bxRhvE5jppRZhUo8ptzXRL+7jfZ3rm33eTjwVrEpyfw7yvre37uzkBY1CEPZaoYEleLvZqf1evtazjUvXXx31o5+oD5rGuSjaeb2o8fyxGr0Ccv9QiBCy4JiTgNPK2eLz5xgrs+2infkLt+NeHyHxuPq695hrYbN6DWlKabNUDQbh7MNCtiw1BDe/nQN+GbEu2Kdv2p8SalbS/Jp8lZ+UKPPTgA7jqqh8gO2sJnpg1Qy/VJj2GEp0v5KLoeKMjg3khVReyVXmWC4leXD8SY+PC9Um5KZGLmGvbZrFYKBfXVZm1BCp8pV3oU3P1NuGs7VH0SEmu5Y2mdhHVbhai0jNd2rfokZKDpWOLMO8Ft4tp5HS8mGJ8Dr39tjRPwURfeNhvz2S8mB6J1ZluNyXWfWpppo3Vvv8ia9tw6jhW5boFUYrQK83aboeW7nnjBmaB4+1cff4tZHtub4blbbHbutO0z7B3TV6dN1YOG5/HPKnOYd6cCPVduNDTRWLG8850PVIy9ZuvBX7cuIxZ7Pwswx/UPq/2+TDa8u9x80N68NR6Lst54dLOiYc0Vj0itNtX6/khN/iRWh5xWacYeyz5w7d9uB2rCPD3Q0RE1DClyMrMBVyqY2puztBfeta439HubaZ5uBdovKqbEehX+7vXWvl8L+D3/Vv9DJ/v2kZbj5Q07V7cLJHn/oJbox3LQse9bE36vaF27Fus93fav5m8iLTydA85fP5ijLHcZ9bKr+9Guz+1nh91fn/Gv681kHbw4yKMGeu6TknxQe0cTVD3hD7uQ85Vl/tfT+c6qx6fTwIaXAsEaQdNAmD7nwrCtwuDUJ7ZsEG2IduSbfrSxlpdhsRcj3fXvIUf9u+v5hhBxV9O+AXeWLFML6lHdL6o0aGB40IUizvkAmkJruhvicamqQu/cZF3XsQs9DeItQcqfKLeTpqBijrpb6s8p+91jXZFdruYutycCL1KgetbMZ/Usl8jGFPkUvTefZ/6cUVG1vHWUXh6SxuHsdrqxlva+v5beNieYq1uUGtjwrXYvFa7GfHwefTvwsJIl4DbrAEl7aandx/tfPu4WE37yq1xYvX2uleEL+eNUdrP+LzxmOft47q9NdXzQp8ETButPSyYx6yfC73Q2+Vz1b0P92MN7PdDRETUQPrLVQ/VMTU1Xj4JT/cCcQnafdZBHGjQi9fGUPd12v/7Nz+4VEdM1e4rTEYpenkpXqOkoEfq3rBPL9f7XY1+/A613UMaAa3aSgOaGvLduFTbrFHLwcq9BoHUHtDuZR+UezPznFLBx2tcm3+qcx/ux1rbua4/JzTH85cCrdkF14iodXCtGmpctNwvNu4XMYN/bxBdHCzC3hqBirp4Tu8e3Ak8Zztsvt0k1Jdv34Pv/xYetqdX93CtVuqtCm6tPNzEeVQ039IunjFMkmqWTcQIIlqrt0i1BbXQIyPYbLw1deYF/WFBBW5d35j6uo9aAp3n+PshIiJyVcv1Sg86uPH1XiBgpOS4dig+vVhzqv+9QGMymoRwbd5kMcaopUJK2uklBVON+wJfqil6vjf0QJoRcbnvqOOlY0OoAOIwa7VNvdpu7fT7LfOZRF5m6i8h5d7MfIHsWnvA533Ucq6a37Fj0NtdpvMBg2tE1DisxeNVlT/3Lsw9l6QxbnKanuc3SnrQo1GZbXi4D43ZY2nNG0n//y2MIvB6KUaXovGNaKy1fTfL0BT7l/blVhlt57lUB6mDHmyWt6aqNzM9L+gl5eS8cws++7kPh3P5/RAREdVQS+l+/WWoD/x6aepGlcb3XMug9lL5HjX0Oh1oZtMaZlu4tZAAm34/oFdTjA9MG8eaGjVZ1LDGS7VTf5k9vjpry/hAr7Fh/NtLCX+zxJyUlNPvfx0BNyO5X/twMM6Lmt+H938bah0YXCOiRqKKoK/JQ5ZUVXMpMu6pkXeljiqdnqpM1ggC6dXwau/5qQYPjZ2apF0Gj1UmA6G+x+kXD9tX1VGNG0n//y1qp6oJ1INeFcBDexnuwU09SOUh3TmlqgF4JW/n5a1pnvaA4DifzLemefobU6839r7sQ9Msvx8iIjp/uTRF4Uq/xrs3ZeDhGlZb0xH1U7PtLZ3HZhn84ON1usnon6sWqr07j/d+OtWchIe2c/X7Ygfnvb7n7TQN/fzwyvg8q9dm48B+532tWYMgS87DOkpM1r0PjQriNahpG2rRGFwjokZjFsNepV3IZjzoWmpGb2hVqq+59QA0NW4+4NaxgAsVkLI2zr55urVdCWE0qO/ea1NJVnYtQYfa0idi0ir3hv795PGNqef9SjXLQPYqtDrV2lOk0dkDHO3fNeDfQlfzBqwkK63e1QHMhnddeoTSvocabbfpJSK1dDW6RK/ZQ1ejqNEOXSmyHvKhuL+64ZqXketSPVp/a5ox3+WNqd/7EOf6+yEiInJhNAZfo70v/RoPlw54DDXvBaRpgzFp/pQisjIbpU+1HIdxT2Tt3MgnDblONwa9eq31Zaq613PQjm+69b5AvQT1ElDSO3nS7g0fsNyPGvfFakLxfA+p7W9s4/RSXuNlrDo/6mK8fJyPeXC/38rV7s1cm67xdx+1nutSzdTl+6HWisE1IvJbjd5CtcHlYqICCnutFzKHWCyU9in2W9tpMNqu8F6M3Ox1x7nvt2+v2c6FXvR9cS+X9syGrdEumGq5O8/ppa2FQFXPNANpxrbN78loA0O6S3fuN0L7GqYFrCh9ApbmRWKBuW3tOz5Yowqnv/8WBrNXKLOdL+lCvf5trskxaNuxttuRGYktNdq40G5cVmnHKl2im+n+f3v3Ah/HWR76/7EDBAJNSALhEgmB1pFZSwmE0IQSkIVaORhWWhfTcoD2tBaif9XHtdyqUlv3cs7hDyqVqh5L9XH1L6pdyimcXky90hYTqxWyuF8DxPZixasgpHBJQhISCOHm/OeZeWd3drUr786uVqvR75vPm537zqxW1uyzz/u8VuuUdLBwdWW//3bImZ5C6qyYDMGsridOkebsor5+n0Ot9esDAECW1kGZn+qTpLcWlXWbkbMbY3RMTm8d8WyXLF/3Sz0P6+9ruiaWc69T/LFL+Tu9CsyIqunrGpGmqcyaazLnvS/YIQMNYyuXi7COOWn9zMRzv537/i7H/Zt1/Fj7/lXp9eGOgN7pPlfOe8Uc7C/nLRkBRacmbvYAV76fQy17j1lNa+FlJRkgmDY9aTHTAKrQ3XffLTd6RqcFCjbdb25eV7N+GwAAKJdK3PdV672lDhJgD45EjVAABai2f8vIXAMAAAAAAAB8IrgGAAAAAAAA+ERwDQAAAAAAAPCJ4BoABJUWVaXeGgAAWAdahs5Rbw3AukVwDQAAAAAAAPCJ4BoAAAAAAADgE8E1AAAAAAAAwCeCawAAAAAAAIBPqxpcu3jxojzyvUfl4Ue+Zz/qPAAAAAAAABAUm560mOmyefyHP5SJj0zJ5+/6qvz4xz82S0We9rSnyc/ffJN0vKFNrnjGM8xSACu5++675cYbbzRzAAAACKpK3PdxbwkgCKrt37KyZ67du/ANec/wYfnkZ79gB9Yuf9rT5KU3hOxHndflul63AwAAAAAAANazsgbX7n/gu/L3H/xXefTRx8wSkRtCL5Hffsev248uXa/b6fYrSd67IL//J++W3+n/M7vptC4rty/c9VUZGh2THz7xhFmSSZ/zj989tCrPDQAAAAAAgPWrbMG1n/3sZ/LhyZN2bbX21/+S3TZv3iznzt8jB981aD/qvLtOt9Ptdb9cJk5Oyd/83QfswNxfD77Lbjo9vwYZb6GX1Ml7/qTPfiwHvbb3vf+DZg4AAAAAAADrVdmCa0vf/LYd+Lps82Z54fOfZzed1kEMfvD44/Zj9jrdXvfLpplkn/vil+WPf/93MgJaOt3W8lozBwAAAAAAAKytsg1o8Nkv3CX/55//zcwV7td+9ZfltlfebOYcmtX1vOueKx0728yS5XQE0uHDfyvfM11QX1TzQtn3W78pz3j60+3g3Mc+/impq62Rj3/6c3a9N816033e/6F/tbe/qfGl8s7feJs97W7/qp9/hfzzv8XtZd7j6X6H3/d+edubo3aAT7d3j6PaXvfa1LlqVtrXv7EkP/rRj+Q79z9oP683QKjX9tWzXzNzIr/x1jfLK2++adn1uMfUrqqH//bv5eU3NcrpT3zGXq/n/mtveZO9/BtL30xdn/s8K50f1h+KzgIAAGwMDGgAAIUJ7IAG33ngQfvxqU99alEjgbr7uTSYpF1GNbttJVr/bNcb77C7i77rYK8ddDqbmDNrxQ46Pf3pl9vrm2+/TQ79zd/JXV89Y88f+O13yNcX78uooabbf23uQqoL6rOvulL+zz992KzNdO/Cov2cup0GxzTLToNjrm9Yx35T+075y3f/SUZgTWlAT4NdGiDT/b2BNe/1fOVMIuP8NLDWu++37HUL1vH/9N1/aT+Hbr/1hnqZnv2k2fLS5wcAAAAAAIDyKFtw7bLLLrMfNburv6dbrvy5Z9nzK9F9NLvMDw1KaVNXP/sq6zjXyze//R17XmnmmQaxVONLG+TKK39OWptvt+df+ILnybOteW/ASbfXbDCXbvvt+x/MGZT6lV1vtJ9TafDs8ssvl4cefsSeVxrsyg6qrUSDaFdZ59MYbrDn9dgvawrL2a+lg4UaeNPl7rV6n+Pmm5rsgKQ7IMOlzg8AAAAAAADlUbbgWu31L7AHLJia+bj8w/89Lo99/wdmjUMDaS+9ISQ339Rot+23v0p6ujvtDC4v7YapWWPeQFkuGkjSET7dkUS9XS2zXXP1s+1gmj4WSrd9+uVPM3OZNBjmjmL6ZwPD8r3vPWrW+KPXqplz/X82kLqeqY99XL5z/wNmi0zaZVZbPuU+PwAAAAAAAORWtuDai2qut7Olvvmt78j8178h2aXcwg1bZG/Xf5XOX3uL3d4cfYO8pK5WNm3aZLZI00ys8/ckU5lY2dw6ZK977avtro/asoN0pdJMryd+9GMzl6aBqw/+a8webMHtwnnVVVeatf5oF1i3m6i3uTXhirEa5wcAAAAAAIDcyhZc02yz1uZX5wyWqZ/+9Kf2iKGFcLtHvucv/zqjW6YGjjQz7oknfmQHvtyuj7qN1iErhWaOuTXbNHj34cmTdtdM9zlc+lya0ab13JSeU6mZYdp1U89fByIo1WqcHwAAAAAAAHIrW3BNvfrWW+QVL2vKGWD7+uKSHcAqhHYN7dvfLbfe8nK7W6PbVfLYP/6zvPLlN9kBLw186SAFulwHA9CaZaXQmmuf+twX7eNp90wNFuYaYdMN/LldOHWU0WIzw177C7fawTTdXwNqej173v6r8n+PT9jLtGm3Tg2MFasc5wcAAAAAAIDCbHoyu/9miTRD7eR/zMjHPv5p+clPfmKWilz+tKfJb7/j14sq9A+A4dIBAAA2ikrc93FvCSAIqu3fsrJmrqmnPOUp0v76X5L/+Ue/K78ceb3cEHqJPTjAL73utfYolwAAAAAAAEBQlD1zDUB58e0iAADAxkDmGgAUJvCZawAAAAAAAMBGQXANAAAAAAAA8IngGgAAAAAAAOATwTUAAAAAAADAJ4JrAAAAQIXoWGI/+9lPimrVwzr3n1jnxHBoAABkYLRQoMoxohMAAMGht94f/uDvmLlL27Rps7zpbaNmbq0tyXi0R2T0uHTVmUUoK0YL3Zgeevhh+/Gaq6+2H4NKr5NrXP+q5RoZLRQAAABABczKgYZ+mZnul/qGbVazpu0AmU5bLXpMFq2tFsd3S33frLOLWjgm7fa2ltS+VuubsleneY5lr/ccY4V1M33b5MC0npuz7sC0OQd7freML5gNAQBYJwiuAQAAAIEVl86TEZmfOyen+5PS2aCZZ+es+VNyUIZkeFqktqtHOmJxJ5hmWZyKi/TvlxYNsnUn5eCUbm+1nQkZSJiN7ODZDom1n3LWWe2odEv7+NIl1jkmuuOyS9dN9Umye5vslRF7u9P9IgOHvUE6YGPYvDn4H825xmDYCNfoB91CgSpH6j4AAMFR2W6hmh2mQaxBadFZzULTQNtQs71WM8hO7Dwnh1q90xoYM10/k/3SPr9fJrtq7O0zu4Vax44mpTe2R2rNWjvjbb/IkVhIhvOu2yNJz/Ne6hw3GrqFbkzaze7T33hcNl92mVkSTBd/9jOuMQD0Gt/4suvN3Nqptn/LCK4BVY4bIAAAgqNag2t28OtwSCb3JZ1HaxvtqqkZZQTXKofg2sakwbU//ci98u93f8ssAarXW299kfz5m9b+35Bq+7eMfD4AAABgo6trk+hcXMan4hLa6QS2atsiIoOjqe6iMj3q6RZaL00yJHs9XT1nDg+JtLdJ7YrrAAAIHoJrAAAAwIZXI3e0J2VgMiK9dkaZpW6PHLHrtJlBCU6G5WDYrLO274qNSWhwhxmIYJt0ypjJcltpHQAAwUO3UKDKkboPAEBwVLZbaHGWdwNFpdEtdGOiWyjWE7qF5kbmGgAAAFBBNXWvKLhd/6KXm71W26wMD4pE2wisAQBQLDLXgCrHt4sAAGA1acba9sGEdIy5gwxgrZC5tjGRuYb1hMy13MhcAwAAADaw2q7jMj9HYA0AAL8IrgEAAAAAAAA+EVwDAAAAAAAAfCK4BgAAAABAqRaOSXv0mCya2ZXM9G2TA9NmBijYTfIf732j/MebzazNWfZ1t/33V8k7zRp5zavkq7mWp9TLB//7G+Wr76w38yJ/0es5Vu9NZikuheAaAAAAAABAFXOCXleLPGAWuF5zhVz3w+/Ke/7w3+XF2v7nZ+R99oqb5D8iV8qZuLP8n75/rfyOJ4hme3OtvPoZZtp2k9Q+mnCOo/tIbUbgDfkRXAMAAAAq5Enrv/u+N19UA1BGml3WsE3q7dYvM2axk0k2KwfMOs0q05F0ne12y/iC2dCi2zrLreZmqulx24bkbGJItpv9bdP9y7bV/TtjIhPdzrL7nC2BFf3BsAa8TssXzXyG7z9uAmoeb75atjzwbXnbJ5zZP/jsd0VeeJ0ne61ePtgo8qnkT8y8+qq87X3pvzsXHvWuw0oIrgGATx9616d9NwDAxvX5pY8V3L6w5H70B1AyDYDtFzkyd84eIXd+TKSzb9as1GBXXHbp8qk+SXZvk70yYm93ul9k4LCznR0YkzFnf13XHpfteoy6PTJp7dcY7pPT1nJ79F0NrJ2MZGy7d3xJWobOydGoSMeYtTy2R663jwz49PzL5crn1pqunDvkg69xFr/z6svl0Ue/78yoTzwu9z/jctliZt/5zi3S9M1F+ZiZz2XLlU+V+x/mS55CEFwDAAAANhI7cyedsZNJM3fyrQPWuWQilVlmZ5J1x0XmkqkaaR1jg9KiE3UhCUlEertq7OW19SH7UWRJLsxF5OhQs5m31nX1SEcsnvN3ZnE+KRLrTmWubR+0nv88gQqU2b+eTnXjfPEXfiSvjmyXvzCr8nrNq+R3Xvio/LUnS22ZN2+Xtzzru/JP/2rmsSKCawDg008feb/vBgDAmtEMmzkTRAA2mmg668xusT1Sa1athsb+U5nP5wnMAWX3r4vyqR9eLrUmey03rcV2uZxM1WZbzq7vVvewp34bLoXgGgD4dOgVn/PdAAAAUGGhsDTGRjLqpxWnRrY0xDO6ki6Oj8hENJIzWK0Zb2cHR8kExZp438M/kiuvfJaZs9gDH/xIrn3n82WLPEveYkYE/ePQU+VK63fDHRlUA2u3LPy7vHj4q/Y8CkNwDQB8Grz7Jb4bAACra0nGo56i6hYtzt4+vuR0C3WLsJvlbre19vGkWarSxd2ddda+yuw/bhd1pwsp1hHN2hwLyUBbjvd1gVqGTsnBOU9Xz8mInHaz0eraJCqeAQ1aB+V0f1I6zbba3N/Jlp0RBjRA+enon/KofEwHMfjXh+XCc5+fqsH2F7ddK/LN+6XrfafS3Uit9p7kT+TRZMIJpr3mVbLT+uvwS3QFLdqmJy1mGkAVuvvuu+XGG280c6gm//kHu81U8X7xL46bKQDARqKjhcbOHjVzl7bJ+i/a2GnmiuQWU7c/+GuwrUdk9Lh0iSnqrt3hdJtukaOmm6gG2rYPhlLzaRpo02Lv1nIzKmJozBRtR9lU4r6Pe8vq89DDD8uffuRe+fe7v2WWAPm5mWVuAOyd79xhZ585vi//9Ien5Q/MnNZN+/orTfbaA4s5s9F0/9+RC3KT1l/zbu/64XflPZ7uoW+99UXy529a+39Dqu3fMjLXAAAAgCBqjaQLrS9MSayhR7rq7DUpWnA9VcTdYhdnN9MqndXWLROSlAtud7pwn/QSWAOAivuD4XRgTb0vIxPNE1hT3sEO8nTz1P3twJrybu826q4VhOAaAAAAEEjNsisalxPTIjOHhyS0c3kh9eT5hJlazs5iO99jCrGfkoNhswIAAGQguAYAPtWeutd3AwCgElr29UnyZL+cmMudaWbXfRrx1l8bkQkzrYG3xq31zoxmvuWPwwEAsKERXAMAAACCSgusz8Ul2d4mtWZRhtZBOdrgFGDX7p97JZLqFqqBORnc4XQL3Z/QgRYBAEAODGgAVDmKzlavJ6b6zVTxnt426EwAADaUig5ogHWHAQ02JgY0wHrCgAa5kbkGAAAAVFDNVfUFt+uveonZCwAAVCuCawAAAECFaCbaK2teV1QDAADVjW6hQJUjdb960S0UAACUE91CNybtFvrpbzwumy+7zCwJpos/+xnXGAB6jW982fVmbu1U279lBNeAKrf+boBm5UBDt8jYOTnkGZVspm+bdMac6Q7vuoVj0t42JGd1Otwnp2N7UgWX8+5TJQiuAQCAciK4tjFpcG3z5s3y7KuuMkuC6ZHvfY9rDIBqucZq+7eMbqEAykaDYfUNcZGoWWAsju+WThmT+blzMj/VJ8nufpmx18zKgba4RKes5dY6Ha1s7/iSvSb/PvD63j98yXcDAABAdbh48aKZCi6uMRg2wjX6QXANQNm0DGmQbFB2mXnHktw5KXJwX7MzW7dHeqNxOTFtTU/HZSLaI111zip7yP/JKVlcaR9kOLvlvO8GAAAAACgdwTUAq2xeziRCssUE0FRoa1iS80uyOJ+Uxq31ZqmlLiShREKSK+yDTB+4OOW7AQAAAABKR801oMqtx7oY2j30xE63RprWYIvLrrlBabHXOl0+98qIHJEe+3Gyq8ascbeNyIk8++i2WpeiGvzNff7rpv329f7rtXl95eQ5M1W8l+3cZqYAALlcc/XVZqqMnrwocu+smSlQvfvXEEFHzbWNyb23XZV/c6qIXifXuP5VyzVW279lBNeAKkdwzeENrlWL95z5IzNVvD9u+nMzVZqPffCTZqp4r3vb7WYKAFAxGlx7/xvMTAE2bRb5jY+YGQQdwbWNSYMVG2FAAwJPwUBwLTeCa0CVW//BtSUZj/aIjB5P1VZLrZd+qT8ZkfkhU1tNRw7dL3Ik1iZ35tunmkYM/fvXmwkffvOjZqI0b/nga8xU8f7pbZ8wUwCAiqny4JqvL7NSf7/TI36XRr9sG5GmKb0PWP4lXZARXNuYNFjx+E8vl82XXWaWVM4Vl18mz37mU8zc6iLwFAwE13Kj5hqAVVYjd7SLDBw2XWCsG/DhWER2aZCsNSIdsREZX3BWzRweEmlvs27MV9gHAABULw20RY/JopnNTb942536+79csxyaS3/BBmwE33zkJ/LZuUcq3gCUB8E1AKuutmtEDs51S33DNqlvi0t0yv322bp5HgvJQJu13FrXKWOpb8rz7wOvWy+/1ncDAAAAAJSO4BqAsmsZyu6+WSNdsXMyP6ct65vo1kGz3Gpu91DbCvsAAIDCaCaZflFlt36ZMYu13IKzzGrLMs3mZTy6fB+Z7k/v05Aj80yfq21IziaGZLu1zYFpXajdOr37aNbaDhlIJJwv1/pmU9lu4/Y56fPpPp7nTTHH0n2U93wumS0HAMDqIbgGAAAABNKsHLCzv90vq5wscA2saba4++XW6fa4bHcDVpazgyMio2Zdf1I63XXeL8Q089wt3+Cq2yOTU33SGO6T09Y2+kXb4viIJPtPmf30yzL98uyUHAyH5aCel/vFWmJIzuzUbfJlqmtQrltkzOyjgTWt22rOR69h7/iS2RYAgMoiuAYA69h/ef+TvhsAIOCm4zIR7cnK/l6SC3MROerJFq/t6pGOWDyVKdbYP5LaJ3OdBrhMplh3XGQueclssdr6kJwd3GGy2FYQ7pPevLVVkzIc3SFnetKZ8YvzSZGYKR9hte2DCTl7ft5ZCQBAhRFcA4B17Po3/dh3AwAEmwagGrfWm7lSOd05NcBlZ4tphppZsyKT7bbrpAbBVhrE4NKS85mZaY2pjDjTMspLAABQOQTXAGAdO/7ULb4bACDYatsiIoM9WQGtGtnSEE939bRo182JaCTVHfPs5FQqIy29bl7OJMLSFDLLp+Jy1pksiNZjPd0vEpvy03UzJL2xUxKd3CHtpuunkxE3mqMuGwAAlUdwDQDWsaaLz/LdAAABpzXQPKNyu4MTtAydSo/IrV0qJyNy2pP11diQkL3L1jVLb7+kjrX3fCh35lpdm0QlPaDB4vjujOc5Yo8KXiN3tJtjeYJ8K3NqtWmAzR68oHXQqQdnjq3tkl1PAQBYJZuetJhpAFXo7rvvlhtvvNHMoZo8dCh3yeVCXHOgPN+1n//AH5qp4m399feaKQBAxTx5UeT9bzAzBdi0WeQ3PmJmEHSVuO/bqPeWGujdKyMyaQd4/dIRa+OyK+/AG/489PDDcuHBzXLfd58wSyrndTdeK89+5lPM3OrS67zm6qvNXDBxjZVTbf+WEVwDqhzBtdUxPDxsporX29trP1ZDcO2T//5vZqp4t7/xl80UAKBiNLj28SEzU6DmPzATCDqCa6uH4Fpuy4JrC8ekvW3IdPvWUX11lF97xqavow4gorTu4WTXvPWadMuEvSTNWVfjjE4cMwt3/qXMjxTx5cI6RHCtcqrt3zK6hQKAT2e2hHw3AMAGpZloGiwrpgFAhSxOifS6g4RMRSTW5nQnt9dpYO18T2oQESdQ2SyH3O3tNiYdEpFee92sXNiaHnhkRH4/VTcRCBoy14AqR+ba6vi7M+82U8V7R9Of2I+z8XfYj340R/5OPjj6PjNXvLftf6f9WGrm2j/80f8wc8X7r3/uf18AALAcmWurx8lc65HoZLcM2IlXETnqyUDzZli5WVd2Ftd+kWjDkAzEdPuInNDMtTGRzu545rYqI+vLHH+6X+pPRsxotulRdw+1mu0Ph+T9B2+s0m6h3ky9wrL2VsoQvPuvd8nBZxzOuS4oyFyrHDLXAKAKvPQLTb5buTzz0a/7buVy1XX1vhsAAMB6cnZwRGTUyaKyB8QwA2poYO3ETjfzSgfO8IyymxiSM/Y6N6gUl04NlpksrZA7Iq8JxB0xWVrzGoDT44fC0jiXdEbgXZiSmIQledJ5Xh11V7ZW8T3VQlKS4bDYfS50OhqWC1F3EJHdWSMRqyW5czJkstaW+/qFOQnVBzewho2NzDWgypG5ltuxe75ppoq354YXyls++BozV7x/etsn7MdSM9ceP+w/c+2KfeXJXFv444+ZueLVved1ZgoAAJQDmWurZ3lGlZuJtV8uRHeYbLa0jrFzcihkAmaxPVJrL12evZU6bv2o1JtstpRwn5yOtcmd0R6R0eNyx9RuGa63pkeS0msdM9m3Wy7sOy5vurIaBzTIyrLTDDzr+uzXxZ0fCVvX5742lowsvSy67q9eLKfje9PbBxCZa5VD5hoAlMFP/vc9vpu69fJrfTfX8x5+ru+mYg81+W4AAAAoFy3cbzLOTLMDSMWKjmUcY94OPNXIHe3Wfd/UkiTPh2RXa7PsaojLnQuzcmIuInd4BguoGpqF16ABwazXIdwnve58a0Q6EglJmlk1czIpB/ctD6xpZqAG3b7wgbcGOrCGjY3MNaDKkbmW24mzf2emirer8R0yd/MrzFzxGu76kv1YatbY8PGomSte726nKEip5/Dbn+g0c8X7m9ccNVMAAKAcyFxbPXYx/slIKtPKntfi/EPNTr01GVueceV29czIXOsWcbO37PkRadIRNcXati0u0azRNW12bbWEhCQih/Q5pvulfSQp1v/sTDrNBKqq0UIzrtnI+Vp4s/is+aiTkefdz+1yq68XWV3BQOZabgTXgCpHcC23hw6tVEp1ZdccmJEnpvrNXPGe3jZoPwYhuPaxD91t5or3urc678u3f9HJBizWP95yg5kCEESf/8KvmKni/fwr/8VMBZB16/346dNmpjBXtPj/m4f1heDa6rG7b54PicTizoADdpdNNxDkdIFMdw01gxHkCShJNC4TZvCDVDdJZbpOutKDHWR1sfQG5eqcYEW1BNdmTFfVZQHCrGvwBidtubqE2kHFkEyaZQSegoHgWm4E14AqR3Att1LrnRFcc86hHLXnCK4B5feVv/qQmSrey37vrWZqbd195oCZKt6NTYfMVABZt973RYv493/zZrn+xAkzg/Xguw8/JnPJJXnKZZfJtq0vkmde8XSz5tIIrm1M1RNcyw4yOtIBRA0KdsuETmYEJz2157yDGWQFG21Z+wUNwbXKIbgGoCjcAOVWalCJ4Fr5gmt+u5bSrRTILwjBtfe+e8BMFe8P/+SgmQqgdRpc83btQn7nzi/Iv0w6fx/V0y9/mrxtd4vUvtCpt3opBNc2puoJrq0uAk/BQHAtN4JrQJXjBii3UoNK93V0mLniXT9hf19X8jn87YHiugV5/dah7fZjNQTXPvbBT9qPxXrd2243U8Fw+Dd/1UwVZ9/f/7OZAtI64m8wU8WbiHzETK2tmT/5sJkqXsu732SmAiiAwTUCb2l/PT4hDz3ymJlz1Nc9X379V37RzK2M4NrGRHAtOLjGyiG4BqAo3ADl8W/+C/HLLx8V+fvXmxkffvOj9kOpga1ynMOJT3/TfvRj1y+8sCzZc7f8H3+DQ3zx15yBIYKC4BrKieAawbUUgmvrxg+f+LEMHl5eL/AZT79c+ve92cytjODaxkRwLTi4xsohuAagKNwA5VZqUKkagmvH/3GfmSve7rcfth+r4XXwm/3mZr4FxceODJup4rxub6+ZAjxGSvh3v8f/QCXlRHAtj4oG18xofmMinabuUd7i66k6SJk1l9ztnQCadaBuU28p6oysqMs7TWF35xhtcqe3ZpPZbiMguAa/CK4FB9dYOQTXABSFG6DcSg0qnf/AH5q54m399ffaj6UG18pxDqW+DqWOumrzG6Azwbmg+NGfv8dMFefyP/pjM4Vq8fGP/6mZKt5rX/v/mqnS+K1lqKqlnmEQsu9WRcWDa90y4Qa4NJg2EnaCaFkj+6WKkdePLh/xz+IE0cwIilkjHebPXNNAXY/IaK6RB4OH4Br8IrgWHFxj5RBcA1AUboByKzWoVHKXTkupxyjHOci7rnEe/fizh0oeddVGcM3mN5AQ6CDCOnXPe//RTBXvhj98u5kqzeOH32eminfFvneaqbVFcC2PtchcswNimfOh8d2yfTBrSEANwu1LSnvbkEj/qYxR/7IDaN75ZcG1rBECM7LlAozgGvwiuBYcXGPlVNu/ZZvNIwCsK7ummnw3pD3v4ef6bq6HHnnCVwOQ3/H5L/pu1WIiuei7oTIa+0/J/Ny5dNNstbo9MmlNH5EeqW/YJgemzcaFcrPjzDGP+i/tCQDAukHmGlDl+HYxjxIztkoeEMFSDZlrw/+etB/96H1jqCxdU/12LU11Kw2IL7z+1WaqOK/86KfMFKpFNWSulWMk37VWjgFTAqlKMtda7OwyMd088/B0HS00c027l24/32O6lerzWU9C5hqZa1iRZgI9/tPLZfNll5kllXPF5ZeRuVZGXGPlVNu/ZQTXgCrHDVAeJQbXSh4IQJUaoCtDgK/U4Fo5AnwE1wy/BeirpPg80j43Nm6mindrd5eZKk05BjxZa3974LSZKt5vHdpupgKoWoJr1pwdCPN0DbW7b4q3S6dbY23lbqGpbqD2gAYhGdY6b/ZWEemIWss9+wUZwTX4pcGKzdbv+rOvusosCSYCT8FAcC03gmtAleMGKLdSg0rlCK6VfIwqCK6V4xz8Zr+5mW+BQXAtMAiulcd9HR1mqnjXTzihmUCqaHANlURwDX5psEIRlFn/uMbKIbgGoCjcAOUWhOBaOc6hGl4HgmvGGgfXHt6710wV7+ojR8wUlN+RX1W5Rn8ty0i+aywI17AqrFvvhw8dMjOFufp3f9dMoZoRXINfBNeCg2usHIJrAIrCDVBuJWdslVqzzUJwzTkHv11LUyOeBsQt/+cVZqo4X/y1L5mp0hBcK59qCK6Vox7iWiO4ho2G4Br8IrgWHFxj5RBcA1AUboByKzWoVHJwzkJwzTkH311LTbfSavCtd/kfVOAFf+YMZLDWwbXY//oHM1W86O/+VzO19qohsOU7C1GVKROxHPUQS1bi6xCEACFQDIJr8IvgWnBwjZVDcA1AUbgByi0IwbVyZM9VQ3DN7zFSwbkqUI7g2t+debf9WKx3NP2J/XjPPUP2ox833NBXluDazOnd9qMfLduPm6nSEFxzBCG4VhXXAFQQwTX4pcEKBjQIBq6xcgiuASgKN0C5EVwjuFZOHfE3mKniTUQ+Yj+WGlwrtYi+38w55WbPfeITn7Af/XjNa14jr/rUWTNXvM+8utGZqILAVlWcQxkGGynV5P/+opkqXvt/u4XgGjYcgmvwS4MVz75vRjZvvswsyVLz8yJXvsDMrF8EnoKB4FpuBNeAKscNUG7d77/LTBVv7DdurorgWjnOoeRjrGHtuWoKrpWjXlmpwbWJEkZH7Ojo8P38yj2Hjx0Zth/9eN3eXrn+Y/5/L+973c3ORBUEtkoNKpVDOQLfpTrc+etmqnj7jn6gKgKEQCURXINfdrDiPw6InM0xMvALrb+P/+VDBNfWCa6xcgiuASgKN0C5EVwjuFZO5QiuvefMH9mPxfrjpj+3H0vNnhs+HjVzxevdHbMfS+2S+fjEV81c8a7ouMmZILhmq4bgWsnZkATXsMEQXINfBNeCg2usHIJrAIrCDVBuBNeccyj1dSC45vjC6526aX688qNOvbbj/7jPfizW7rcfth9LDfD5De4pN8D325/wHwz5m9ccLcvr+Pjh99mPflyx751mqjRPTPWbqeI9vW3QmShRNQTX5m72H1xruOtLVXEN1Uhvve/5wnfMXGEafv75ZgrVjOAa/CK4FhxcY+UQXANQFG6AciO4Vp7g2lq+DtX04bnUoJJ66FCL/Visaw7M2I+lBtf+seejZq54bx95vf1Y8utQhqyzcmTglYrgmqPU14HgWm566/2+3501c5e2afMmeedfNZs5VDOCa/CL4FpwcI2VQ3ANQFG4AcqN4Fr1BNd8Z7+ZzLdqUI7BAEoNrn3oXZ+2H/1465/9gu/nV+45vOWDr7Ef/fint31C/vMP/I82+ot/4Yw2WmpA58++9GFnxod3veJN9mM5XstSEVwjuObaKMG1xfHdsldGZLKrxixZfwiuwS+Ca8HBNVZOtf1bttk8AgDgy/Atn/fVguaBa1/lq7m+2fhe3y1Ihl9wme8GAAAArAUy14Aqx7eLuZWasVXq/orMNecc/B4jlflWBcqRuXb+A39oPxZr6687wbFSs6XKkW1VapfMcpxDqd1bSx0YQvn9WSr351myMtRDLBWZa6uDzLXcyFxzkLm2MZG5FhxcY+WQuQYAQJXZsvkK361ccmW1FdqCZOdL3uu7qT87/IjvBgTPrBxo6JeZ6X6pb9hmtwPTZpXyLK+PHpNFs1gWjkm7u1z3N4tn+txlmdtrYKx9fFbGo1nr9Pje49rns1vGF9xp93j9cqe9HgCA9YnMNaDK8e1ibr/0l4V/65/tP36/uSyZa6VmlpC5Vj2Za+Uool9q5lqp2VKz8XeYueI1R/7Ofix1dMhynEPJxyjDoAqf/Pd/sx/9uP2Nv2ymSkTmmpkKnspmrmkAq1smomMyP2QdQ4NdI2E5HdsjtTp9MuIst6Qzx+atfUakaeq4dNXZq2waWOsUcxyLbr/9fI89b08Pihy091mS8egOOdNzTg616nSPyKg5Vuo56+1tYu2nTKaac57Jfnd+fSJzbSPwvqf1fRuXXXOD0mK/h5f/3hTqkplrb/2QyM+RubYecI2VU23/lhFcA6ocN0C5VUNwrdTAVDUE19bydQhacM1vQMYNxpQaXCtHV8ZSg2vlOAeCa45y/PtQqpK7+VZBgLAaVT645n74z5wP2QGxhL00RYNwO+MZQTeHBhRGZUvMPY7KPJa3S6e3i6d3WgN0J3Zq0M3aN5qUXg3y2XvQLdRFcK3a5QuulcZXcE0zTNuG5KxOh/ucoLl9fjtkwPxqN2YErPV8u2XCng6bYLg9UzEEnoKB4FpudAsFgDVyz4OP+m4or5/7+O/5buWy9Vn3+27l8pzfuNJ3K5fnPfxc361cbv/xpO8GrCf6wXt+7ly6aRbafFIat9abLUpX29UjockpWbQ+2J+Y65PeVmvhQlL8h48BOIG1hPS6v7tuoHphSqTH/Z0+JdHJHaYruAbdnOxQe91YSAb2e7tsAygVwTUAQElyBf8KadXkzS/+776b64FrbvPVgGp1ZkvId1O5RgkutGH11daH5OzgaKqemqu2LSIy2GPqorlqZEtDXDr70hl3i+MjMhGNFJCx0yy7rH3vHI9Lsr3NCQDUtUlUhmQ4Vf9tVoazs+iAVaSZku3jx8Su++e+r/PVIPQu75syC7NpVphbn9BMe/YrqNZhEWYOD0loLEfGXN0e6dIAtk1/b82kzMuZRER63Sy21v1yUKzfy4zfcwClILgGANjwcgUHCm1lc/cJ/61Mcl1foQ3AOtM6KKf7k9Lpfsh3AwDWh/NJzWppc5c7AYOWoVNycK47te32yYiczug6ml/LTut4g5L+YG996O8a7ZNkt/sccWnqD5t1QGWcHUzILpOxmaoHaDLBTrfHZe/4kpMh1p2Ug1MmG2xnItXlcmVx6XSPNxaRiRHPIB+5nqcoS3JhLiJN87tTv4/tOY+h24WlSf9E58wWTcgZUkiBsqHmGlDlqIuRWzXUXKuGemfr+XVw968G5agV5rd4u1u4vdQaW+WoE1ZqvbNyvI4lH6MMNdeqoRB/NdRcK/VnUQ3XUI0qW3OtSrgBhQKDcesVNdfWj+wafzqfrwZh+/x+T92ylQY0yDWt0vP5ah1+4eCNRdRc0+N5Biqx55cPpmBfkxl0xDlvd6ARa9bUawuNmfkKoR5ZMFBzLTcy1wAAKINdU02+WjXJVces0KYevOY2361cbrn2qb5bNcnVlbrQVi65fk6FNqys4dbnF9xueOXzzF7rlfWhfiQuHTuDHVjD+pevBmG55Xqe4oXl4D53v2bZFfVmoWkgbZsdPEwfOytbdL9INGqy2gCUBcE1AMCa+tMzX/fdEDy5AjWFNrVl8xW+GzLlGrCh0Ib8Nm3aJC1v21pUW7fs2lI7JNZ+qqLZMUCxVq5B6Fk+PVpgt9Dc8j1PceqlKW8vajez7tzykXe1y7cb0IuF5IzVtlR4tFAgyAiuAQDW1K/F7vbdUF1yDdhQaCuX9z/31b6bK1eGYaEtSE48/92+G2BrHbQ/yC/7kA9UmxVqEB7xLj8ZloOllAfM9zxFqZE72kUGDpvu5QvHZDgWkV0awJ4elVj7SEb30Fxm+nTk0P0FDEgCoFDUXAOqXFDqYsz0bZPOmDPd4a3vYGo+nNXpcJ+cdocSt+Tdx1JqrbFS91fUXCtTzbUy1MgqVTnqlfmtL+XWliq5PtW/dZo5H375qP1Qao2tctQqK/Vn8dAh/x8VrjlgcgnedY3z6MefPWQmSlOO381SlfrzrIZrACqJmmvwy65hVXDNNUf6PjksB029tby144aaM+6rtWvqWgS9qUcWDNRcy43gGlDlAnEDpN1CRsJO4MwOpiWkN1XwNV2AVf/oD291/thnFGHN2MdRDcE1zqG0IKP74Xnyf3/RfvSj/b/dYqZKQ3CteoJrpV5HOYJr1VCIn+AawTWsPwTX4Jef4Np6ROApGAiu5Ua3UACrTovBNra3ORlpdW0SDSflwoI1PR2XiWhPKnW9ZV+fyOSULMqS3Dkp6UKtdXukNxqXE0WnzWM9uH/7Sd8Nabm65hXayiVXN8lCW7mc2RLy3QAAAAA/yFwDqlwgM9f2ixyxpmU8cxj09FDlETmRMYT58iHTyRpb/+fg7v+PPR+1H/14+8jr7cfIp/1FXuO/4PQ1robMtZKzfMrQlbHU16EcGV+lZkvNxt9h5orXHPk7+5HMNQeZa0BxyFyDX2SuBQfXWDnV9m8ZwTWgygXlBihdAyIiR03QLDtgVmhwTf9B/9W/819r65/fcWPJ+yvOobRzcPe/JvZW+9GPh6LWzabl4gfusR+LtfnXb7AfE5/yP25X+NXOu/TYp/zV2trzaicodnDC/+inAx0vlmv+2n9Q56HfcYJJpb4Ofl8D5b4OpR7jzCd/38wVr+n2v7Qfy3EdpSrH72apZr/2QzNVvOaXPqPk93Q1WI0PD3rrPf+54gKXoduuN1OoZgTX4BfBteDgGiuH4BqAogThBshbS80JoDl11u6YInPNryCcg7u//L2TfebLbzpZb194fXqkx2K88qOfcibKkPXlN0vHzdApNcunGrLGynEOpR4jKJlr5fjdLFmJvxdkruWmt94fPHCnmbu0TZs3ydv+1x1mDtWM4Br8IrgWHFxj5VTbv2XUXAOwymblRCwivakAWrP09ovEppaktj4kZ8/Pm+WWhaQkw2EJSb00uXXZjOT5hITq3WMAWA25aqEV2qrF8x5+ru8GAAAA+EFwDcAq00BZXIbHl8y8DlZgAmWtEemIjci4CaLNHB4SsQc+qJE72kUGDpvMjYVjMhyLyC6nPBawzCt3PuaruYZv+bzvhrR7HnzUd0P1yfV+L7QBAABsJATXAKyyGumKjUlocIfUN2yz2g6JtZ+SQ3agrFkOjYVkoE2Xb5NOGUt1+6ztGpGDc93OPm1xiU6lu4giWI4/dYvv5vqHb+/21ZApV5Ck0AYAAPy7GN4l8qsfWN5e83tmCwDVjOAagApolkNz52TetHSNNUvrYGr5/JC3TpAG5dx9jktXnVkM5HDVM3/iqyF4HrzmNt8N5XXhgcd8N5SRjthtf7lltb5jMh7d7WSM6+jd0WOy6GyVNa81UM0+Vmv3ZJ+PR9PLD9gDNWcuq+9z6wXqMfplfHy3tdw8J4C8Hq1tFdnWkbsFoN4aEHQE1wAAa6rp4rN8N9e7XnzSV0P1ydVltNBWLrmOXWhT/zm9zXcDykoDZt1JOThlvqzamZABHbj7krxfimn2+ajYYwlPj8pAw5hZfs5koXu/DDslB+fS5R5E4hKTEWs5X5IBl3Lx4kUzBWA9IrgGAFhTuTKICm1ANXrOl//UdwPKKpkQ6R9JB7Za98vBsJm+BB2l28lG65YJMYMMhcLSGOv2ZLIZqey4HTKQSMiZ1IC73gGNAAAILoJrAIA19cA1t/lu5ZIrA6nQVi1ynVuhrVxyde8rtAXJFT++6LsB5bQ4n4pyFUUDa9vP96Sz0dyAXN0embSWHZEeO5hmdwvVwNpIWE6bbLajUWdTAAA2EoJrAIB1b+/L3+SrlVOugFEhrZrkCrwV2pB2wzPe67tVk1w/50IbqkNtW0TE7dKptFun2y20LiShRFzuNF04F6fictaZlOT5hDRurXdmFqYkltWVtLbruMyPRWTi5KwTwGsISa29ZlZOxOwJAAA2FIJrAIB179vyA1+tmuQKvBXaACCnuj1ypD8pne5gAyfDnm6hzdLbL6kRu/eeD0mjWdOyr0/EHeV7f0J7gzq8gyN0ixwdapbarh7piJnRvRviImSuAb5s3sxHc2A94zcYALDu/fEX7vLVEDy3/3jSdyuXyaf8ve8GlJudZWa6bM4PtZmlDu+6yaFBmYztcTLQTPdPe11sUA7FzIAE3hG+5walRbfNGPzA2nbIHehAl7vbALiUK3+4IHL/mcz24NfMWgDVjuAaAGDdO3/Zy301YDU86+onfDdsDKFX1RTc6m+93uwFIMg2P3BG5Kv/mNkArBsE1wAAG16urpaFNlSX4af9se9WLp+6Ke67Ifg2bdokr3prU1ENAABUN4JrAIA1tWuqyXdDeeUKHhbagiTX9RXa1Ivft913A1ZXjXS5XTwBAEDZEFwDAAAoo50vea/vBgAAgPWH4BoAAKgaubLBCm3qngcf9d0AAAAAPwiuAQAQALmCTYU2IJdc75VCGwAAwEZCcA0AsKaGb/m87+Z68JrbfDUAAAAAKBXBNQAAAKBCnrT++/LDny+qAQCA6kZwDQAAAKigf7/vwwW3j9x3wuwFYLUsju+W9vElM1eihWPSHj0mi2YWwMZAcA0AAARGrvpfhTYAANYTDQrWZwTyZuVAwzapt9tuGV8wi23edf0yY5YCKA+CawCANZVr1MZCG1CNzmwJ+W4AABRmVoYHE2ZaLcl4tFuS/adkfu6czI+FZGC/G3jTwNqINE1Zy3Xd3KC02MsBlAvBNSDQ9I/sNjkwbWan+823VdvKl/oOAAAArHvz9n2zfa+ckQ3m3E+799C57quXZ4mlzfSl903df5uuo+P2un75pLO0KIvjIyL9fdJo5vX8zyQi0ttV48y27peDEpc7rfPSbZP9I9JV56wCUH4E14BAc/7I7mrVaevGYCQuHWP6bdWYhCanqAUBAECgabZKv4xr17HUh//cgQKn5tRsap0dBPAED1IBBeUNKqSCEJnHre+btZcqu+tajuVANTk7OCIyqvfJp+SgDMmw/Z7X93WPWe7cQ0u36VLZOmiWWU2zxA4vf29rYO3ETnffUxKd7EkH4RJDcsZeNyi3m0UFWzgmeycj0ttm5tVCUpJmMi0hZ6yFyfMiURnl9xBYRQTXgECrl6ZwUi7oH/HpURmQPum1A22WRCLHH2AAABAscYnJiPUB/rh01a0QKLCkgwtjEhrcIfUnI852YxGZGDFBNM246RY56gYVYnuk1g5A7JBYu+mOZrWj0m2ydLTrWii9/VCzHgWoOo2pzK4auaM9LMl5ff/qF9UJGWgzQamGbpmw7qDte2tvQLk7LjKXzPriekkuzIlMdLv77pAB61ga7LKFPfflRbGed39coqP6u+dR1ybRcFxOuIHwhSmJ2b1G9Tysa5gMy2n79/CUHJzrzgyYAygZwTUg0Gqkqyfk3BB0J+Wg+SOsqeET4bBQ3QdBcfsX3+GrAavheQ8/13crl474G3w3BI2nm9iKgQJvcEG/nAvLwX0mEBYKp7qeLU7FRfr3Z9Vrso4rfXIk9TwiLfv6ROwseT1WXDoZPRHrViQdHLabG6jeIWd6zLIpb/dML+v3KFXnzGmHfAXU0mb69Hn1HMyCFOu+f7RPkm4wb79INBqWJnPD39HjBuO8wUMA5UJwDQi6VMp6+o9wbddx800zEAzddf/pqwHAxpMrUGBWFSB5PiGh+nQQ7dKsD/wx63lGRfbqB366o2FdcYLDw8tqFWugOh240qDzWWfSo0a2NCRydhf1beGYDMc82XBtQ3I2MSTb3dE/6/bIpPu7HQvJGattqdPzsPcGsIoIrgEA1tSFBx7z3Vy51hXSgKCaSC76bgiyfIGCwrXsjFgf7NNdSR3WcWVI9nqOO3N4SKS9Lf1Fnv2hf0w6YvGsfYFqpsFh003azva0mp2F2Sy9/ZLKAt17PpQzc61lyOmCmdrXDYL55Q2eadOMuXCfnM4x+udMn44c6mSZ2r+3btduu6u2SLStmCA5gEshuAYEXEYR4YxW4h/3NXbhwcd8NwBYTQ9ec5vvVi6Hv/Jy3w1Bli9QUITWQTndn5TOjP2XH7dTxmTS7iaqgyqYbRu6RcaWBwGAtaa9Opz3qyNzvlkOeQNapveH3RPELJscGpRJt1eIBsBSPURM5mZqf/P+z9imfLwjkw5vPZW+Bv29bY/L9tTvYXEZqwAujeAaEGjON1N2rYexiDT2O4WGT/eHpYObWwAIrGOtZ303BIkGBbL/3ucPFKSDCRoQ8Hz4zgoEeIMK6TITWcdNDVyQubzUelMAPLJ+N1uG0r9r3mCh8v7e8nsIlB/BNSDwtNaCPoRFzs/bS2q7ejJGB8PayJVVV2gDUL0euOY2361c/p8v/C/fDavv5df8fMHtZdfcYvZCtbv88qfK5k2bzFzaM57+NDMFAAgqgmtAoDXLrqgZkrsuJCG3zslCUtxRwAEA5bVrqsl3K5ffevmf+25YXZus/974wjcV1bA+aGDtlS9fXjn+FTdtMVMAgKAiuAYEnKaH7xIdpUgLr5oaKW1DOYbRB1CKXBmGhTRkyvUaFdqQ9tAjT/huAPzb+YuvlOZfuFGuveZKed5zr5YdLbfI7bduM2sBAEFFcA3YAFpanbonGYVXs+owAOtZrkBLIQ1YDcO3fN53K5cHrn2V7wagNK+7/SbZ19ku3b/xBvmFV77ULAUABBnBNSDQdISu3TK+YGYBABtCrpFIC20AAAAoDsE1INDqpSlsJhFIubKxCm3l2B/wyvU+KbQBAAAA6xXBNSDQdCj9HjnTxsig2XJ9uC+0Aash13ut0IbyyvUaF9rUPQ8+6ruVS66RSAttAIDKu/jcJpGb3p7ZAKwbBNeAQNNuod0yIXFnIIOMRsCtVLk+WBfagiTX9RXSUH1y/ZwKbdUi17kV2oBKeNJq57/3g6IagOB79Bl1Itc1ZbbnULMPWC8IrgGB1iyHzAAGy9sgo4UCAZIrWFRoA1BZn7r/ewW3T1sNQPBdvHjRTAFYjwiuAYGmmWu5MtTyLQcAAAAAAMUguAZsRAtJSZpJAGR9ofrkeq8V2gAAAFBZBNeAQFqS8ajWVctTb61tSKR/P91CAQAAAAAoEcE1IJB0lFCtqzYmHRKRozlqrk121ZhtAQDldOGBx3w3oLycMhDj47ulvmG3jC/oMvcLOKcdmLY3lEVrm/bx2fS66DFZdFbZ61Jf0HnKSsz06f76HOljpbd1n8+Y7jfLrZY6dq7zAzamzZv5aA6sZ/wGA4GmAxowcAEAABtXXGIyIvNzx6WrTgNrPSKj7pdtYyLd6WDZ2cERs+6UHJQhGTaBt9qu42b7c3K6PynD40vOCstEd1x26bqpPkl2b5O99nPpdiIDh2edjTSwdjKSPkZ7XPamjuE9P7MI2IA++9BnZGphKtUArC8E1wAAAAJm11ST74agiUhvKlt9Xs4kEjLQZjLI7PIRSblgMsYa+0dMgKtG7mgPS3LeDYCls9O2Dybk7Pl5s1ykY8x8iVcXkpDnuWrrQ/ajWpxPisS6zXNmH8N7fsDGdeobp+T3Zn7Pbvc/fr9ZCmC9ILgGBJrT9cPt8uHtktHu+dYZAABsFNnlIi6VMaaBtRFpmjLbj0XM8uI09p/yPKfVhprNGgAA1j+Ca0Cg6TfUEdnVqtNLMj4Sl44xvakdk9DkVKqWCgAA2AjqpSkcz+jWeUn2COMh2WICcDMn485EETSL7ezgaKr7KQAAQUNwDQg0vYk23T2mR2VA+qTXDrRZEgnrZhkAEETDt3zed0OQ6YBHYxIa3JHKZPcOXJBT3R7pjaZHHj8hPjLXWgftWm3e0ctTWfUAAAQAwTUg0Kyb6J6QU1ulOykHR/dIrbV0cXxEJsJhSVdDAQAAwZNrYCNd5umeGXPuDXTQAu9I4t75lqH09oeGBlNdOnX5IfdLu+znak1vp7yDItjHsfdj4CUAQDAQXAOCTm9u7RvZdE0V+wbX3EwDAIDK2nrVMwtuDVYDAADVjeAaAGBNXXjwMd8NANabTVZ79XVXFdWA6sFgWQCQC8E1IOgWjkm7W+PE1FVZHN8t9X2zznoAAFZBroB4oQ1AtWKwLADIheAaEGjWTc/+IQnpTc9UnzSapbVdPdIRizNqFwAE1D0PPuq7AUB+DJZVnFk50LBbxvX1AhBoBNeAQPN+u7jW9ObCZNA19KcDezky61wzfe72jCoGAACw9hgsqzg6aEe67rF/3vvozPtiu0eKuy7jXjr/PgDKj+AaEGjNskuHz8/oAqq1MrplIhqp4Ohc+sd9RJqm3FHC3JHBrOVtcYma5UcbhmSvqdehNwqdMuZsP9UnyW5PQA4AAABrg8GyKm9BZJd7H511X5ys7zE/j8x76ZX2AVB+BNeAgNNh8o9Kt9S3DcnZxJBsb9ghAw1jGcPjrzb9NjPZP7L8W7vpuExEe1LLW/b1idj1OpbkzkmRg/vMOdbtkd5oXE7wjRsAAABWSWZdYv1y2OnSqcvbx2ftwRw0C8wevMEzmEMqK0x7ZESPybjd+0KDWXoMT1DLs099n7VdtMAuo3XN0uLeR9e1SdTtmmtpaU3f07fsjMjZ8/POzAr7ACg/gmvABqABNvcbLbtVMLCmkudFojLquZlwbloW55PSuLXenrbVhSRk1+vQ7qwh2eIJxoW2hiU5zyhUAIB17skn5adLnymqAdUkoxtiRlv/mVG1XSNycG7EDnjN9HWLjKWz884OjoiM6r30mIQGd0j9yYhzXz0WkYkRT3fMxJCc2anbuT01DA28aVdaN5tsZ0IGEmZdMRamJCYRucNzn+yaORmXjp057vNX2AdAeRBcA7DKluTCnHXzMBmW03Zw75R109JdUt2Hhx5+2Ez5U479OYfSz6Fc18A5OMcoBefg4Bwc1XQOa91Wy08THy68fe2E2QuoBrMyPChOgGgsIo39p+xA0en+sHSMZQWT1qUa6RqNSKxtm12e5JCnbnFjqheGDuoQTvewCIVTg4bZwp5BHrySCTnr6bEhrfvlYNhMFyAV1NwvciSjC266ttqJnecyzjn/PgDKjeAaEGjpP7bLW2W/Xezocf+g18gd7aVloV1z9dVmyp9y7M85lH4O5boGzsE5Rik4B0eQzuHCA4/5buU6h1K457DWbSPRQYTsrm5FyOxCh43D9C4IhUVMF0QdiV6CUtNLe1KYyXJa1mOjSHZdO/2ielRkb8YIpDpogpMNt+ukdY/v+Z3Mvw+AciO4BgRa+o+ttx2NSgW/XayRLQ1mMkttfShdF0ItJCVpjzTlGebdSJ5PSKi+xswBAIBy0hISk13F/Z21P7hXuNQE1pozWJZdB1eDULG4E1DTezh9XPd04C9nEC6tWVzOETZr2yIig6Oe+muj/rqF1u2RI/0isanlwfCWoTHpcH8mXivsA6A8CK4BG5D+4RVvbYhVpsVV07UonO4E0TbrBr41Yt0AOHUt1MzhIZH2Nqm1s9tEBg6bb94WjslwLCK7cqXYAwAAoGI0ELvLup/TQFtvf1I6tUdEm3UP179/3XcLnenTgb+crps60Fayu4zZXnaAy7xe2k6GC+4Wujg967lv99xLW9MzngCgDiI2EY3YP4f8+wBYDQTXgI3KHjigQloH5XR7XLbbNxPe4rDNcmgsJANtzk2G1rZwvzV3Csp2OzcfbXGJTgWhjgcAAJVkRipMjVCo3fY0M8f5u1sfTX/Rpt1C3Swde3r8mLRb22SPiljv6VrmjKBIJsxG5I5Qmep2aLViMx+rkT0ImJuNWbdHJuece1a9zvT11UhXLD3Qgb2dW8/MO23TXiTpe1jv6zU/FFo2gFc+teLeR2vz3kvXy4URd/k22T4ZkdPm/PPvA2A1EFwDNiAd/WjC7n5ZOd6bCW+hVQ28pW8yvF1L9MbFLDc3NgAAoFhx6TSjGp62s2Z6zIiHp+SgDMlwnm5vE5MiR6x97ICC92+1finmZpYD8M2bZXZJ3t9Bq6Xvpb33y1bzBvby7gNgNRBcAwIt94AGnbGIHGXEIADACi48+Jjvhmpi/c13M1nqQyKp0Qrz10RV6YGIlCfbrTsuMpesWGkJVAE7c9HNWKyewbLWn8zXzptlBmD9I7gGBFruAQ3mPenpAAAA+WlgbYec6TH3EFN90mjWYIOwM6DcXgT57i21cX+5sqzXji+6gUAhuAYAAFBGuTK5Cm1A9ZmXM4mwNJlaEotTcTnrTAIAAIPgGhA4K6Xrexup+wAA4FJ0REhJDT6093yIzDUAALIQXAMCR2+Czbje4T457U0/z2ik7gMAEGyZIxXa3fs8NZ50ZES3yHm+aZUxIuTQYGo0xMwRFBFcfHELAJdCcA0IoNRNcE/CDMGdHjYfAACsrafU/kLhreY2sxewVlaqs+ZtfHELYOMiuAYEmTsE91REYqY7R/v4klkJAAAqbtMmecpLf7moBiD4drxoh/xVy1/Z7borrjNLAawXBNeAjaBuj0za3yiekujkDid1v2/WrAQAAADymO739IJYqYso3UJLcds1r5K2urZUA7C+EFwDNpKFKYklnMmOrfWy6EwCAAAAudk9IY5LV53OrNRFlG6hpbh48aKZArAeEVwDNoDF8d3ON4ptcYlOOTdAh7pq7GLEAAAAAADAP4JrQGAtyXjUSdPfPhkxo4a63zoCAAAAAIByILgGBI5bC2OHDDSMOWn6Zsh8AAAAoBSpHhHLGjXXAGxcBNeAIIt157jxcRs3QAAAVNzFi/LIP/9zUQ2oHrMyPChy0JQZyWzUXCvF5s18NAfWM36DgcBZqdCst3EDBADAWrj/z99bePuLQbMXUC1CsoUyI2X34OZvyvzjc3YDsP4QXAMAAABQmOl+qe+bNTPYeJrl0JhIJ++Bsrv3iXtk6v6YLD4+b5YAWE8IrgEAAAAACpez9AglRwBsXATXAAAAAAAFmJUD3XHpGKPkCAB4EVwDAAAAAklHEO+XGe3KmcosWpLxqMk0ih6TRbOleJdb7cC0WZyxfLeMe3usZXcRTc27I5enW/v40rLlzjKsPxHZ1WomAQA2gmsAAABAYMWl82TEziw63Z+UzoYekVHNMjolB2VIhu0gmgbQ3OXaxkS6nS5+M307ZKBhzCwfEZmM6w6X4BlcaapPGsN9cqSrJnO59RyhwVG6Ea471FwDgFwIrgEAAACBFZGjQ832VG19SCTaI132SI81sqXBXmyZlzOJhAy0uVll3TIhSbmwsCQX5tL76z5dPREzXYglGd+fkN7YHqk1SxbHd2c9h1mBdcLpFkrNNQDIRHANCLqFY9Lu3vSY7h/2jS3fOAIAgJSIHE1llWk7Ll11GnQzq33QrLczPek6XHr/sf18jzn+KTkYNiuwjnizD7MbNdcAbFwE14BA02+MhySkRWe1W4ZZWtvVIx2xON8uAgAAS700heMyvKwGWrPsinqXW/cVI55uoaGwNHruJ2ZOptdpIG146yk55KnNlTyfkMat9c7MwpTESgjcAQBQTQiuAYGm3zhTdBYAAKykRrpiWgNtR7qLn8l2bxnyLu8Rafd0C63bI73RuHSafU6IWbdwTPYOJuSs93h9s9Kyr0/EXbY/obE5rEPprr3Zbf10C9VrYEANAOVEcA0INOcb58yis1q0uFsmohFS9wEACDTtwufpqtc6KPOp+mkaODvnySzL6u6XqpPmXX5curqWH8Pd59CQWVe3RyZT+5iWvTw2KIdi2vXUHAjrxKwMD4ocnLJ+hmMRaew/Zf88T/eHpWOMbqGrZabPE8TMuK/PGpnXOwJwapTgrOUAVgXBNSDg9Kb3qHRLfduQnE0MyfYGM+qX58YYAABUzrPf8pbC26/8itkLqBYh2aJBUU09PD9vL9GSI+4Isyi3Wbmw1QliatP7+lTW3UJSkuE+OZ0KWpuguNZc7k46QVDdp2FI9pKpB6wqgmvABuD9VtluBNYAAFgbmzfLdX/4B0U1oHo4vSJOTFuTdSEJuTX3NMijj+uQZoUd0OsxvPPOdDo7TJenu8XulnEz2q3TzXRWxqPOdnbwy5M5lj6+9iBxltmtoAHGmqWrq8ZMi4S2ZvWnbgilRuNNSSbkbGpkYOuzgHbJnpwiew1YRQTXAAAAAAAF0S9td4kGhZqltz/p1NxrGxLp3x/IbqET3XHZpV9OT/VJsnub7JUR+8vq0/0iA4fTwbGzgyMio/pFtqlTeDLifKk9FpGJEbdbptY3NF9264i5cyOpAF2hdGCQUL0JtmkQLdZtgnWeYN98jlBnIrFuA6DAekBwDQicrNoLeRup+wAAACheS6vTC6K267gJFJ2TSU92VZCkaslppp5EpNdcZ219yH50NfaPmEwxHX03LAf3mZ4iOqquM+VIZbTtkIFEQs4UE/Gy9u2c65Net1ai1lE0r//8WEgG2pz7+9q2SMZIvotTcTlrpgGsDoJrQOBkFiTWArNusVm3HY16bhQAAAAArD4NrI2EUzXS9J68UPagBpoNlxpsJEvrfjkYTsoFzV6r2yNH3KxCq+2ViHSEw5IZDgRQTgTXgEDTEZ1CqW/YXDqsvqTS0wEAAIB8tFdEZo8Hp8ZYMArkaw2ziZNu985ZOREzk6vA7q6ZqpFW+HNpYO3EznNF1U3OyCqsT8hErtpsAMqG4BqwUVF3AQAAABucjnTakapbFhcpIpusWL6ea+GYDMuYHHK7guYzPSoDEpE7zCAGabNyQEcOdbupAlgVBNeAQHNGdOqMerPUdJSibpmIRugWCgBAhT355JNyV/Lfi2oAykuzutI14rwlVQbl0NC5VCBLB29IB7V0O09ZFa13ZjLJMo+ngxYcT43UqV00J1NdOfM/V14ZgxaYZu7t0yOXWq1b5Gjqebw1mEekacpzPgBWBcE1IOD0puB0e1y2p/7A7pCBhrGi0soBAED5TH/5bwtuH/vKuNkLwIbkHbTAbSaI5u36qcG69Bfn3iAegTWgEgiuARtA5h9eqxFYAwAA1WrhmLRnZN1j7cVTxfG1bR9MyNnBHal5pzESPYCNi+AaAAAAgNLoKIh9blF4S/Y81rHMkejzN0aiB7BxEVwDAAAAAAAAfCK4BgAAAASSDmLk6baXnVmWWn7M2m63jC+YdVn7HZh2lmrx9Pbx2fQ6t+umHqs7LmIXXbeO83+z5u3j5j5mxnnk6grqXZ86FgAA1YXgGgAAABBIOmqh22XvlBycG3GCU1rTrDspB6fMup0JGUg4ezhBsB6RUXe/MZHudC2ts4MjZp11PBmSYQ2SacH1sYhIdMxafly6/kvWfF2+Y1rLRzznkRrp0MNbzH0sJAOH6WoKAKg+BNcAAACAoEplfu2QgURCziStZcmEnI32pEcQbN0vB8NmWubljLXdQJubLdYtE5KUCyZjrLF/xOxXI3e0hyU5v2QvX1m+Y9bIlgZdvlIhfE/Gm2bDzSUZ6AAAUHUIrgFBRBcKAACg9wMjYTltMr+ORp3Fi/NJadxa78zkFJGjbraY3TT7zKzyLfcxW4Z0OiIn9J5lWbdQDaztkDM9Zp+pPmk0a4CgecnTb5C266JSe8VKv5sAqhXBNSBwZuWA50Z6fm5EZD9DowMAsNFoEE0aQqar5ayciNkTUtsWERkcTd8bTI96uoXWS1M4LsPjhWSkFepSx9TRKLWbaVzuzPhCUDPewtIUcuYWp+Jy1pkEAuc5F18o9Vc02A3A+kNwDQAAAAig2q4e6bAHFdBM9riIyVyTuj1ypD8pnW6W+8mwp1uo1mkbk9DgDrNfroyyHFoj5rlMxnzGfL5jerp8NuyQWLvb5dTVLL39kupOuvd8iMw1BNbFixfNFID1iOAaEDjNcmhUZK9782rdrJ7pGZQWsxYAEHwXHnzMd0OQaEaYm8k+KIeGzsmhVmdNbddxs9xqQyE5kwjJllRgy7uf1cxAA7rPZFeNs4klc97dx+1Cmm/ee0zvgAvn0seq2yOTnudMrR8aTC0HAKCaEFwDgkhvSs2NqDb3RhoAAKy9V2yJFNxuDr3B7LV6FsdHZCIa4Ys4AAB8IrgGAAAAVMimTZvkdS97Z1Gt/GblQCrDfZtsn4zI6aFmsw4AABSL4BoQOJk3zPkbgxwAALAx5e72CWDtbN7MR3NgPeM3GAicrBvm7DYWcTaj+wcAAABQFTZ96tPy2KlT8oNPfMIsAbCeEFwDNgwzIld3Ug5OnZP5Nen+4ZxDu3co/oVj0u5m02WNRjbT52bZbZMD02YhAAAAEDDfv/NOWdrfY+YArDcE14CNYLpfdNTQgYYxSY/atQamR2UgYaZts3KgLS5RDfbNnZOjDUOy1wTeFsd3S6fo+Vrrpvok2U03VgAAAABA9SG4BgRaNWSruaxzGRE52B8285bpuExEe1LBvpZ9fSKTU7JobXvnpLXtPnO+dXukNxqXE2SvAQAAAACqDME1IKA086sqstWMxfEeibXvlzvMvFqcT0rj1nozZ6kLSSiRkKTMy5lESLZ4zjm0NSzJeU93UgAA1qEnn7woHzn/L0U1AABQ3QiuAYHjjBa6fVCqIFvNWDgmeycjcqSrxiwozUMPP2ym/CnH/pxD6edQrmvgHJxjlIJzcHAOjmo6h7Vuq+X9XxwpuH3gS39t9gIAANWK4BoQWAkZaEsPCLC8VaqGmdZVS0hvGYf5v+bqq82UP+XYn3Mo/RzKdQ2cg3OMUnAODs7BUU3nsNYt2PTLuBXuBex6reaeoW/WLAQAALkQXAMCp1kO6SAAl2yD0mL2WE2L4yMyIXHpNDfo2wcTcnZwh32jXlsfkrPn582WloWkJMNhCUm9NIWTcmHBLLckzyckVF+ezDcAALACHcm7W+Sofb9wSg7Oda88ardunzXid2G0NuxuGff8vQcAYD0iuAZgVdV2Hc8I6p3uD0tj/ymnu2prRDpiI6mb6pnDQyLtbVIrNXJHu8jAYfNNuXXTPhyLyK5WZxYAAKyexam4SP9+8yVcjXT1RGTiJNlrAADkQ3ANwBpqlkNjoVT31U4Zk0lTl622a8T+ptzujtIWl+hUZTLtAAAIlIzunceWZ4p51rvZacuyxUNhaZxL2plpzoBJ7vFmnay1tiE5mxiS7eYYuk37+DG7Bqy9jfccGtzn16y1HTKQMGUs6HqKde8SXa0BBBrBNQAVpZlsbgDN1jqYzmzLGHyhRrpibsbb2o92CgDAumN370w6Axzp39OdCRlImHW2uHSejDjrxiIyMXKprp2zMjwYMt1FraZ/t+v2yORUnzSG++S0teyQyTI/O5iQXe423r/1+qWanZmuf+dPycFwuHoGYAKqkgai3eD0Nmkfd0fPz7fcor/7Znk6oA1gNRFcAwAAAIIomZCz0Z70F1St++Vg2EzbInLUDWppqYZEQpLOXB5aEzUunQXUV2tMdStVniBAd1zEZMEBKMDClEiPCU7PnZLo5A6TZTovW1LLxyQ02JMKoi1au/S6Ae2piMTayKgDVhvBNQAAACCAFueT0ri13swVLrQ1LMl5TxaMBukaQnZNVDurfFRkrwbKCurK6XT/POMGATTLzawBKiGjK7On26bTfXk2Ffi1M79ydJN2unu6+2dmiHmP3T6eFZrOyB5zntfe3vt7Y2/TL580sznV7ZGuVN3hGtnSYCalWVpSy5tlVzQhZ8wp1HbtSQe360ISMpMAVg/BNQAAACCAatsiIoOj6YyV6dGsbqG5Ze63JOMjcenY6em2qV1B58akIxYvIBtmXs4kwtJkPt3rYAlnnUmgIryDa53uT8qwJzh2dnBEZFTXaebXDqnP2U3aOxK/bmd+N6b7Zbunm/QRicuEvb1Fg2b7RY64+42JdPbNWufSk/F74w4ecruZv7QluTCX/n1Km5UT+Qb/So3GD2A1EVwDAAAAgqhujxzpT0qnmz1zMpzVLTSPjP12SKz9lKml5s3g6RYZM4MN1bVJVNIDGmRqlt5+SQ1etPd8yJO5ZkYHZ0ADrKr0+3b7YELOnp83y7X78ojpNq1dnq3fj30miKyDeDhTtnSGWrdMSFIuLFjL5pPS4f4OWOzAmZm2sz3NIB/2fqnu0JphFpcT9u/Jktw5KRJt89QivoTF8R4ZaPB09U5l2sVl11yuwb+WZHz/kIR69kitWQJgdRBcAwAAAALKm7UzPxSSM4mQbLE/mGs2jvfDeOa8d7/0QETeDJ704AXeQYh0WfbgRRnHGhqUyVj6g35qHQMaYFVoYG1EmtxBPcYiZnnhNLC2/XyPeQ/rIBzOch1Vd0XRMbOPaeZ937KvT5InZ+1aajFvoGxFTt3CvTKS+buSGiwkIicasoLbdpfTHjszL/27CmC1EFwDAAAAKugNL/3Vgtvrt77Z7FW6xfERmYhGcmS3AAGlXSLFDSiLzJyMOxNF0CBaqnahBsRMTK1lZ+YIu/bvl5m2M99iI7lH6dRMz7m4jE/FJeTtbp2XBtacIFnGiPsZmuWQdmXVoJ1KdUtlxH2gUgiuAQAAABWyadNm+Y1X7C+q+ZdZiH37ZEROkyGGjaRuj/RG46mu0Sek+Mw1zTQTrcemx9if0LiZo3VQjjaku37utY6d6haqdQnHQqnu0NrSAyFod+ikDFi/j72FZJRNj0qs3e2+6jE966l5mFkbceZwXKKjdAUFKongGgAAABBImd043W5pwEbSMpT+HTg0NJjqVpnZfVm7NnuyvDQ45v6+6HTqd2hQDnm28x57smtPZlfrVJdNd31m1llje1tBv49a2+2sG9xzm9YoDCVlOLXMWxtRBz1IZAT2tC2vhwignAiuAQAAAABQEbMyPFj4QAbemoWppgFCb9DPapmBQs+2plF3DVhdBNcAAAAAAFhlzqijOtIutdCAoCG4BgAAAADAKnOz0MgiA4KH4BoAAAAAAADgE8E1AAAAoEKefPJJue/shaIaAACobgTXAAAAgAr6+ufPFNwWvnDW7AUAAKoVwTUAAAAAAADAJ4JrAAAAAACsoWfdcYfUjI6YOQDrDcE1AAAAAADW0JOv/gX5uR075JmveY1ZAmA9IbgGAAAABNXCMWlv2Cb1ph2YNstlVg409Mv4+G5r+W4ZX9BlSzIezdp2ul/q+2Z1pcM7r9PusaPHZNFZCsCHixcvmikA6xHBNQAAACCINLDWFpfo1DmZn9M2JtLtBtJUXGIyYi0/Ll11IjN9OyTWfspse04OtZrNclqS8ZGkHHSPHdsjtWYNAAAbDcE1AAAAIIiSCZH+ETtw5miW3n6R2NSSmY9Ib1eNmZ6VEzHv/KXUyJaGhAy09cuMWQIAwEZFcA0AAADY6BaSkgyHJWRmC9EypFlrETlBt1AAwAZHcA0AAAAIolBYZLDH0w10VoYHRaJtObLT6tokKkOyd9zNajOsYzTG4qnstJmTcTPlapZDc6fkoMTlztTzACjW5s18NAfWM36DAQAAgCCq2yOTYyEZaHMHKegWGXPqqy1XI12xMQkN7kgNUmAPaGAdozcal06z7IREnM0zBj/QWm3e7qcAinXld78r8g0i1MB6RXANAAAACKrWwdQABZmDFGjG2aC0mDmHLlu+rdP90ywbso431Gwt1WBcevlkwbXaAOSy+d55MwVgPSK4BgAAAFTQ9U1bCm4vbCymChoAAFgLBNcAAABQlTrib/DVqtmmTZvkxa9sKqoBAIDqRnANAAAAAAAA8IngGgAAAKrSBx56t68GAABQSQTXAAAAUJVaN3f5agAAAJVEcA0AAABV6UPD/hoAAEAlEVwDAABAVXpmbY2vBgAAUEkE1wAAAFCVPvOWF/lq1ezJJy/Kffd9qKgGYC0tyXh0m9Q3bJMD07NyoKFfZsyaYs30bZP28SUzlz7un3zcLAKwbhFcAwAAQFV63QNnfLVqd++9f11w+/rX/7fZC8CamB6VgYYxmZ87J4dazTKfWobOyWSXya71HPfdr3UW5bVwTNobdsv4gpnPoAE/DfyZWZuzTAN39SUEAwEUjuAaAAAAsCFopky+D+j5abZN5gd3AJVhstv2JyQUNouyLI6PyISZdmhgbUSaps7Zgbv5uUFpMWsArB6CawAAAADWB83giR6TRTMLrKrpfqnvjovEunNngOn6VIZYOnCd0f3Tzjpz9k0FqrOO+0l7w1xqpCt2TuZj+6XJLMk0K8OTETkYNbMWDbYl+0ekq84sAFARBNcAAAAAAMjWOijzYxGRqHbfzMoAswNkIkft7DCrTUUk1uYE0VqGxiQ0OGpNL8n4/rhEp7L2zTru7WZxsWb6rBPo2SNbzLxKnrcOK6PpoF/frFkDYDURXAMAAEBVeuDaV/lq8PBm1vRNmYUqXUw9+wO4nV0zrtk23uLrDl2XzuDJPEaq62iebB4362xmfLezzs5A89SGyggC5Di27t82JGcTQ7LdXQaskcX5pHSMeYJmdXukNxqXE/b7slkOjYl0NuyQWPsqZZFZv2edMpZVB25JLswlZGAyLKftoN8pOTjXze8KUAEE1wAAAIAg0mBUd1IOurWXdlofuhNmndvdLPUBfCSjFtvEpMgRa12q+LplcXy3/WHezeCZ6dPAwSlzDFPsfYVsHltiSIZlxF53tEGDZHHZZW87Jh0x9xw0sNYjMmqOYa2TbusYdXtkcqpPGsN9duCg1OLywKoKhaXRTJad/m6PhOX0ULNZkKmjZ4/U2lM1ckd7WJLzmUFyAOVHcA0AAABVaeuz7vfVYCQTIt7aS6375aC3KHoqw2yHDCQSciZpllvSH84dyZHdsv18j8ynPszPyolYRHo9wTe1cjaPJdwnR8w+oa1haezfb7atl6bUuc3LGet8BtrczLVumZCkXChyIAZgNdXWh2RCg75mXgNew9bvxC476DsrB9oS0jt3SqKTPUUPInIpM4fTGZz6O9IZE+tcNNNUZEuD2QhARRFcAwAAQFU68fx3+2pwaKArLw2saeaLnRl2To56CqLnNZdMDySwkJRkOCwhM1t+kXT2m92OU6Ad1aV1UE73J6XTBLjq29zaapp52S1JO3BcI109IRnwZm+WQcuQ93fD+f3tGHMyTVt2RmRixB30Y1aGB0WibZlBcADlR3ANAAAACKDatoiIXVTdmB5NdQu1A28NIZOdpllo9kReoZ7jcro9LtvdkTrr2iQqQ7I3qybbytk8hdIstrgMZx0bWBM6+EAqY7NZDnkGNqjtOu4JcrkBYKfLdapLte5v9tGgWKo7c8Zxy0iDfvq7arI+ZYzANFAJBNcAAACAIKrbI0e8mTUnw6luobVdPdIR63aWN8R1eMFL0kCC86FdBynQAIKOiLjDHMMMMJA3m6cYy4/tDH5gMUE9BjTAxqK/E/mDZBlBO4s36EdtQqAyCK4BAAAAAZWRWTO0x/MBXTNw3IybQTnk+XCe/UHdO+8cL9cxsrdxl3sCAjogQSxdy023Sw+YkB08yDz2fGo/JyvI+3wAAKw1gmsAAABABdXUvL3gdv31bzV7AQCAakVwDQAAAFVp11STr1bNNm3aLC9+8X8rqgEAgOpGcA0AAAAAAADwieAaAAAAAAAA4BPBNQAAAFSl4Vs+76sBAABUEsE1AKtv4Zi0u0Pp28P3m+XKu84dZt+Y6XP3Ybh9AAAABNfFl9SbKQDrEcE1AKtucUqk1x1KfyoisbZ+mbHXzMqBtrhEp5x1RxuGZO/4kr1mcXy3dMqY2adPkt3uPgAAAECwPHrttSIvqjNzANYbgmsAVl1t1x5pMdNSF5KQmZTpuExEe6TL3Ee07OsTmZySRVmSOydFDu5rdlbU7ZHeaFxOkL0GAFjnnrT+++oDnyqqAQi+ixcvmikA6xHBNQCVtZCUZDhsB9gW55PSuNWTAq+Bt0RCkjIvZxIh2eL58i60NSzJeSerDQCA9ezz35kuuH3hOx8zewEAgGpFcA1ABS3J+P4hCfXskVqzxI+HHn7YTPlTjv05h9LPoVzXwDk4xygF5+DgHBzVdA73PPior+buX2oDAAAoBME1AJVhD1zQIzJ6Tg61mmU+XXP11WbKn3LszzmUfg7lugbOwTlGKTgHB+fgCMI5uPuX2rDK9N4gazAjAADWI4JrAFaf3jzvFzkydzxVX03V1ofk7Pl5M2dJdRmtl6ZwUi54RhVNnk9IqL7GzAEAAADBsXkzH82B9YzfYACrbuZwXKKjObqCtkakIzYi4yaINnN4SKS9zdquRu5oFxk4POusWDgmw7GI7Cox4w0AgI1lScaj26S+wbQ+83c1a/mBaWeU7vR6i51xriN1z8oBfZzuz9g+xbO83mShzfRZ24zr/tukXUcB927TsNv5u6/HbxuSs4kh2W4tzzgmsAF9994fyTfvecTMAVhvCK4BWGVLcmEuIQNt7k2105yb6GY5NBZKreuUMZnscrLTartG5OBct7N9W1yiU4PpEUcBAEABaqQrdk7m57Sdsv6umi+0phSGaJkAACwUSURBVEdloGHMLHfKNdR29UhHLC4zzo6yOBUX6d9v/vbGpfNkxNl+LCITI6YrpwbIukWOmuPMx9JfpE1Masb6Oefveutg6rnm9e++fnlWt0cmp/qkMdwnp63lpZaMANa7e+960EwBWI8IrgFYZd4b+3RL3UR7b7iHms1C5d0vszspAAAoUCprbIcMJBJyJmktC4WlMdbtZJWlNMuuaFxO2F9+LcmdkyLRNrccQ0SOun+jNevcHtk7OwCXqSNj8CJPply3tc9ckjprAIBAIbgGAAAABJEG1kbCdmaYfll1NGqWa9aYNX9EeuyAl9sls2VfnyRPzoosTEmsoeeSX2wVVg9VA2s75EyP+cJMs9XMGgAAgoLgGgAAABBAi/NJkYaQySCblRMxeyKltuu4081TA2qqrk2ic3EZn4pLaKc3mzy3lp3Wvt1al20l83ImEZamkDOn2W5nnUkAAAKD4BoAAACq0oUHHvPV4HDqqJn6pQ1xETdzzTvAgNZMS5Vl0AGFkjIwGZHeQmqgtQ7K6f6kdLrHMgMaZGqW3n5J1Vfdez6UzlzTYJ4woAEAYP0juAYAAAAEUrMcMl1C5+cG5dCQqXnqrXdqLc+umdZoj9zt0mN4t8mct7Pf3GOZAQ1a3OcxvNtMDg3KZGrgg3R9VQY0AACsZwTXAAAAgAq66bmvLrjd+NxfMHtVwqwMD3oHMgAAAIUguAYAAABUyCbrv59/XmtRrRIWx3dLfUO3yBgjdAMAUCyCawAAAMAG53bdpHsmqslMX/56fCutW9HCMWnPWR8QAPwjuAYAAAAAQJWyM0vzBQTtAUqWj9q74j4Ayo7gGgAAAAAA1Uaz7LJH2c2wJOMjcTNtXHIfAKuB4BoAAAAAoErNyoGGbVKvLU8mllMz0GyTkcW1JONRd3mObqQmENU+vpTqLjrjHst+Ls9z982anVTmcQtd53RlzXfMHOr2yKSOsrsvbBZkmR6VWHufdJhZ26X2AbAqCK4BAAAAAKrSRHdcds2ds2sCHm0Ykr0aCMvi1gzUdro/KcNmm5m+HRJrP5Val1lTcFYOtMUlOnVOJrvMCLmJIRmWkdRzbW9wn3tMOmIjMr6gG2nwLPO4R6XbCdCtuM6Rvh7vMf2wzr9bpLcrZOYBrCWCawAAAECFPPnkk/K5z32uqAZsZB1jg9Jiplv29YlMTuXIXktng20fTMjZ8/P2shOxiPS6gbMMcdnbMCJNU1mj44b75IjZPrQ1LI39+81z10tTKhFsXs5IejuVPq+V1jnS19Msu6IJOZO0Z4o206ej+6ZfGwBri+AaAAAAUEEf//jHC26f+MQnzF4ActPAmgbKnEyx+bGIs3ghKclwWHLmdSWsFvYf2Fpr2g12eOspRvcFqgjBNQAAAGBD065suwvvnmbXqVo+OuEl6aiGl6oxBWSZOOmpWXZ4SKS9TWrNvE2DaBKSLSYDbeakKfBf1yZRyd2NVMIRORIbE+nOUYftkuqlKeu46fNaaV25zMqwZucN7jB13bplQuLS2VDE7zCAsiO4BgAAAKBwdsF0uqOhMjokboJI26RTxtL10VzW+7E3qsElZ5sTYjLXpEa6YmMSSgWhsgNpzXJozgmwFRf0XX7c9HmttK5c9LxNlp5bu8265qNzWV1cAVQUwTUAAAAAQNVpGTonh4YG04GkoWazxqwz3SJ12t3G3j61XWYgyt5eg8OxPSaTzKzX7TOWO4MkpINiGjTzBq+yAlye81ppnfecVfY8gPWL4BoAAAAQSNrd08mesZs3O0e7aKaWT5mFloyum87+qWwf7Q6q6/Qxeswp0G6mZ8Z3m+N5u6Z5n99arjXmARQvK/CXSYN5OTJJV9wHQLkRXAMAAAACSbNt3AyaU3JwbsQJfGlArDspB90C8DsTMqAF3lUoLI1zSRM4m5KYhCVpal4tTsVFttbb0xkSQzIsI/axTveLDBx2tp/p2yEDDWPm+UdEJk0tLAAAAobgGgAAABBUqQy1HTKQMKMjJhMi/SPpLm6t++Vg2EzbReDjcueCE0wL9fRIyATbkudFom05akeF++SI6T5X2xYxwbkluTAXkaOpLnE10tXj1sICACBYCK4BAAAAQaSBtZGwnLYzx87J0aizeHFeI2z51Mgd7SKxqSVJng/JrtZm2dWgwbZZOTEXkTsKLpg+L2fcbDgAAAKO4BoAAAAQQHYQrSFkai7NyomYPWFnl8ngqMw4syLTo+luoRZ7/flRe9RFrePUsjMksf0jkmxvK6J+U7PsisZleHzJzC/J+AjdQgEAwURwDQAAAAig2q4e6Yh1m26hcRGTuaaFzo/0J6XTXm61k+F0t1ClXUPnrO13mi6drREJJfJ0CV1By9CYhAZ3mOfvEWmnWygAIJgIrgEAAACBpKMImkEL5gbl0NA5OdTqrKntOm6WW21oj3TFjqdrsJmBENxtneN41ntHIcwekTBj3vv81v5dg9ZzuTXYAAAIDoJrAAAAQAXddtttBbdbb73V7AUgyF5y83PMFID1iOAaAAAAUCGbNm2S17zmNUU1AMF37Usulxfe8GwzB2C9IbgGAAAAAMAaunjxopkCsB4RXAMAAAAAAAB8IrgGAAAAAAAA+ERwDQAAAAAAAPCJ4BoAAAAAAGto82Y+mgPrGb/BAAAAQIU8+eSTcu/0vxbVAATfxR9ulp/8+GdmDsB6Q3ANAAAAqKD5Oz9UcLt36p/MXgCC7JH7v2+mAKxHBNcAAACAoFo4Ju0N26S+oV9mzKJym+nbJgemzUyZrMYxAQBYLQTXAAAAgICaOTwkobFzMj83KC1mGQAAKC+CawAAAAAAAIBPBNcAAACAANKulZ0xkYnubVLfN+ssnO6XerubqLbdMr7gLLa7j0aPybi1j9OFdFYO6GNqe122JONRs6+17aLZ1aHb51rn2Uebex62ldal6XWsZrdWAABKRXANAAAACKCWoXNyNCrSod1Ch5qdwFq3yNE57SZqtamIxNo8QavEkJzZ6e1CGpfOkxF729P9Sels6BEZ1fWn5KAMybCnJtpEd1x2meMebRiSveNL1lINnu2QWPsp5/l0nXRL+yXXpS2O75ZOGbPW060VAFC9CK4BAAAAG8DifFI6xjxBqro90huNywk3SBbuk95WM22LyFENyllq60Mi0R7pqtO5GtnSYC9O8R63ZV+fyOSULMq8nJE+OdJVY9YUus6RHNkt28/3OIFBAACqGME1AAAAANVpLpnV/RQAgOpDcA0AAADYADT7bKLb0w104ZgMxyKyKyNbzZ+Jk+l6aTpCqbS3Sa3US5O4XUQdha1zhHqOy+n2uGxfVt8NWF+0e3N2l2cAwUJwDQAAANgIWgdN7TQzgEBbXKJT5all1iHx1MAEWiNt0u7uWSNdsTEJDe4ocl1abZcJsHkHXwAqTAfVOOCpMVhp9qAeWQN+OAN9OC3j3HRwErN8+cAjAFYLwTUAAAAgoHRQg0OezDQNVrkDCMzPHTc11Cx1e2QytieVNSbSLIe8gwi0DmbUPvMe154esta7x82okabHcZ+v8HXe4zvn7DlXYKMwo/WekIhZ4EgP9GH93kz1STKVkTorB+ygufM7lR5cBMBqI7gGAAAAVNBLfvHNBbcXv+5NZi8Aq09Hsc3MCNMMsc6YjojrzQRbvp3NBMOclj/b0pt1tmJ3UQ1qz52TQzvNvG1J7pwUObjPBKO9A5NMx2UiNfDI8kFCAKwegmsAAABAhWzatEnqd7y1qAagQqZHZaDBZIRpUKvVyaI8GtURca1ldnanBtZ6REadbebnxkTczDETDLPbWEgGDmd25VQZWWdWy+4KfWnzciYRki2eTM7Q1rAk55fsEYEbt9abpZa6kIQSCUmaWQCrh+AaAAAAAAChsDTGui8x+IAGtxIy0OZmn3XLhCTlgp2l5slo647nGO02K+sMQGAQXAMAAEBVuvDgY74aAPiitQfnzskR6bEDZPkHMYjIUTdDzW5aE1ADazvkTI9ZNtUnjWbrtOVZZwCCgeAaAAAAAACGPYjGWEQmTi7v1ilSL03huAwvy27TwFlYmkLO3OJUXM46kx7Nsisal86skT+Lo8/vZso5kucTEqqvkdr6kJw9P2+WWhaSkgyHxZwSgFVEcA1A1co7xDgAAABQbt4BCbpFjpoRbFt2RjwDGtRIV2xMQoM70tvay5ult19S3UX3ng/lyFzTGm6n5OBcd2rflbug5lIjd7Rbz+PWc1s4JsOxiOzS0XVbI9IRG0kNpDBzeEikvc0zCjCA1UJwDUBVyj/EOAAAALAKvAMSzA1Ki1mcWm4PaKCa5VBqu/RyO+PNLJscGpRJz/L0wAUanEvvW/yABnq8kXSAri0u0Sn3XK3z0oEUTIBP76X9HB9A8QiuAahCKwwxDgDAOnbxyYvyvrvfV1QDsMFpcM9k0Tm8ATqt92YWK2+AMGMfAKuJ4BqAKpR/iHEAANa7sa/8TcHtb7/6/5m9AABAtSK4BmDdeejhh82UP+XYn3Mo/RzKdQ2cg3OMUnAODs7BEYRzcPfvOvY5363Ua1jJ1mteWnC74eoGs1d1+/a//b70/Nt3zBwAABvLpictZhpAFbr77rvlxhtvNHMbxawcaIjLLk+tC63BtldG7LoRq/mBBwAA1zVXX22mgMqoxH3fxry3rG56b/vI4hNS+9Lr5KlPu8wsDR69zqD/u8o1Vk61/VtGcA2ochvzBmhJxqM9IqPpGhI6cuiJnefkkI6EBAAAEEAE1zYmgmvBwTVWTrX9W0a3UABVaIUhxgEAAAAAqCIE1wBUpfxDjAMAAADl993vflemp6ftxyBazesL+msHXArBNQBVygwxPtUnjZKQgbZtUh89JotmrdKuonbwzWoHps3CLHm3WTgm7WZ59nGRx3R/6rWs7zNZha5Lvp7a1desb9gt4wtmsVrpuMjPfs0zX0vv+z3/a8nPoty0JuSy930h/8assE0h/77Bq8T3dd5tVjgugIr6xje+YQdv9HG1/OxnPzNTlffs655lptLOnTsns7Oz8v3vf98syeQGtPK9Jrqf7q/HUWt5fUDQEVwDUMVm5YCdtXZO5ufOydGGIdk7vmSv0Q+znTJmL9cAXLK7X2bsNWn5t8l/XOShQYBukaP6Ws6dsrMKUx/4dV1bQnrtdVaL7ZFas8o107dDYu2nnPVjIRnYbwIJKx0XeZgP+/sTEgqbRbZZubDVvMZWOyrd0p7jfc3PooxMcGzv+ZA0mkUO62e0f0hCY+ZnkfPfmNL+fUOmkt7XK2yT97gAKuonP/mJLC4uylVXXWU/6nwp9Bhf/epXlwWbrrvuOmltbZVrr73WLKmczc+4uKze2vOe9zz56U9/Kg899JBZkukHP/iB/ahBtlyBM91P99fjqLW8PiDoCK4BqF7TcZmI9qQGNWjZ1ycyOWV9sFmSOydFDu5rdlbU7ZHeaFxOZHxgWmGbvMdFPotTcZH+/aZrbo109URk4qST3TFzWIMIK3XbnZUTsYj0dtU4s6375aDE5c6FlY+LfExWZ2y/NJkljmbpcl9jS2hrRuTN4GdRVta/K5Nz52RyX/ZrPS9nEuk6kS07I3L2/Lwz4yrp3zdkKu19nX+b/McFUFmPPvqo/RgKhewgkjvvh+7/4IMPVl0W18WLF81U2pVXXimXX355zuCZzutyDTg+9thj8sMf/tCsSdPMNd1fjwNgdRFcA1C1FueT0ri13sxZ6kISSiQkaX9wDckW86FUaSAhOb/kZCDY3avyb5P/uMgneT4hofp04EZTphrnknYg4MJcRJrmd6e6VKWypbSblXavWkhKMhyWkLPUUiNbGhJyxnrB8x8XpfK+ttrF0M7E4WdRIfXSFE4HxGZOxqVjpxMsc38Wvv59Q26+3teaAep088y7zQrHBVBZ3/nOd+Tqq6+Wn/u5n7Obzm8ET33qU+3rfvzxx5cF3zSYpkE1NwstO7tNs/sefvhhe389DoDVRXANAFACDQTEZeB8j9Ntam5MQoM91CVaa9P90jnXJ72MsLtGNLtwTKTbCTgPbz0lh/hZAIAvbpBIuzZedtlldjBJM8/y1SFT999/v3z2s5+165Fp07pjukxrk50+fdo+njad9hbhd2uYufNaq+yTn/xkzm6oukzXufXMlJ7Xl7/85dTz6jnoMi/3OfR87rnnHnt64etfl6vyZJfpdf/oRz9alq2nwTR9PbSrpz5mvx66ve73rGela7llX5/S18St67a0tGRPu+eur1E2zZjTbrXudvr4dev8V8oEdH8eX77rrtQ+eu3effK91rmWZ7/22eekLfv4lXLN1VebqeDaCNfoB8E1AMGi3bRy1PzCagqnu7BJs+yKmsyO1kGZH3KXo1LsQvgnIxm171qGzhHcqSS7FltcdtkB53NyRHpSRfL5WVQLDYAeT3XLBVC9vvWtb9mPbtfGF7zgBXYwKVcdMg2m3HXXXXLmzBm7u+TLXvYyu2kA6sc//rE85znPkRtvvNE+ljad1vXeAJSXG9hyz8HLDV659cw0OOUGe/S42vQ8dVmuQODXvvY1+xy1BtrNN99sb5uLdut8ylOekpGtp9epAbIrrrjCXq/ZaRoI8wagtB6b7nfNNdeYJSvTIJsGAsPhsNxwww32td19990Z567Pq7XqNHClr6m+drq97qevebaVfh76mnrr3uUKIur16HVlL9d53c997c+fPy/33nuvvOQlL7GPr+efq5sssJoIrgGoWrX1ocw6RakuOtrlKikXPNlRy7r1rLBN/uMin2Xd0pIJOdsQklr7dTbL8lnW7Va7koalyXrB8x8Xfmhg7cTOc/mDmvwsKiKzhpf1b1lXj3TE4hmDEpT27xsylPi+zrvNCscFUBluEMnbtdHtKqnL3cCM67777rODMU1NTfLSl77UznLTptM1NTV2MEqDTRrI0qbTul4DVLk8+9nPzvtcbldV3ca1bds2efnLXy7Pfe5z7abPq3IFAjXQp0GmS3nGM55hd4V1A0pKu4hqV1E9d72O7MCU+7rpfrr/peigB8o999raWmlsbFw2mIL7+moAy319dXsNDuprkW2ln4ceX9fpNsqtL+cO0qD0evRanvnMZ2Ysd7P2dB83AKevp563Hl8fb7rpprwBS2A1EFwDUL1aI9YH0pFUF0MtnC/tbdaHohq5o11k4LApSr1wTIZjpnh4qubaCtvkPS7yqW2LiAyOmuDAkoyPuDWkVnid3ZprdjZbXIZTtdhGZUAickfdSsdF0fS1l7GcWVGpmmv8LCrCDpylXkuLDl5gAvipn4Wff9+Qh5/3dbrmWv5t8h8XQGW4dcXcDCWXzmtA5ZFHHjFLMgNxGmApBw3O6LGyBwzQbC7N1tJ1bgBHs980wOOlwSJdnytzLfua8sl1Dm7Qyc1K0+fRLDU3AOWtx1ZogCn7fNxgl3vu3tfXG1BU+hwvetGLzJzjUj+P7MBlrqCpXo++ppqt6F2u56Tb6j6bN2+2g6b6ftCAI7BWCK4BqGLNcmgsJANtTt2iThmTSTNqW23XiByc63aK6LfFJTq1fLTK/NvkPy7yqNsjR/qT0qmvZcMOibWna0jVdh2Xo7Lyz6JlSGux7XC26RY56nZZXOG4KJJm28TMz8FtdqA5Ez+LCmgdlNOp1zLrdU4p7d83ZCrpfb3CNnmPC6AitKuiBm400OPlBn68XSWzs7nKxQ1geTO43MwpDfp4afaY1v7SrqBf/OIX5eMf/7i9bEX6ZaT974/VTAmBbNnnoNetz6+vgXKz29wAlD6nZp1pxlchNDDnHisf9/XV7Qp5fRePvU3+7URMRg4fkRvCN5ov+azl47vtwa/c8/cO1qABSnfeDc5p0E+vw13uZqq5XXn1OBrY0+0/85nP2N1tddtVpV/mNzhf0KTplzbm5+hdp9vmuB+rfrNywLoW9+fmcJal3q+p69Ll/ekvFTeoTU9azDSAKqS1DrRmAwAAAIKtEvd96+XeUoMon/vc51YMTmlw5tZbb7UzmDSb6Utf+pK8+MUvXpZF5aVBGK31pbK7Dmow5ytf+Yrd7dGbbaXBMg3o6HMpPS/NnNJuoC4NBF64cMEOBGl9MXf/ubm5jG0znuP7E9LelpDeOf0SRYMzO+RMz/LanO5roRlaepwvfOELOZ9fBxZ4xSteYU+75+t2p1W5rs+7n7f2nPuc7vNkz2fLPvbH/vBm+dqrDsv2hsztNbi2V0bsL5S8r6v3Z6hdRvVnq7XabrnlFns/fW7tTqrL3efxnq/+XL/5zW/atdc0sKhdQ7X2Wnk5PyPNYu6QpDSNpmt3ama6DmBkf1GmAdORsJzWL2Q0uLZf5Mg6+nJGr6UzZl1jNC6y0/N+zHstGlzTWrOV/TKw2v4tI3MNAAAAAFBV3K6PGiDRQEp2c4vuu4MNuBlVubpglkqzp/S59Jzc8/IG8DTwpBlrz3/+8+W2226zg0Baiyy7+2S2zBqdNdLVE5GJk8uz19wuk5qR5T5/djdON7tNr1/PVbf3BtbKRY+tz5/NWxPNdnGLPOvqK/Jur8t0nQYMtWuncjPwNDNPs/T0Z6rr3Ot3l+s+2bXk9GevAbXbb7/d/jno+6L87wUdDOeczMf2S5NZ4piVE7GI9Lo9YVr3y0GJy50ZmW3rhw6+ND83KLvMfAbq8eZFcA0AAAAAUDU08KIZVRpoeeELX2hnQmU3DaBo8EUzpnR7NwDz7W9/215WTm59MD22tuyBAtwAkjeTSmkgTNfls2zAmlBYGueSObsQugE+fV00kJTdVdYNLi4sLNj11rLPpVTu65tdf065wcW0Jevazsq/jrxHPnrnKdnx7oy+hTatl/ftc5+Q//H//r0cW3KyB/X89WerQcT777/fntZlSq9Hr/9SteR0ub5Wmr220mtfVssGR6uRLQ1m9HwvuzvpNrtb7LqUUYIku1usy3QdzdPFOcgIrgEAAAAAqkYhBflzBXs0m02DTtptUGtvaZBNm04vLTkBDTeAo90RNSD0wAMP2NMrcffRzCltmrXmPS83sKXdK/WY7nPqvNYzKwe3ztz3vve9jGwvl/t6uBlkbiZbOenrq9epXTfd11evV7vZ6uuT5mR4ffhf/klef8erpfPqL0n/+z9rb//YZddI+Kn3ydnZ4/KRC1fL6L/8VaprpdJutRqU1ACb9xp0Wn/W+vp7a8lpYE9rrbmvu/48tWuovlbZAci1NSsH7Dqq59ZvrefWQZmf06w2q9l1Y7PrrGm32W6RsRVGrg8wgmsAAAAAgKrhFu6/VIDI7Zqp2VxKA0w333yz3T1QM580yKbtiSeeyOiief3119sZcfPz85JIJMzSlem5uIX/s4M27vNq0Ouee+6xn1M1NTVlBOFK4QbPVL6go9tVNDuzrlzc67zuuuvs+mZ6nfpYV1dnd4PNpud4002vluYbfiby/e/Y2y887SZ59jdn5H9+5HLp/++/JnVZ1+EGEbOvwe0ymv36a5BRXw8NqOnxtQ6XZrnpeer5Voe47G0YkaapdI22dU+7voaTciGVvZaU4Tw1AzcKBjQAqhwDGgAAAGwMDGiwsXiL+9u0EP7JSPCyfjzXpde8fVKkMREyAzmsR5qh1SOSGtAgu6C/Z70ck/a2uEg4IaF1FnjSgQ1OeAc0yOB9DfT6RyRpXaO0m0EdKoABDQAElv6xrM8xDPNMX74++f7Zz5U9rHUBQ5ln8G6ffd55jqV/ZHItT9M/NOu4lgIArDqnHsuyfye1Fk25a7TY9W2y/waZejB2K+Dvk6mRk3N77zrv36SV9nHZf2eW/80EsHHUtkVEBkfNvwPWPeRIXDp2Bq073fLramwfkckxkc7A/BvYLLuicRl2/65Nj9ojit7hZqmFI3IkZl1w9zY5sLz83PqUfY0Skt7YKYlO7tiwn4MIrgEoq8ZwUjpXs4Cl+cCy93xIGs0ih/VhqTspB6e0DsApOTjXfck/XjPzYTmdqhtg/YF3Pxjpc3SLHLXXeY81Kxe2nkrVGjgq3cv/eOgfmsJ6FwDAxhUOWx8oe8r+xUua80VH/f6E1gf30OXdkuw3/5ZrzZj9WV/UZFmcEuk1/+7PT0UklqoxY/3dMfVz7L8JDUOy1/xNyL+Py/mwCWCDq9sjR/qte2c7EL9DYu2nAtKlzvslRp7r0vpddoAtGAGnlqExCQ3ucK5ZP0fE9mSNqtksh+acANt6LfbvJFKYn2vOa9Rae06AbVkSxAZAt1Cgyq2n1H0ntb3H+gd1xJMm7WSuXdhX5hoDGgDbL3LE/Uc9a945F0+a/aV49pfsfT2p7F7Ln0M/tI2KtCclVsxzA8CGoh+64rJLP1R5/23Vf4cPh2SyrN2h9N/lArvuFPQ3yrN/9t+G7L9LKdnPabH2bZ8PWx/EEpnLseHRLRQACkO3UAABVy9dPStlAugHGfONhzbzzY39TYj3Wxz9kFLMNx51IQkl4nKnnQWxJHdOikTbighu6dDSDSH7A1Ghw6Jnb7c43iMx65PVHWYeALACLYa8Upaxt3t+qmulBqoyu1lqd/2Csx4WkpI0k2kJObN8YW66fzgsIWtycT4pjVvrneXK/juUWH58zz4O6xq6RXq70ksAAMD6RnANQPm1DmZ0j0nTwJqTGm53ldFuNKZrZW1Xj3TE4qluM4tTcZH2tqxv/1fSLIfsrjf6IUxHqikmU04/6CTl4L4isiWsD32dc33S66a4LxyTvZMROUK2GgAUqEa6Rvsk2Z2j5o4G1lLd871dK5ult18kNuX+fZmVE7GI7Cq0G1Vdm0TDcTnhBuMWpiRWcFd+62/Y/iEJ9WRnpq1k+T4zfdaFjZGtBgBAkBBcA7AqnLoDboFW17yckb6MAFTLvj6RySlZNIVAnQ88mnkWkt5iAlX6QUy745gPYrtOFjiogJ0Zod11Cg/G2YMaaFegVNefWTnQlpDeZV2BAAArMvWGUkWgDc0K6/AGoKztes3fCLsAuP13wzIdl2T//iICVW5Az2TEWX83otGwNF0qiUyzqRu0+2gRI73l2EeztIe3BqWmEgAAcBFcA7BKNLuguMENWnZGZOKktb0OCtAQKepb/ZmTcenwZAakg3Yr0MCaBsmy6t2EtoYlOe/5oOfpMuoOSe2tv7Y4PiITEjfFaLfJ9kFrey1ouk6LlQJAJWnmckgHNyi0a6Zmn1n/5t65sCTjI8niSgCouj0y6WbExUJyxmpbVvpyxa2llvUlTG19SM6enzdzFm/3z5z7zMqw+/fB/nvRbf52FDBiKQAAqGoE1wCsmtquETk4NyLDc2aB1EuTZHYXnTk8lO7+adfficuBk0V20bRoQGxiJF2jTbuVugGx3PRDmcjRHIWz8w6Lbn1YGpaxZRkHtV3HnQ9ppp3uD0ujjkRX1qLcABBUzXJIR+30jJ6pgasJb3dR/fc31f2zxq7tGTs8KrGGniJKACynXTQvlfk2czgu0dEcmcmtEemIjaQCY96/Z7n30ZHi0n8r5ufGpEMicrSIzGkAAFCdCK4BWEXOB6CzqXo2OjyzZ5hqq3XKmGdUzRq5oz0pE3MRuaPIDxoa4NI6b9vd7LHJiJy2g1tLMh7NUc9Hu6gm0tlmTjPZA6ab0rJh0TWDLdbt2d5qG3CYaQAoO/1yRax/Y82s1u48nfp32GptcYlOebKMWyMSisUlpF98FMnu2m+Oq100vSNDLy8nsCQX5hIyYNfzTDdnAAUTFDTr0n/PVtoHAAAE0aYnLWYaQBViuPRSzcqBPpFDZJEBAFawON4vd7YNkkWGNVWJ+771cG957tw5+3Hbtm32o9dK61bDN77xDblw4YKZE7n88svl1ltvlac+9almSenc53CPfc8998jDDz9c9ucpJ/055DvH7373u3L27Fl5xSteIc961rPMUrhWeu3KLd/viy7/0Y9+JDfddJNcdtllZmnm9uU4T31vf//731+V39dq+7eMzDUAwabFrrfWmxkAAHLRgXRk5dprACrmec97nv2h/ic/+YlZ4tB5Xa7rV9vPfvYzueuuu2RxcVFe+9rXSmtrq91e+tKXyqOPPmq2Kp0GHvQ5NIBx++2320EMDUS409Uq3znq9dx33332OgJrTqBR30f6fnJV8ueb63dJz0UDa4899pj88Ic/NEvTy93fr/XwPqwmBNcABFvroKfbKQAAuWjZgszBbQCsnSuvvNJ+zA5iufPu+tWkASL1qle9KiO4cO2119qtnDRzSLPWgkBfq8bGxoxsKKwd932lQTOXBtQef/xxe12+5Sge3UKBKke3UAAAgI2BbqFpubqzZS/zdtl8ylOesmI3RM2o+tKXviQ//elP7fmrr756WZc4l2b5fO5zn7Oz1C4VSMvuNvr85z8/dX6aCfTVr35Vrr/+ejtYpxlE3vPMt69ep65/0YteZNY41/7tb3/bntZz16aBEN1ez/eLX/yiNDU1pa5fr/fMmTNyyy23yObNm+3zeMELXiDJpDM0s2bKaWDlUq9J9jm+7GUvs1+TXOdYymuRi/scyj1u9jmu9HN1n9PPdXsV8t7J9Tp95zvfSf3MVK6fr04r93VSeizNeNPn0IBXsdfnDQa72+jPzP1Z6fH1mlzuc+tz6jr3+N7zLPTnp/vke5+6VnqfZL8euX4X3fPXc3rhC18oX/nKV+zll3o/rbbL/ofFTAOoQvfff39FUt8BAACwtipx37de7i01ILS0tGQHDtxAwje/+U37w/0VV1yRCkDcdtttEgqF7A/UWufL3T6bXvdLXvIS2bp1qx0s0MDHI488Is997nPNFmm6/MEHH5T6+vqcx3LpOWiXzle/+tWyZcsW+7h6jhp40ONqHos+jy7TwJc+9w9+8AP7XK677jo78KDb6faaIadBBvXAAw/I0572NLnqqqvseQ04aEDIvVZd97Wvfc2+Zt3/4sWL8q1vfcs+pq5TP/7xj+3n0eDDpk2b7PPQ59aghZ6rXtelXpPs63Ov6RnPeMaycyz1tdCfdzZ9Dj3uNddcIy9/+ctznuNK1+A+Z7HXnc3v66Tbapal/iz0Z+f+3nlfO73uhx56KPUa6Pv861//ur3vM5/5TF/X56XH1ACVBqPc89XgmL539P3nfW59Xg1Q5TrPQn5+l3qfqku9T7JfD71WPV99D3vPX89Rf/81kKcBZD0ffa31+t3fgUqjWygAAAAAoKq4H5TdbmuawaPTulyDBfqB/IYbbkgFE5797GfbQbd89dBqampSGS26j36o1+NpMMMP9xw0Q8nNFNLj6jnpOeh614tf/OLUc7vPqwGxQuhx9Hjea9UMHjcQVwwNUrnnoVZ6TfR5NQiiGUPu9em2GpDJtpqvhV6nbqfcY2ogxs28KuTnWsx151Ku1ykXfT/rsdzaZ973ufJzfdk0SKevmZ6rNv2Z6D7e59blus2lAu/5fn7ucVd6n+o2l3qfaJdUzXRzXw8N6GmQWzP33Ndbt3W7rur+7rS+5iu9DquN4BoAAAAAoKroh2/98K9ZLEofdV6X64dr/QCu3cWmp6ftdvr0aTs4sBLNmnG3d7uS+aXnoB/2s+tTufMadHBpcMNL9/OuX4m7Xfbz+AkiZJ+Hyvea6PUpN8izktV8LbKvU4/pBm9cl/q5FnPd+ZTjdcplpfe5y8/1ebnnpueqTV9DzT7UzDCd1tdfm76ul7qOfD8/92eY/R7w/vwKeZ/oeWmQXKc1kKbZcZrF5gbcvOevWXY6/fGPf9zOYltrBNcAAAAAAFXH7fql3er00ZtVox+qvaN4us2ty+SlH9I/+clP2sfYvn27vZ1mz+Tj/bC/1vQcNCBRbsW+JtXIzzUUu08lXqd87/NyPbcG6jSrSwNV2vT9rYE0bfr7otlhGtTT5Rpw86Nc71PvOekx9Zy0adBP5/X8db1up+d6880323XmtEu4vlb6mq0VgmsAAAAAgKrjfqDWD/766GbVFBv80u30w7jWitJHpR/S83GzZzRjKJ985+DOu+tLle95vAXpc9HtVwp2XOo1KeY1Xs3XIvs6vdlPl7qGXIrd51LbF/M65ZPvfV7sua5EM8i0Ppo2b5BaM9E041ObG7TyI9/r4P35Ffo+0S6r2g1U6x5qd289Jz1nra+mgcbs7Dm9tttvv93+ndXag2uF4BoAAAAAoOq4Xea0ULo+ul3l9MO0ZuJoFzk3U0UDLvPz83kDSrrc/RCvH/i1eHs+bkBDAw533XVXxjH1w722fOdwzz332IMIeLv1lcIN9Olx3fPQ5/eOQul273ODgXo+Wkj+UlZ6TXJdn26Tq+vtar4WbkBFuddVW1ubOuZK15BPsfuU+jppl8aV6sq573Mt1J/9evm5vlw0YKXnoc0NYik3kPe9733P3sYv93VY6X1a6PtEz++xxx6z38/uOemyJ554wn4t3HPWbqLue8OlgTd9nTSLTR8ridFCgSqX/e0CAAAAgqkS933r7d5SA0faRUxHH9Qgk0tHDtQPzxp4u/fee2VhYUGe85zn2B/es7mjB9599932thpg0CLp+gFeX4tcXeE0wKYjk+pza0BH99OmXffq6ursfdzRC7/85S+nzkEL0Guhd+WOsKijLbrnrvvrMi30ruel8/oz0eCCmzWUPZqk1pzynoeOnKj7677uCIt67clkUi5cuGBv29jYaGdC6XHd0UK951HIa5L9Gusx9Pqe9rT75SPD75W/+sclecFbXisvto6Tei0+81GZPP5Z+dZPH5Ut+lo8+Z/Sfuvb5X+M/a117OfIldtvklCe1yLTrBz7ww/LT1/zS/KMx74jiUTCDrbo8+gok+pS16D8XLdXaa/T0+ygkP4czp8/bweDdNvskVaVHkeDa3ps9zkv9dwq+/ry0feWjryp56Pn5l6nLtdz16CVvq/d96DKNVqo97myf34aCNP5fO9TlXqf5PmdUe456aN7rjqtvycaPNNjKg3c6Wum73v3ODpa8Mrvq9WzyXqRnjTTAKqQ/mN64403mjkAAAAEVSXu+7i3DAYN5GgmkDcoUTlLMh7tkZgkRNpPyWRXjVluWTgm7W0J6Z0blBaZlQMNI9I0dVy66qx10/1SfzIi80PNzrYrmpXBd3xUrtvbLb95y1pcY+lm+rbJ8Nas1wdlU13/lon8/8PNGSsLiIKxAAAAAElFTkSuQmCC;" parent="1" vertex="1">
          <mxGeometry x="682" y="200.38" width="120.91" height="73" as="geometry" />
        </mxCell>
        <mxCell id="bZ06RdpfZGDszy67wwDh-6" style="edgeStyle=orthogonalEdgeStyle;rounded=0;orthogonalLoop=1;jettySize=auto;html=1;entryX=0;entryY=0.75;entryDx=0;entryDy=0;" edge="1" parent="1" source="bZ06RdpfZGDszy67wwDh-1" target="airflow">
          <mxGeometry relative="1" as="geometry" />
        </mxCell>
        <mxCell id="bZ06RdpfZGDszy67wwDh-1" value="Threadfox API" style="shape=cloud;whiteSpace=wrap;html=1;fillColor=#d5e8d4;strokeColor=#82b366;sketch=1;curveFitting=1;jiggle=2;shadow=1;" vertex="1" parent="1">
          <mxGeometry x="25" y="151.38" width="130" height="42" as="geometry" />
        </mxCell>
        <mxCell id="bZ06RdpfZGDszy67wwDh-2" value="DAGs" style="swimlane;fontStyle=0;childLayout=stackLayout;horizontal=1;startSize=30;horizontalStack=0;resizeParent=1;resizeParentMax=0;resizeLast=0;collapsible=1;marginBottom=0;whiteSpace=wrap;html=1;glass=0;sketch=1;curveFitting=1;jiggle=2;shadow=1;strokeColor=#C3C3C3;" vertex="1" parent="1">
          <mxGeometry x="235" y="176.88" width="80" height="120" as="geometry" />
        </mxCell>
        <mxCell id="bZ06RdpfZGDszy67wwDh-3" value="Bronze" style="text;strokeColor=none;fillColor=none;align=left;verticalAlign=middle;spacingLeft=4;spacingRight=4;overflow=hidden;points=[[0,0.5],[1,0.5]];portConstraint=eastwest;rotatable=0;whiteSpace=wrap;html=1;" vertex="1" parent="bZ06RdpfZGDszy67wwDh-2">
          <mxGeometry y="30" width="80" height="30" as="geometry" />
        </mxCell>
        <mxCell id="bZ06RdpfZGDszy67wwDh-4" value="Silver" style="text;strokeColor=none;fillColor=none;align=left;verticalAlign=middle;spacingLeft=4;spacingRight=4;overflow=hidden;points=[[0,0.5],[1,0.5]];portConstraint=eastwest;rotatable=0;whiteSpace=wrap;html=1;" vertex="1" parent="bZ06RdpfZGDszy67wwDh-2">
          <mxGeometry y="60" width="80" height="30" as="geometry" />
        </mxCell>
        <mxCell id="bZ06RdpfZGDszy67wwDh-5" value="Gold" style="text;strokeColor=none;fillColor=none;align=left;verticalAlign=middle;spacingLeft=4;spacingRight=4;overflow=hidden;points=[[0,0.5],[1,0.5]];portConstraint=eastwest;rotatable=0;whiteSpace=wrap;html=1;" vertex="1" parent="bZ06RdpfZGDszy67wwDh-2">
          <mxGeometry y="90" width="80" height="30" as="geometry" />
        </mxCell>
        <mxCell id="bZ06RdpfZGDszy67wwDh-8" style="edgeStyle=orthogonalEdgeStyle;rounded=0;orthogonalLoop=1;jettySize=auto;html=1;entryX=0;entryY=0.75;entryDx=0;entryDy=0;dashed=1;strokeColor=#9E9E9E;exitX=0.96;exitY=0.7;exitDx=0;exitDy=0;exitPerimeter=0;" edge="1" parent="1" source="bZ06RdpfZGDszy67wwDh-7" target="airflow">
          <mxGeometry relative="1" as="geometry">
            <Array as="points">
              <mxPoint x="180" y="239" />
              <mxPoint x="180" y="173" />
            </Array>
          </mxGeometry>
        </mxCell>
        <mxCell id="bZ06RdpfZGDszy67wwDh-7" value="MITRE ATT&amp;amp;CK&lt;div&gt;(TTP)&lt;/div&gt;" style="shape=cloud;whiteSpace=wrap;html=1;fillColor=#dae8fc;strokeColor=#6c8ebf;sketch=1;curveFitting=1;jiggle=2;shadow=1;fontSize=10;" vertex="1" parent="1">
          <mxGeometry x="27" y="196" width="135" height="51.5" as="geometry" />
        </mxCell>
        <mxCell id="bZ06RdpfZGDszy67wwDh-14" style="edgeStyle=orthogonalEdgeStyle;rounded=0;orthogonalLoop=1;jettySize=auto;html=1;entryX=0;entryY=0.75;entryDx=0;entryDy=0;dashed=1;strokeColor=#707070;" edge="1" parent="1" source="bZ06RdpfZGDszy67wwDh-9" target="airflow">
          <mxGeometry relative="1" as="geometry">
            <Array as="points">
              <mxPoint x="180" y="281" />
              <mxPoint x="180" y="173" />
            </Array>
          </mxGeometry>
        </mxCell>
        <mxCell id="bZ06RdpfZGDszy67wwDh-9" value="GeoLite2 MaxMind&lt;div&gt;(geolocalización IP)&lt;/div&gt;" style="shape=cloud;whiteSpace=wrap;html=1;fillColor=#dae8fc;strokeColor=#6c8ebf;sketch=1;curveFitting=1;jiggle=2;shadow=1;fontSize=10;" vertex="1" parent="1">
          <mxGeometry x="19.5" y="245.38" width="150" height="51.5" as="geometry" />
        </mxCell>
        <mxCell id="bZ06RdpfZGDszy67wwDh-13" style="edgeStyle=orthogonalEdgeStyle;rounded=0;orthogonalLoop=1;jettySize=auto;html=1;entryX=0;entryY=0.75;entryDx=0;entryDy=0;dashed=1;strokeColor=#9E9E9E;exitX=0.96;exitY=0.7;exitDx=0;exitDy=0;exitPerimeter=0;" edge="1" parent="1" source="bZ06RdpfZGDszy67wwDh-12" target="airflow">
          <mxGeometry relative="1" as="geometry">
            <Array as="points">
              <mxPoint x="157" y="320" />
              <mxPoint x="180" y="320" />
              <mxPoint x="180" y="173" />
            </Array>
          </mxGeometry>
        </mxCell>
        <mxCell id="bZ06RdpfZGDszy67wwDh-12" value="ISO 3166&lt;div&gt;(Códigos países)&amp;nbsp;&lt;/div&gt;" style="shape=cloud;whiteSpace=wrap;html=1;fillColor=#dae8fc;strokeColor=#6c8ebf;sketch=1;curveFitting=1;jiggle=2;shadow=1;fontSize=10;" vertex="1" parent="1">
          <mxGeometry x="37" y="290.5" width="125" height="51.5" as="geometry" />
        </mxCell>
      </root>
    </mxGraphModel>
  </diagram>
</mxfile>
